<?xml version="1.0" standalone="no"?>
<!DOCTYPE svg PUBLIC "-//W3C//DTD SVG 1.1//EN" "http://www.w3.org/Graphics/SVG/1.1/DTD/svg11.dtd" >
<svg xmlns="http://www.w3.org/2000/svg" xmlns:xlink="http://www.w3.org/1999/xlink" version="1.1">
<metadata></metadata>
<defs>
<font id="kg_summer_storm_roughregular" horiz-adv-x="1722" >
<font-face units-per-em="2048" ascent="1638" descent="-410" />
<missing-glyph horiz-adv-x="788" />
<glyph horiz-adv-x="0" />
<glyph horiz-adv-x="0" />
<glyph unicode="&#xd;" horiz-adv-x="788" />
<glyph unicode=" "  horiz-adv-x="788" />
<glyph unicode="&#x09;" horiz-adv-x="788" />
<glyph unicode="&#xa0;" horiz-adv-x="788" />
<glyph unicode="!" horiz-adv-x="954" d="M186 1920q0 34 3 41t37 9q28 2 101 6t155 9t156 9t102 6v-10v-54q0 -116 -21 -224t-37 -226q-2 -18 -7 -57t-11 -91t-12 -110t-12 -112t-10 -98l-6 -66q-2 -10 -5 -53t-6 -92t-6 -92t-3 -53q0 -6 -1 -18t-3 -26t-4 -27t-2 -17h-38h-11t-19 -1t-18 -2t-10 -1q-8 0 -31 -1 t-29 -5l-10 35t-8 33l-78 486q-20 64 -29 130t-19 130q-12 68 -31 135t-36 134t-29 135t-12 138zM350 186q0 66 36 114t100 70h30q4 2 19 3t34 -1t39 -7t34 -15q36 -28 57 -59t21 -77q0 -34 -12 -72t-34 -70t-53 -52t-69 -20q-90 0 -146 48t-56 138z" />
<glyph unicode="&#x22;" horiz-adv-x="1370" d="M278 1754q0 82 57 137t137 55q46 0 78 -20t52 -53t29 -74t9 -81q0 -44 -12 -96t-36 -100t-59 -86t-79 -54v10q60 82 60 170q0 6 -1 26t-1 26q-4 10 -9 11t-11 1q-22 0 -36 -12t-40 -12q-64 0 -101 47t-37 105zM780 1818q0 82 57 137t137 55q46 0 78 -20t52 -53t29 -74 t9 -81q0 -44 -12 -96t-36 -100t-59 -86t-79 -54v10q60 82 60 170q0 6 -1 26t-1 26q-4 10 -9 11t-11 1q-22 0 -36 -12t-40 -12q-64 0 -101 47t-37 105z" />
<glyph unicode="#" horiz-adv-x="1860" d="M120 864q0 4 1 11t1 9q0 6 2 24t5 40t7 42l6 30q4 22 6 40t26 18h16q6 0 17 -1t23 -3t23 -4t15 -2q12 -2 31 -4t37 -3t33 -1t19 2h14q0 6 4 22t8 22q2 10 10 35t17 53t17 53t12 35v2q0 2 1 2t1 2l-2 4q0 2 -4 4t-4 6q-22 14 -49 25t-51 25t-41 33t-17 49q0 4 1 13t1 11 t5 18t11 36l12 40t10 30q8 30 34 30h14q4 -2 16 -6t14 -4q34 -6 75 -9t79 -3l10 -4v4h4q0 4 -2 6q6 16 19 46t26 61t25 58t16 35q6 16 19 37t35 21h6q50 -16 100 -29t102 -29q4 -2 11 -6t9 -4v-6q0 -4 1 -6t1 -4q0 -34 -12 -72q-4 -10 -12 -33t-17 -49t-17 -50t-12 -32 l10 -28l11 -5t26 -12t32 -13t27 -10q34 -12 64 -24t62 -24q12 -4 39 -17t43 -13h6l10 10q34 64 62 124t44 128q4 18 6 20t12 2q0 -2 2 -2h4h4q8 -2 27 -5t23 -5q10 -4 38 -12t59 -17t58 -17t39 -12q12 -2 11 -19t-1 -21v-28q-4 -10 -12 -36t-17 -56t-18 -56t-11 -36 q-8 -22 -10 -31t-2 -29q0 -16 2 -19t20 -9q10 -4 38 -12t58 -17t58 -17t38 -12l10 -10v-16q0 -6 1 -12t1 -10q0 -10 -1 -32t-1 -26q0 -10 -7 -33t-17 -48t-20 -44t-18 -19q-28 0 -56 9t-56 19t-56 19t-56 9h-34q-2 0 -5 -4t-5 -4q0 -4 -1 -12t-3 -18t-3 -19t-1 -11 q-2 -4 -7 -18t-11 -33t-13 -37t-9 -28q-10 -24 -20 -49t-10 -55q0 -24 33 -37t74 -24t74 -26t33 -41v-20q0 -4 -5 -20t-11 -34t-13 -36t-9 -26q-8 -18 -19 -38t-33 -20q-36 0 -71 10t-67 10q-2 0 -7 -1t-7 -1q-4 -8 -14 -27t-20 -40t-20 -41l-14 -28q-10 -18 -25 -40 t-33 -36q-6 0 -24 -1t-24 -1q-26 0 -60 2t-70 9t-69 19t-53 30q10 50 31 105t37 97q6 22 18 40t12 40l-2 8q-76 6 -151 18t-149 22q-10 0 -30 4q-8 2 -18 4q-4 4 -20 6t-20 6h-28q-20 -42 -33 -65t-35 -61q-6 -12 -16 -29t-23 -33t-27 -27t-26 -11q-14 0 -48 12t-70 29 t-64 34t-28 29v6q4 8 11 30t9 26q0 2 6 14l13 26t13 25t8 15q0 2 3 10t6 17l6 18t3 11q2 4 10 24t10 24v20l-164 68q-16 6 -19 15t-3 23zM654 922q0 -2 4 -9t6 -9q6 -4 18 -10t26 -12t26 -11t18 -5q6 -2 26 -5t42 -6t42 -6t26 -3q34 -6 78 -16t66 -44q22 14 27 36t13 44 q28 74 63 147t73 143v4q0 2 1 3t1 3q0 14 -34 27t-78 25t-86 21t-56 13l-35 10t-43 11t-43 8t-37 3v-4q-16 -4 -19 -25t-7 -31q-22 -62 -46 -132t-52 -130l-10 -20z" />
<glyph unicode="$" horiz-adv-x="1470" d="M98 478v10v8q0 2 2 4q0 6 15 20t21 18l236 116h8q20 -2 41 -32t41 -69t41 -77t43 -56q34 -28 57 -40t45 -15t48 -3t66 -2q108 -8 176 25t114 129q2 4 8 23t10 23q0 2 4 9t4 11q-6 44 -15 99t-41 95q-4 4 -19 20t-33 34t-34 35t-24 23q-4 4 -27 19t-35 25q-2 0 -9 4t-9 4 q-18 6 -41 15t-47 18t-47 18t-39 15q-6 2 -34 17t-62 31t-63 31t-37 21q-4 2 -16 15t-14 15q-4 4 -20 12l-20 10q-76 52 -134 111t-98 145q-4 4 -7 14t-3 14q0 2 -2 26t-2 40q-4 98 21 169t83 147q50 66 138 98t190 42t206 6t188 -10q4 0 31 -5t39 -9q6 -4 20 -8t18 -6 q10 -2 15 -17t7 -19q6 -32 8 -50t3 -34t1 -35v-49l4 -104q0 -8 -8 -8q-4 -2 -31 -4t-37 -2q-38 -2 -99 2t-129 4t-137 -3t-124 -19t-89 -44t-32 -78q2 -40 63 -87t141 -89t157 -76t111 -48q16 -8 33 -22t33 -20q10 -4 28 -15t22 -13q2 -2 13 -9t24 -16t24 -17t17 -12 q8 -6 27 -20t41 -31t43 -34t33 -25q0 -2 5 -5t5 -5q34 -46 58 -84t40 -76t24 -80t10 -98q4 -58 0 -102t-20 -96q-10 -26 -14 -41t-22 -33q-2 -4 -9 -15t-7 -15q-40 -54 -78 -93t-82 -67t-97 -47t-121 -33q-6 -2 -25 -4t-25 -2l-144 10q-60 4 -99 3t-72 1t-71 12t-94 34 q-8 2 -25 11t-36 19t-35 20t-22 14q-4 2 -16 14t-26 27t-28 29t-22 24q-2 0 -13 19t-19 29q-4 6 -10 21t-8 19q-4 8 -11 26t-14 38t-13 38t-6 24q-2 2 -2 6zM578 -182l30 2076l10 164q0 4 4 11t4 9h6h4q4 0 -4 -2t-4 -2h18q14 2 36 4t42 2t34 -1t14 -3q2 0 14 1t25 3t24 3 t15 1h16h12q4 0 7 -8t3 -12l-16 -1968q-2 -14 -1 -33t3 -37t5 -33t3 -23q0 -4 1 -26t1 -32q0 -8 -1 -30t-1 -28q-4 -6 -13 -13t-15 -7z" />
<glyph unicode="%" horiz-adv-x="1404" d="M142 1788v24q0 8 2 18q0 4 11 27t17 33q20 32 51 69t75 37t97 -18t87 -40q30 -20 45 -51t15 -65q0 -4 -1 -11t-1 -9q-8 -48 -20 -88t-35 -70t-59 -47t-90 -17q-44 0 -80 17t-61 45t-39 66t-14 80zM154 30v10q4 14 17 50t27 76t27 76t19 50q68 172 138 341t142 338 t144 342t148 353v10q2 6 6 19t6 17t6 16l9 27t9 28t6 17t8 25t12 45t12 46t8 28q4 10 11 27t9 19h12l70 8q4 0 15 -1t24 -3t24 -3t17 -1q20 -4 50 -9t59 -10t50 -10l21 -5v-28l-292 -694q-16 -58 -37 -103t-43 -103q-2 -8 -14 -42t-25 -73t-26 -73t-15 -42q-16 -38 -29 -65 t-31 -65q-8 -18 -23 -54t-31 -74t-29 -71t-19 -43q-2 -8 -12 -36t-22 -61t-23 -61t-13 -36q-2 -4 -10 -21t-16 -38t-15 -39t-9 -22q-4 -8 -7 -21t-8 -28t-11 -28t-14 -19q-76 4 -148 -3t-144 -7q-14 0 -27 1t-13 23zM838 212v24q0 8 2 18q0 4 11 27t17 33q20 32 51 69t75 37 t97 -18t87 -40q30 -20 45 -51t15 -65q0 -4 -1 -11t-1 -9q-8 -48 -20 -88t-35 -70t-59 -47t-90 -17q-44 0 -80 17t-61 45t-39 66t-14 80z" />
<glyph unicode="&#x26;" horiz-adv-x="1694" d="M148 382v84q0 92 13 166t41 139t72 125t108 126q10 12 38 39t59 58t58 59t39 38l2 4q-2 2 -2 4v4q-40 80 -78 164t-38 180q0 44 11 95t32 99t51 89t70 69q58 40 124 50t130 10q70 0 131 -23t105 -65t69 -101t25 -131q0 -80 -27 -147t-71 -124t-100 -108t-114 -97l-10 -20 q0 -2 7 -18t18 -37t23 -44t20 -37q2 -4 9 -15t16 -24t18 -27t15 -20q4 -6 19 -27t33 -46t34 -46t20 -27t15 -22t23 -34t23 -35t17 -25q6 -6 10 -19t14 -13h4q2 0 2 2q2 2 6 5t4 5v10q-4 6 -10 23t-14 35t-15 35t-9 23q-12 28 -26 52t-14 56q0 14 26 28t59 26t65 20t44 12 q22 6 45 18t49 12q18 0 29 -34t19 -79t11 -88t3 -61q0 -54 -3 -108t-17 -106q-2 -6 -9 -29t-9 -29q-2 -2 -6 -11t-10 -19t-10 -19t-6 -11v-8q0 -12 5 -18t17 -22q4 -6 22 -30t40 -52t40 -52t22 -30q12 -16 17 -27t5 -27t-12 -30t-30 -26t-36 -21l-30 -15q-2 0 -12 -6 t-21 -12l-22 -12t-13 -8l-8 -2q-18 0 -30 8t-20 20t-15 26t-15 24q-20 28 -37 44t-21 54q-20 -2 -23 -13t-15 -25q-48 -48 -108 -84t-124 -52q-28 -6 -60 -6t-58 -14h-116q-118 0 -216 14t-176 55t-136 115t-94 194zM504 550q0 -38 10 -78q8 -38 29 -73t51 -62t66 -43 t76 -16q76 0 130 19t104 77v24q0 22 -8 42t-20 38t-26 36t-24 36q-2 2 -5 14t-5 14q-2 4 -14 16l-14 14q-4 6 -14 19t-21 28t-21 29t-14 20q-2 4 -10 18t-17 31t-18 31t-11 18q-28 40 -59 81t-39 93h-20l-6 -8t-14 -18t-15 -22t-13 -18q-40 -62 -49 -137t-9 -145v-78z M784 1582q0 -24 4 -43t18 -39q4 6 12 22t15 36t13 37t6 25q0 6 1 19t-2 24t-11 17t-26 -2q-6 -4 -12 -18t-10 -30t-6 -31t-2 -17z" />
<glyph unicode="'" horiz-adv-x="634" d="M136 1964q0 82 57 137t137 55q46 0 78 -20t52 -53t29 -74t9 -81q0 -44 -12 -96t-36 -100t-59 -86t-79 -54v10q60 82 60 170q0 6 -1 26t-1 26q-4 10 -9 11t-11 1q-22 0 -36 -12t-40 -12q-64 0 -101 47t-37 105z" />
<glyph unicode="(" horiz-adv-x="1046" d="M190 950v182q0 10 3 37t7 35q40 178 110 335t164 307q4 8 15 24t13 20q12 14 34 38t26 24h326q0 -26 -29 -69t-66 -91t-73 -95t-50 -81q-8 -18 -24 -58t-33 -84t-32 -81t-19 -51q-46 -132 -68 -262t-22 -270q0 -56 4 -114t18 -110q46 -182 119 -338t173 -306q2 -4 9 -13 t15 -19t15 -19t11 -11q-6 0 -23 -2t-36 -4t-36 -4t-23 -2h-10q-12 0 -42 2t-65 4t-65 4t-42 2q-18 2 -34 17t-28 36t-21 43t-15 40l-20 42l-4 8q-2 4 -3 7t-3 7t-9 21t-15 37t-16 37t-10 21q0 4 -6 16t-12 26t-12 26l-8 16t-5 15t-5 15q-42 158 -60 317t-18 323z" />
<glyph unicode=")" horiz-adv-x="1022" d="M106 1972v4q2 2 9 6t11 6q2 0 14 2t25 3t24 3t13 2q24 4 42 11t34 14t34 12t42 5q40 0 74 -22q80 -46 134 -128t100 -172q28 -64 62 -124t62 -124q26 -64 44 -139t28 -154t14 -157t4 -144q0 -12 -1 -33t-1 -42t-1 -36t-1 -17t-1 -10t-2 -18t-2 -19t-3 -15 q-36 -174 -68 -319t-86 -269q-8 -18 -14 -42t-15 -46t-22 -38t-33 -20q-26 -4 -49 0t-47 -10q-10 0 -38 1t-60 3t-60 4t-40 0h-12v22l146 314q56 130 77 276t21 286q0 114 -9 217t-31 211q-2 10 -7 32t-11 47t-12 47t-8 32q0 2 -8 19t-12 23q-6 12 -17 33t-21 40t-19 34 t-11 19q-6 6 -23 29t-37 50t-39 52t-27 35q-2 2 -15 16t-28 31t-28 30t-15 17t-15 21t-17 21q-8 10 -28 28t-20 40z" />
<glyph unicode="*" horiz-adv-x="1202" d="M190 670q-2 20 5 42t9 40q2 8 4 31t5 48t5 47t2 32q0 2 4 6l4 4h4q32 2 52 -3t37 -12t35 -12t48 -5q4 2 18 5t18 7l-2 18q-18 54 -45 95t-33 99l-6 48q2 6 11 10t20 6t20 3t11 1t24 2t34 4h58q38 -28 59 -75t41 -85q4 -2 7 -6t5 -4q30 8 36 35t8 56t9 52t39 25l30 2h29 t44 -1t43 -1h30l2 -16q2 -16 -5 -36t-18 -42t-24 -42t-21 -34v-16q0 -8 2 -14q0 -6 -1 -12t-1 -12l180 8q12 6 20 -10t13 -43t7 -59t4 -56l2 -16q0 -4 1 -15t-9 -11l-234 -10q-2 0 -8 -7t-8 -11q-2 -2 -2 -4l2 -4t20 -19t22 -19q2 -4 12 -20t21 -36t21 -37t14 -21 q16 -28 41 -53t27 -59q4 -16 -10 -22q-12 -2 -45 -8t-70 -14t-69 -16t-44 -10h-20q-10 4 -20 35t-19 70t-14 75t-5 50q-2 2 -5 6t-5 4q-10 0 -32 -39t-46 -84t-43 -83t-25 -38l-4 2q-6 2 -20 8t-31 14t-31 14t-20 8q-4 0 -17 4t-28 9t-28 8t-15 3q-6 4 -30 14t-32 14 q-4 2 -6 4l-4 4q6 4 20 13t22 15l12 12t22 21t23 21t15 12q2 2 12 11t14 11l10 10q6 8 14 19t18 23l20 28v8q-42 -2 -73 -5t-60 -6t-60 -7t-73 -6z" />
<glyph unicode="+" horiz-adv-x="1246" d="M176 596v6q0 72 6 133t2 133q24 0 52 1t54 1t46 1t28 3q4 0 15 1t23 4t21 9t9 18v6q0 6 -1 38t-2 69t-3 70t-2 39v20v15t10 13q32 2 57 4t48 3t47 1h54h62l8 -28l18 -230q4 -6 7 -27t13 -23q2 0 14 5t16 5q56 4 130 2t132 -2q0 -54 -5 -129t-21 -129q-2 0 -5 -4t-5 -4 q-38 -10 -72 -9t-72 1l-80 2q0 2 -8 6t-10 4l-10 2q-2 0 -5 -4t-5 -6q0 -8 1 -29t1 -44t-1 -44t-1 -29q0 -6 -1 -22t-3 -33t-4 -31t-2 -20q-6 -28 -12 -45t-44 -17q-4 0 -12 2t-18 4t-19 4t-11 2h-20q-30 2 -61 -3t-65 -5l-28 2q-22 74 -19 136t3 138l-246 -18z" />
<glyph unicode="," horiz-adv-x="588" d="M110 138q0 82 57 137t137 55q46 0 78 -20t52 -53t29 -74t9 -81q0 -44 -12 -96t-36 -100t-59 -86t-79 -54v10q60 82 60 170q0 6 -1 26t-1 26q-4 10 -9 11t-11 1q-22 0 -36 -12t-40 -12q-64 0 -101 47t-37 105z" />
<glyph unicode="-" horiz-adv-x="1226" d="M187 764q1 26 1 36q212 12 416 5t416 -17v-8q0 -4 1 -28t-1 -28q0 -6 -1 -24t-2 -40t-3 -40t-2 -24q-2 -16 -7 -31t-21 -23h-28t-41 -1t-40 -1h-27q-136 -6 -270 -7t-272 5q-6 0 -18 1t-26 2t-26 2t-18 1q-6 4 -11 14l-7 14q-10 46 -11 81t-1 79q-2 6 -1 32z" />
<glyph unicode="." horiz-adv-x="614" d="M130 198v24q0 8 2 18q0 4 11 27t17 33q20 32 51 69t75 37q36 0 75 -15t72 -41t55 -60t22 -70q0 -4 -1 -11t-1 -9q-8 -48 -17 -86t-28 -66t-52 -43t-87 -15q-44 0 -80 17t-61 45t-39 66t-14 80z" />
<glyph unicode="/" horiz-adv-x="1370" d="M96 28v10q4 14 17 50t27 76t27 76t19 50q68 172 138 341t142 338t144 342t148 353v10q2 6 6 19t6 17t6 16l9 27t9 28t6 17t8 25t12 45t12 46t8 28q4 10 11 27t9 19h12l70 8q4 0 15 -1t24 -3t24 -3t17 -1q20 -4 50 -9t59 -10t50 -10l21 -5v-28l-292 -694q-16 -58 -37 -103 t-43 -103q-2 -8 -14 -42t-25 -73t-26 -73t-15 -42q-16 -38 -29 -65t-31 -65q-8 -18 -23 -54t-31 -74t-29 -71t-19 -43q-2 -8 -12 -36t-22 -61t-23 -61t-13 -36q-2 -4 -10 -21t-16 -38t-15 -39t-9 -22q-4 -8 -7 -21t-8 -28t-11 -28t-14 -19q-76 4 -148 -3t-144 -7 q-14 0 -27 1t-13 23z" />
<glyph unicode="0" horiz-adv-x="1824" d="M112 1022q4 114 22 228t58 222q0 2 4 9t6 9l20 60q6 28 28 62t40 56q56 80 118 154t150 116q8 4 22 9l28 10t25 9t15 6q62 24 110 36t118 12h70q36 2 110 -20t156 -63t157 -95t115 -114q2 -2 11 -16t20 -31t21 -35t16 -26q46 -78 79 -145t55 -136t33 -143t11 -166 q0 -52 -5 -125t-23 -159t-54 -183t-98 -197q-2 -4 -16 -24t-16 -24q-38 -56 -76 -94t-78 -66t-82 -51t-86 -49q-34 -16 -64 -28t-66 -20h-20t-30 -1t-30 -1h-20h-53t-46 1t-46 4t-53 7t-66 18t-73 34t-71 41t-58 37q-10 6 -24 15l-28 18t-25 16t-13 9q-6 4 -19 16t-27 27 t-27 28t-17 19l-48 68q-52 84 -76 166t-44 172q-16 80 -30 158t-10 160zM518 1072q0 -64 3 -133t15 -136t36 -131t66 -116q26 -34 53 -51t65 -39q46 -28 89 -39t95 -11h65t61 10q34 10 70 37t68 61t58 69t42 63q40 70 60 137t20 151q0 96 -11 185t-41 169t-80 153t-128 139 q-8 6 -25 17t-36 20t-38 16t-29 7q-94 0 -178 -38t-149 -103t-104 -150t-45 -177v-15t-1 -30t-1 -35v-30z" />
<glyph unicode="1" horiz-adv-x="1064" d="M106 1774l16 18q20 8 68 28t102 43t103 42t69 25l64 16q6 0 31 -2t53 -3t52 -3t32 -2h32t40 1t36 1h18t14 1t25 3t24 3t15 1h28q4 0 7 -8t3 -12v-1658q-2 -14 -1 -33t3 -37t5 -33t3 -23q0 -4 1 -26t1 -32q0 -8 -1 -30t-1 -28q-4 -6 -13 -13t-15 -7h-418v1492 q-26 -10 -54 -19t-52 -18t-42 -15l-24 -8q-4 0 -17 -6t-28 -12t-28 -12t-17 -6q-4 -2 -11 -2t-11 4q-16 72 -44 142t-50 140l-4 12q-4 8 -6 21t-4 25q-2 14 -4 30z" />
<glyph unicode="2" horiz-adv-x="1622" d="M99 73q-1 17 1 21q6 112 43 200t94 162t130 139t153 131q4 4 14 10t14 8q4 4 23 16t40 25t40 25t25 16q50 32 88 76t72 92q48 68 74 132t18 150q-6 64 -33 113t-68 84t-94 57t-113 34q-4 0 -15 3t-25 6t-26 6t-14 3q-34 2 -73 -2t-76 -15t-72 -27t-61 -38q-4 4 -7 10 l-5 10q-4 6 -12 27t-19 44t-20 44t-11 29q4 12 -2 24t-16 24t-19 25t-11 31q-4 26 15 42t37 30q10 6 28 16t18 12q8 4 34 12t34 10q10 2 35 11t52 18t51 16t34 7q2 0 17 1t35 2t40 1h32q132 4 243 -36t225 -112q8 -6 31 -22t47 -32t46 -32t32 -22q0 -2 5 -9t7 -7 q34 -42 62 -78t49 -72t35 -77t18 -97q8 -82 -20 -165t-77 -158t-111 -139t-122 -106q-2 0 -22 -12t-46 -28t-54 -33t-44 -25q-36 -22 -92 -57t-108 -78t-88 -91t-32 -98h16q10 0 35 2t35 6h33t48 1t47 2t32 1q92 2 180 -3t178 -5q68 2 135 9t135 9q4 -2 15 -1t13 1l10 -10 q0 -4 2 -30t4 -40q6 -70 3 -130t1 -130q-2 0 -6 -1t-6 -1q-86 -12 -174 -9t-174 -15l-650 -14l-38 2q-2 -2 -4 -2h-4h-12l-96 12l-214 -6l-18 8q-2 0 -5 13t-3 19q0 8 -1 25z" />
<glyph unicode="3" horiz-adv-x="1690" d="M102 410q14 8 54 29t85 45t85 45t56 31q4 4 23 15t23 13h8h10q26 -52 58 -96t88 -66q90 -34 183 -60t189 -26q94 0 161 37t129 107q36 40 43 84t21 94q0 2 4 6t4 6v4q0 2 1 2t1 2t-1 5t-1 5q-6 34 -16 78t-30 74q-38 44 -76 89t-81 83t-93 66t-112 36q-42 12 -87 14 t-85 24h-220q2 2 2 4q0 4 2 6q24 64 70 136t82 128q16 26 39 49t43 47l44 66q4 4 20 19t20 19q10 16 8 19t-2 19q-28 0 -59 -2t-59 -6q-4 -2 -22 -6t-22 -4h-4h-6q-58 4 -146 7t-172 7q-98 4 -204 10l-26 28v284l8 8q4 0 27 1t52 2t57 2t44 1q132 0 249 7t249 -5h34 q12 0 44 -1t68 -2t69 -2t45 -1q4 0 23 2t41 3t41 3t23 2h13t26 1t29 1h22q12 0 33 -1t41 -6t35 -16t19 -33q0 -4 2 -21t3 -37t3 -36t2 -20q0 -2 1 -11l2 -18t3 -17t2 -10v-12v-10q-2 0 -8 -6l-10 -10t-27 -19t-29 -19q-40 -34 -77 -74t-75 -78q-6 -6 -26 -25t-42 -42 t-42 -42t-26 -25q-12 -22 -16 -29t-2 -10t8 -4t12 -9q80 -12 140 -36t108 -60t90 -84t86 -108q42 -56 62 -115t25 -122t0 -129t-15 -136q-6 -52 -26 -101t-49 -94t-64 -84t-71 -71q-28 -32 -51 -50t-39 -28q-102 -86 -225 -118t-251 -32h-93t-93 10t-97 30t-93 46 q-22 10 -45 16t-45 20q-36 24 -74 54t-70 66t-57 78t-35 90z" />
<glyph unicode="4" horiz-adv-x="1728" d="M102 906q0 6 3 32t7 34q2 8 14 55t28 106t31 117t25 90q0 4 4 16t6 14q6 28 21 87t30 121t28 113t17 67q2 14 5 49t6 73t10 69t19 37q54 10 102 11t106 1h22t34 -1t34 -1h22l4 -4q4 -4 4 -6q0 -4 -4 -18t-4 -20q-2 -2 -6 -10t-4 -10q-10 -34 -21 -76t-21 -86t-19 -86 t-17 -78q-2 -8 -9 -41t-15 -70t-15 -70t-9 -41q-10 -40 -25 -82t-15 -82v-22q102 -6 206 -12t206 -6h74l10 10q0 8 4 31t4 27v714l10 28l13 1t30 1h34h29h40h53t47 -1t24 -1q6 0 17 -1t24 -3t24 -3t15 -3v-76q0 -30 -2 -66t-3 -73t-3 -73t-2 -64q0 -114 6 -224t4 -224l8 -10 h254v-270l-244 -22q-2 0 -9 -3t-9 -5v-10q0 -4 4 -19t4 -19q0 -6 2 -19t3 -27t3 -26t2 -16q0 -2 1 -20t1 -28q0 -54 -6 -107t-6 -107v-88q0 -2 2 -13t3 -24t3 -25t2 -14q4 -50 5 -93t5 -91q0 -8 2 -42t4 -62q-20 -4 -26 -4q-12 0 -35 -2t-47 -4t-45 -3t-27 -1q-4 0 -20 1 t-34 3t-34 4t-20 2h-10h-18h-19h-11q-2 2 -9 17t-9 21q0 2 -1 14t-1 18t1 21t1 17t2 12t3 21t3 21t2 12v120q0 120 -5 241t-15 241q-2 8 -3 22t-3 26q-2 14 -4 30l-10 8h-16q-6 0 -13 1t-11 1q-50 0 -100 -5t-100 -5q-132 0 -263 6t-263 14q-10 0 -27 1t-36 2t-34 3t-19 4 q-4 0 -10 3t-10 7z" />
<glyph unicode="5" horiz-adv-x="1560" d="M98 208v6q2 28 13 57t25 57t29 55t25 53q0 2 1 10t1 10q12 64 46 134l10 10q28 -38 68 -70t82 -58q2 -2 19 -12t36 -20t36 -20t21 -12t13 -10t13 -12q6 -2 24 -5t39 -8t39 -9t26 -6q2 0 18 -1t20 -1t20 -3t36 -8t37 -9t21 -4q4 -2 12 -2h20q40 -4 93 0t91 26 q58 40 102 104t48 134q4 40 -3 74t-17 70q-2 6 -11 23t-13 27q-22 32 -49 73t-91 81q-4 4 -10 8t-8 4q-106 44 -214 86t-222 48q-8 0 -24 1t-20 1q-16 0 -56 1t-84 3t-84 3t-56 1q-2 2 -6 13t-4 15q-4 52 0 107t-6 107l-22 614v14q2 8 2 15t10 9q8 0 28 -1t41 -3t40 -3 t27 -1q14 0 66 -1t111 -2t111 -2t66 -1q4 0 33 2t67 5t77 5t63 0q14 0 49 -2t73 -4t72 -4t48 -2q6 -2 20 -2h29h29h18q16 -4 28 -20q6 -48 6 -106t-4 -106q-2 -24 -4 -62t-16 -64q-8 2 -34 4t-32 0q-96 2 -188 -1t-186 3l-236 16q-28 10 -33 2t1 -30q2 -40 3 -67t0 -51 t-4 -50t-7 -66l20 -10q48 4 82 4t80 -4q50 -4 97 -17t97 -25q38 -8 74 -15t72 -21q8 -4 27 -13t39 -18t36 -17t20 -8q6 -4 21 -12t17 -10q76 -64 125 -124t76 -126t35 -145t2 -183q0 -8 -1 -23t-1 -17q0 -4 -4 -19t-9 -33t-8 -33t-3 -19t-2 -14t-5 -21t-5 -21t-4 -12 q-8 -20 -25 -38t-27 -36q-6 -10 -19 -28t-13 -20l-9 -9t-16 -15t-16 -14t-9 -6q-50 -50 -93 -85t-88 -61t-97 -46t-118 -40q-64 -20 -127 -29t-135 -5q-52 4 -103 12t-103 20q-48 12 -96 35t-94 45q-40 22 -72 43t-66 53q-2 0 -6 4q-2 2 -4 6z" />
<glyph unicode="6" horiz-adv-x="1610" d="M112 838q0 114 23 220t67 210q8 20 31 70t49 106t49 106t33 70q6 8 18 26t26 38t26 38t18 26q2 2 10 15t18 27t18 27t10 15q2 4 15 26t27 47t27 47t17 26l19 19l19 19q88 6 184 6t202 6q2 0 6 -4t4 -8q0 -2 -4 -10t-6 -8q-2 -4 -11 -17t-19 -29t-19 -29t-11 -15t-7 -9 t-11 -15l-12 -16t-8 -10t-8 -11t-12 -19t-12 -19t-6 -11l-10 -10t-10 -8q-46 -58 -87 -122t-75 -130q-14 -28 -35 -71t-41 -85t-34 -72t-14 -32v-36q2 0 13 -3t15 -3q32 10 59 21t54 20t57 15t68 6q52 0 99 -13t95 -27q120 -32 207 -88t167 -152q62 -76 79 -168t17 -188 v-104q-4 -32 -15 -51t-23 -51q-20 -42 -31 -72t-37 -66q-32 -48 -74 -98t-90 -95t-101 -79t-107 -48h-19t-28 -1t-28 -1h-19h-23t-30 1t-26 1h-11q-4 0 -24 2t-46 5t-53 6t-41 5q-92 12 -178 61t-158 121t-125 160t-77 178q-20 76 -25 154t-5 158zM490 606q0 -82 35 -148 t90 -112t126 -71t143 -25q40 0 72 9t64 33q48 36 78 65t50 62t34 73t30 98v20q-2 4 -6 20t-4 20q-10 58 -19 97t-51 85q-6 6 -20 22t-31 33t-31 32t-20 21q-4 2 -11 5t-9 7l-14 7t-21 12t-21 13t-12 8q-10 0 -31 2t-46 3t-47 3t-30 2h-10q-58 -22 -110 -62t-91 -93t-63 -114 t-24 -127z" />
<glyph unicode="7" horiz-adv-x="1630" d="M120 1652l20 358l8 10q4 0 28 2t36 2q10 0 26 -1t32 -1t29 -1t15 -1q50 4 144 1t262 -5l30 -2h678l78 -14q8 0 12 -9t5 -22t1 -27v-22q0 -84 -5 -163t-13 -163q0 -4 1 -29t-1 -29q-4 -34 -17 -63t-31 -57t-37 -56t-31 -56q-22 -50 -42 -99t-46 -95q-8 -24 -27 -82 t-41 -123t-41 -123t-27 -80q-2 -6 -7 -28t-12 -49t-12 -50t-7 -29q-2 -8 -12 -41t-22 -70t-22 -70t-12 -41q-18 -70 -27 -152t-31 -146q-4 -4 -23 -7t-25 -3t-37 -1t-72 -3t-81 -4t-64 -2h-26q-22 0 -39 -1t-27 -1q-20 0 -31 4t-33 4q0 10 1 30t2 41t3 39t6 28l96 290 q2 2 5 9t5 11q40 100 78 197t68 199q26 72 40 111t20 59t7 25t1 9q0 34 15 74t25 72q6 22 22 76t34 114t35 113t23 75v2q0 2 1 2t1 2l-2 4q-4 4 -14 11t-14 9t-15 -4t-15 -6q-6 -2 -18 -4t-24 -3t-22 -2t-12 -1h-524q-44 0 -87 8t-89 12h-4q-10 0 -17 -6t-19 -6 q-14 0 -26 17t-10 33z" />
<glyph unicode="8" horiz-adv-x="1600" d="M112 544q0 72 11 145t36 142t66 131t101 114q2 2 16 13t20 15q4 2 11 9t9 7q14 8 13 16t-10 17t-22 21t-23 30q-74 62 -98 138t-24 170q-6 100 27 186t93 152t140 109t171 58t185 -1t182 -68q78 -44 134 -90t93 -102t54 -123t17 -153q0 -36 -6 -80t-30 -74l-14 -14 t-23 -22t-25 -22t-18 -16q-14 -10 -33 -16t-33 -6q14 -12 28 -19t27 -13t27 -15t32 -25q88 -58 139 -131t93 -163q24 -52 27 -104t3 -104v-62t-3 -74t-9 -72t-18 -58q-24 -54 -51 -98t-59 -82t-71 -73t-89 -71l-18 -9t-20 -11q-6 -2 -19 -6t-27 -8t-26 -8t-14 -4 q-6 -2 -26 -5t-44 -7l-48 -8l-36 -6q-6 -2 -18 -4t-24 -3t-22 -2t-12 -1h-46q-4 0 -22 -1t-28 -1q-80 0 -154 21t-146 43q-182 60 -264 191t-82 307zM496 592q0 -66 29 -124t77 -101t111 -67t131 -24q172 0 260 142q22 42 39 83t17 87q0 68 -17 116t-48 84t-76 66t-99 64 q-34 10 -59 11t-53 1q-68 0 -125 -30t-99 -78t-65 -108t-23 -122zM534 1510q0 -108 75 -165t183 -57q56 0 99 21t73 55t46 80t16 98q0 20 -14 48t-24 42q-40 66 -106 89t-138 23q-54 0 -81 -19t-61 -57q-10 -10 -28 -30t-20 -24q-16 -28 -18 -50t-2 -54z" />
<glyph unicode="9" horiz-adv-x="1534" d="M106 1334v30q-4 42 0 85t20 81l18 48l4 8q4 8 6 10q6 12 16 30t20 35t18 30t8 15q6 6 25 28t43 47t47 48t35 33q24 26 45 35t49 25q70 42 150 58t166 18q102 2 196 -25t175 -78t146 -124t111 -163q48 -108 45 -215t-34 -210t-81 -201t-96 -190q-2 -2 -10 -19t-8 -21 q-16 -28 -43 -79t-54 -103t-48 -92t-25 -48q-4 -6 -20 -32t-35 -56t-35 -56t-20 -32q-28 -52 -51 -113t-57 -113q-16 -26 -36 -29t-48 -3q-74 -2 -146 8t-144 8q-28 0 -53 -6t-51 -8h-14q36 102 97 191t109 181q16 32 41 79t47 91q26 52 56 106q14 20 6 30t-24 15t-35 6 t-27 5q-34 4 -67 19t-63 36t-58 44t-52 43q-42 34 -82 71t-73 80t-58 91t-33 104q-2 4 -4 22t-5 41t-5 46t-4 35zM502 1340q4 -8 13 -30t13 -28q54 -114 129 -162t199 -46t184 72t86 186q0 2 1 7t-1 9q-2 36 -16 72t-36 69t-49 62t-57 49q-36 26 -69 36t-60 10t-49 -4 t-36 -4q-64 -14 -128 -49t-98 -91q-18 -28 -23 -73t-3 -75v-10z" />
<glyph unicode=":" horiz-adv-x="758" d="M184 532q0 38 15 79t42 76t64 58t79 23q46 0 80 -16t70 -40t62 -50t26 -78v-8q-10 -34 -28 -79t-45 -86t-61 -70t-76 -29q-32 0 -62 10t-58 22q-58 22 -83 76t-25 112zM218 1168v34q2 6 8 22t15 35t17 36t14 25q14 26 50 54t70 30q48 2 85 -29t67 -63q16 -16 18 -39 t4 -43q2 -54 -34 -104t-76 -82q-20 -8 -42 -15t-44 -7q-76 -4 -112 35t-40 111z" />
<glyph unicode=";" horiz-adv-x="634" d="M136 396q0 76 50 123t116 71q16 6 22 8t18 2q28 0 57 -20t53 -50t39 -63t15 -57v-4q-10 -44 -21 -77t-31 -54t-50 -32t-78 -11q-54 0 -89 16t-71 62q-12 16 -21 40t-9 46zM152 -206q0 82 57 137t137 55q46 0 78 -20t52 -53t29 -74t9 -81q0 -44 -12 -96t-36 -100t-59 -86 t-79 -54v10q60 82 60 170q0 6 -1 26t-1 26q-4 10 -9 11t-11 1q-22 0 -36 -12t-40 -12q-64 0 -101 47t-37 105z" />
<glyph unicode="&#x3c;" horiz-adv-x="1516" d="M178 926q30 28 62 47t65 35t66 31t67 37q196 122 380 244t370 262q6 -2 6 -45t-4 -98t-9 -109t-9 -78q-6 -30 -28 -52t-51 -40t-61 -32t-56 -28q-4 -2 -23 -13t-40 -23t-40 -23t-23 -13q-4 -4 -20 -11t-34 -14t-34 -13t-20 -8q-14 -10 -14 -22v-6v-4q22 -24 64 -33 t72 -19q64 -18 125 -42t125 -40q4 -2 28 -7t28 -5q2 0 12 -3t22 -7t23 -7t17 -3q4 -2 19 -7t17 -15q-2 -2 -1 -25t1 -35l-2 -8q-4 -10 -12 -50t-18 -86t-18 -85t-10 -49l-4 -24q-26 0 -41 8t-43 18q-60 20 -121 33t-117 41q-8 4 -36 20t-61 36t-62 36t-37 20q-2 2 -14 6 t-26 10t-27 10t-15 6q-6 4 -30 15t-34 15q-12 6 -38 21t-54 31t-52 30t-32 18q-50 32 -107 67t-91 85z" />
<glyph unicode="=" horiz-adv-x="1264" d="M247 830q1 26 1 36q212 12 416 5t416 -17v-8q0 -4 1 -28t-1 -28q0 -6 -1 -24t-2 -40t-3 -40t-2 -24q-2 -16 -7 -31t-21 -23h-28t-41 -1t-40 -1h-27q-136 -6 -270 -7t-272 5q-6 0 -18 1t-26 2t-26 2t-18 1q-6 4 -11 14l-7 14q-10 46 -11 81t-1 79q-2 6 -1 32zM247 1322 q1 26 1 36q212 12 416 5t416 -17v-8q0 -4 1 -28t-1 -28q0 -6 -1 -24t-2 -40t-3 -40t-2 -24q-2 -16 -7 -31t-21 -23h-28t-41 -1t-40 -1h-27q-136 -6 -270 -7t-272 5q-6 0 -18 1t-26 2t-26 2t-18 1q-6 4 -11 14l-7 14q-10 46 -11 81t-1 79q-2 6 -1 32z" />
<glyph unicode="&#x3e;" horiz-adv-x="1296" d="M126 416v24q2 10 11 42t19 68t17 69t5 43v8q2 12 11 32t7 22q4 10 20 16t20 8q6 0 17 5t23 9t21 8t13 4l178 74q14 6 34 12t39 13t36 16t29 23q2 2 2 4v6q0 8 -1 12t-11 10q-4 2 -19 7l-33 11l-33 11t-19 9q-4 2 -22 12t-38 20l-38 19l-22 11q-24 12 -54 24t-58 29 t-49 38t-23 51q-2 24 -3 77t0 109t4 99t9 45q174 -128 348 -238t358 -218q32 -20 67 -37t68 -35t64 -39t53 -49q-50 -50 -116 -86t-124 -66q-10 -4 -38 -18t-60 -31t-62 -31t-42 -20q-12 -4 -39 -15t-35 -15q-4 -2 -18 -7t-29 -10t-28 -9t-15 -6q-10 -4 -44 -20t-72 -35 t-71 -36t-41 -19q-32 -16 -43 -20t-19 -4t-20 -1t-44 -11q-28 -8 -46 -17t-44 -7z" />
<glyph unicode="?" horiz-adv-x="1210" d="M106 1882q-4 16 13 36t40 39t47 33t38 20q68 22 135 39t151 17q120 4 226 -40t192 -124q60 -58 104 -130t56 -154v-14v-39v-57v-56v-34q-4 -58 -23 -116t-54 -109t-82 -88t-103 -49q-4 -2 -15 -3t-24 -1t-25 -1t-14 -1q-52 -22 -66 -23t-18 -1l-5 -5t-3 -5q0 -10 1 -36 t1 -54t1 -53t1 -33v-38t-4 -43t-15 -38t-31 -21q-34 -10 -65 -15t-65 -7q-30 -4 -58 1t-58 3q0 6 -1 24t-1 24v56v65v55v26l-2 40q-2 10 -4 35t-4 53t-4 53t-4 35l-8 48q4 6 19 11t21 1q14 0 51 2t79 5t79 7t51 6q40 4 78 27t65 58t41 77t8 84q-20 150 -111 231t-245 71 q-52 -4 -98 -24t-76 -60q-2 -4 -8 -14t-12 -22t-12 -22t-6 -12q-2 -2 -6 -18q-2 -8 -6 -14l-10 18l-36 66q-4 8 -17 27t-27 40t-26 40t-18 27q-14 22 -20 37t-8 37zM302 204v24q0 8 2 18q0 4 11 27t17 33q20 32 51 69t75 37q36 0 75 -15t72 -41t55 -60t22 -70q0 -4 -1 -11 t-1 -9q-8 -48 -17 -86t-28 -66t-52 -43t-87 -15q-44 0 -80 17t-61 45t-39 66t-14 80z" />
<glyph unicode="@" d="M170 835q26 145 100 289l12 24t16 31t15 26l7 11q0 2 10 13t22 25t25 29t23 23q44 50 98 90t106 78q28 18 67 31t67 21q86 20 177 24t177 -20q6 -4 21 -9t32 -12t33 -13t22 -10q10 -6 28 -15l36 -18t31 -17t15 -8q40 -22 77 -59t65 -69q32 -34 53 -67t36 -67t27 -72 t24 -82q24 -84 16 -171t-48 -163q-2 -4 -9 -16t-14 -26t-14 -26t-9 -18q-24 -28 -54 -55t-64 -49t-71 -37t-75 -15h-27h-46h-48h-33q-16 2 -23 4t-21 10q-16 8 -19 21t-17 21q-2 0 -5 1t-5 1q-28 -30 -65 -59t-83 -19l-30 4q-24 0 -44 7t-42 17q-60 32 -104 79t-66 103 t-20 118t34 124q40 76 106 132t156 56q52 -2 92 -7t84 -27q18 -10 23 -24t4 -30t-6 -33t-5 -31q0 -30 3 -64t14 -64t29 -56t48 -40q42 -22 82 -20t75 20t63 49t48 69q22 40 29 91t1 95q-16 102 -84 172t-152 114q-98 52 -220 58q-10 0 -29 1t-40 1h-39h-24q-102 -4 -182 -51 t-160 -111q-52 -44 -81 -85t-59 -99q-20 -40 -39 -82t-23 -88q-8 -96 19 -175t78 -144t121 -116t150 -91q54 -28 111 -35t115 -19q6 -6 4 -23t-8 -37t-13 -37t-11 -23q-14 -28 -37 -34t-49 -2t-52 16t-46 22q-2 0 -15 7t-30 16t-35 18t-28 15l-108 54q-54 30 -93 70t-79 84 q-30 34 -63 71t-43 83q-44 156 -18 301zM690 736q2 -32 13 -63t30 -57t39 -36q58 -28 100 -9t70 73q16 30 26 72t9 83t-18 77t-55 54q-4 2 -23 0t-23 -2q-50 -28 -91 -56t-67 -80q-12 -24 -10 -56z" />
<glyph unicode="A" horiz-adv-x="1686" d="M108 22q2 2 2 4v6q40 170 86 340t88 340q0 2 1 5t1 5q2 12 9 45t15 71t15 71t11 47q4 28 13 44t5 44l186 834q12 50 47 61t75 13q18 2 36 2q27 0 54 -4q44 -6 90 -10q12 0 43 1t67 1h68h44l10 -10q18 -60 39 -120t42 -124t43 -138t44 -160q2 -10 11 -42t21 -75t25 -91 t25 -91t21 -74t13 -41q16 -52 28 -95t23 -86t25 -91t32 -110q0 -4 8 -32t18 -64t19 -68t11 -42q20 -92 32 -170t34 -144q-34 -6 -54 -10t-24 -4q-10 0 -48 -1t-72 -3q-12 0 -39 -5t-56 -11t-52 -11t-25 -5l-20 8q-6 42 -19 82t-19 82q-16 82 -34 168t-56 162q4 6 3 25t-3 25 q-6 4 -10 8t-7 6t-3 4q-6 8 -10 25t-8 35t-11 30t-19 12q-2 0 -12 -1t-22 -3t-22 -5t-12 -3q-48 -6 -97 -12t-97 -8q-14 -10 -22 -26t-18 -32q-4 -12 -12 -30t-16 -35t-13 -30t-5 -15q-10 -24 -28 -86t-38 -131t-38 -131t-26 -86l-12 -20q-68 -2 -150 -12t-152 -14h-72 q-4 0 -15 2t-15 4zM730 990q0 -4 1 -14t11 -10l252 12q2 -2 9 -5t11 -3q10 0 10 13v15q0 4 -1 11t-1 9q-8 22 -28 75t-41 113t-40 112t-25 74q-4 12 -6 26t-5 25t-10 18t-21 5q-2 0 -7 -1t-7 -1q-16 -110 -37 -221t-55 -219q0 -2 -5 -9t-5 -11v-14z" />
<glyph unicode="B" horiz-adv-x="1796" d="M140 440v348q4 4 7 19t3 19q-1 16 -1 49v37q1 62 4 131t5 127t2 74q0 8 2 58t5 110t4 112v30q0 26 -1 34v46q0 4 5 24t5 24v15v28v27v16q2 48 20 74t46 38t64 14t76 2q88 0 174 -9t172 -13h108q8 0 27 -1t39 -3t37 -3t21 -1q2 0 14 -3t25 -7t24 -7t15 -3q30 -6 63 -10 t65 -10q48 -10 108 -32t117 -54t105 -72t76 -84q20 -34 30 -58t15 -47t5 -49v-64q0 -94 -51 -166t-115 -130q-4 -4 -19 -14l-21 -14q-2 -2 -9 -6t-15 -9t-15 -10t-9 -5q-8 -4 -29 -17t-21 -27l2 -6q8 -14 21 -9t27 1q2 0 17 -8t21 -12q58 -32 108 -79t86 -103t57 -121 t21 -133q0 -90 -16 -170t-62 -160q-2 -4 -9 -15t-9 -15l-27 -27t-40 -41t-41 -41t-28 -27q-12 -10 -34 -13t-34 -5h-108q-6 0 -33 -5t-60 -11t-61 -12t-34 -6h-106h-44h-81h-98t-98 -1t-81 -1h-44l-178 24q-4 0 -20 1t-34 3t-34 3t-20 1q-12 2 -35 13t-33 9l-20 20 q-2 4 -5 40t-5 58v35v62v61v36q0 4 -2 23t-3 40t-3 39t-2 24zM606 1168q0 -2 4 -6q2 -2 6 -4q6 -16 4 -23t22 -7h24q38 2 84 3t94 4t94 10t86 23q2 0 14 6l28 14t31 16t23 12q40 20 55 55t15 79q0 70 -39 109t-96 59t-121 24t-114 4h-106q-6 -2 -21 -5t-19 -5h-8q-4 2 -16 5 t-16 5h-4q-8 0 -11 -7t-4 -15t0 -16t1 -10q0 -12 -1 -56t-3 -95t-4 -95t-2 -56v-28zM616 242q0 -16 4 -21t20 -5q2 0 8 1t8 1q66 0 130 7t130 11q16 0 47 2t64 3t60 3t33 2q20 2 44 9t47 19t40 29t23 39q12 30 12 46v50q0 62 -24 106t-64 72t-91 46t-103 30h-234 q-4 0 -17 -2t-30 -3t-31 -3t-18 -2q-10 0 -33 1t-25 -21q0 -4 5 -19t5 -19v-72q0 -76 -5 -154t-5 -156z" />
<glyph unicode="C" horiz-adv-x="1608" d="M124 910q0 102 28 197t64 185q34 82 79 150t93 134q2 4 6 11t4 11q26 46 66 82t80 66q158 118 334 168q157 45 327 45q20 0 41 -1q16 0 42 -3t30 -3q8 -2 31 -7t23 -21v-10q-2 -18 -6 -64t-8 -98t-8 -98t-6 -64q-18 2 -38 2t-41 -2q-43 -4 -87 -13t-86 -22t-74 -25 q-112 -40 -214 -105t-170 -173q-22 -38 -41 -88t-32 -103t-20 -106t-7 -99q0 -100 33 -181t90 -140t135 -92t166 -37h16q80 0 161 18q89 20 173 42q26 10 56 22t54 26q22 -34 28 -79t16 -83q2 -10 10 -37t17 -58t17 -58t12 -39v-20q-8 -4 -33 -19t-33 -19q-46 -28 -97 -45 t-105 -24t-109 -9q-28 -1 -55 -1t-54 1q-58 2 -117 17t-115 31q-36 10 -74 18t-72 26q-6 2 -30 17t-54 33l-60 36t-48 28q-40 28 -67 47t-61 49q0 2 -4 5t-4 5q-100 130 -151 267t-51 307z" />
<glyph unicode="D" horiz-adv-x="1618" d="M128 820v272q0 8 1 39t3 66t3 65t1 38q2 20 2 32v23t1 23t7 30v404q0 10 4 44t6 44q12 8 24 13t24 9h116q140 0 278 -9t278 -43q10 -2 26 -7t33 -11t29 -11t14 -5q102 -34 184 -95t144 -142t106 -179t68 -202q26 -114 29 -236v-36q0 -103 -14 -200q-17 -114 -49 -212 t-76 -166q-72 -112 -169 -182t-205 -110t-219 -56t-209 -19q-59 -2 -111 -2q-35 0 -66 1q-40 1 -70 1t-51 -1q-4 0 -18 -1t-22 -1q-32 0 -50 8t-24 42q-12 194 -20 385t-8 387zM560 1428q0 -4 1 -23t3 -41t4 -41t2 -23q11 -231 11 -462v-38q-1 -250 -1 -500q10 0 18 4 q28 10 71 14t73 12q132 40 237 121t163 219q2 6 7 19t9 28t7 26t3 15q0 2 1 18t1 24q0 72 -4 136t-17 121t-39 112t-70 109q-4 4 -15 16t-15 14t-24 14t-24 16q-52 38 -97 67t-111 51q-2 0 -15 1t-29 1h-30t-16 2q-2 0 -18 9t-20 11l-56 -22q-10 -4 -10 -8v-12v-10z" />
<glyph unicode="E" horiz-adv-x="1578" d="M121 1429q1 25 5 54t7 58t1 55v16q-4 -6 -1 19t6 61t6 75t-1 63q0 4 -1 26t-1 32v24q0 8 2 16l20 10q2 0 22 1t30 1h18t24 -1t21 -1h11t12 -2t22 -3t22 -3t14 -2h116q14 0 64 -1t107 -3t107 -3t62 -1q24 0 83 -1t126 -1t126 1t83 1q16 -4 24 -17t11 -30t4 -34t1 -29 q0 -4 1 -19t3 -31t3 -30t1 -18v-16t1 -32t1 -37v-29v-23t-1 -35t-1 -34v-22q0 -2 -8 -6t-10 -6q-6 0 -19 -2t-27 -4t-26 -3t-14 -1h-468q-8 4 -30 7t-30 3l-10 2q-2 0 -2 -1t-2 -1h-4l-10 -48l-10 -306h14q18 0 30 2t34 8h280v-404q-84 -4 -173 -15q-58 -7 -114 -7 q-31 0 -61 2l-20 -20l16 -242q2 -10 18 -13t20 -3q20 0 35 2t37 8q50 -1 99 -1q99 0 195 5q144 8 292 8h33t41 -1t35 -1h15l20 -18v-60q6 -72 6 -138q0 -40 -2 -77q-6 -99 -34 -181q-6 2 -24 3t-38 3t-38 3t-24 1h-64h-108h-108h-64q-16 0 -76 3t-131 7t-132 7t-77 3h-126 q-6 0 -34 2t-59 4t-59 3t-34 1h-48q-2 0 -6 4l-4 4q-12 96 -14 189t-6 189q0 14 -3 66t-7 112t-7 112t-3 66v532q0 6 -1 20t-3 30t-3 30t-1 20q-6 18 -5 43z" />
<glyph unicode="F" horiz-adv-x="1484" d="M120 586q0 172 9 344l18 344t16 344q4 109 4 219q0 63 -1 125l10 8q2 0 20 1t28 1h57t59 -10q18 -2 61 -5t92 -6t92 -6t61 -3h20t42 -1t48 -1h38q112 0 222 7t220 7h29t45 -1t46 -1h30q10 -16 10 -40v-42v-48q-2 -24 -5 -63t-6 -76t-6 -64l-3 -27l-20 -18q-153 3 -264 3 q-55 0 -100 -1q-134 -2 -208 -5t-102 -5t-46 -2h-38q-4 -4 -18 -10t-14 -10v-260l22 -10q96 26 180 28t184 2h84l18 -20q0 -2 1 -25t1 -35v-25t-1 -31t-1 -29v-15q0 -6 -1 -24t-3 -38t-3 -39t-1 -27q-4 -22 -8 -43t-32 -25q-14 -2 -45 -6t-47 -4q-18 0 -61 -2t-92 -4t-92 -3 t-61 -1q-4 0 -17 -5t-13 -7v-50q-1 -24 -1 -48q0 -48 5 -96q4 -32 4 -64q0 -40 -6 -80q-2 -40 -4 -95t-4 -114l-4 -118t-3.5 -105t-3 -75t-1.5 -31l-10 -20h-414l-6 10v73q0 109 -4 216q-6 143 -6 287z" />
<glyph unicode="G" horiz-adv-x="1638" d="M124 834v128q2 52 14 99t26 95q0 2 4 19t6 21l24 88t32 84q4 6 15 26t23 43t23 43t15 26q4 4 16 21t16 21q6 8 26 30t43 48t43 49t30 33q120 128 262 181t308 53h76t80 -6t78 -19t68 -39l12 -12q4 -4 6 -8q0 -4 -2 -19t-6 -25q-4 -16 -15 -51t-24 -71t-25 -64t-20 -28 q-42 0 -84 7t-82 7q-64 0 -129 -7t-126 -25t-116 -49t-99 -81q-2 -2 -12 -9t-16 -15q-40 -30 -64 -106t-39 -168t-20 -185t-5 -157q16 -126 47 -197t59 -111q64 -88 146 -119q56 -21 136 -21q36 0 76 4h32q2 0 13 2t24 4t24 4t15 2q12 0 36 10t47 25t41 35t18 40q0 16 -1 17 t-2 -2t-2 -4t-1 9t2 38t4 84q0 18 9 33t9 31q0 22 -18 22q-14 0 -23 -5t-21 -5h-16q-4 0 -23 2t-40 3t-39 3t-22 2q-6 0 -34 -1t-34 1q-2 0 -9 4t-9 4q-4 2 -18 7t-22 5q0 6 -1 21t-3 33t-3 33t-1 21q0 2 -1 18t-1 24q0 4 1 21t1 21q2 2 10 6t10 4t12 2t22 3t24 3t18 2 q20 2 57 5t74 5t66 4t33 2h63h96h97h64l4 -64l-12 -432q-12 -84 -32 -146t-49 -109t-65 -83t-82 -70q-2 -4 -23 -9t-23 -7q-12 -4 -35 -12t-47 -16l-45 -15l-27 -9q-2 -2 -24 -5t-34 -5q-4 -2 -15 -4t-23 -4t-24 -3t-14 -1q-28 -8 -35 -9t-23 21q-8 0 -23 3t-31 7t-30 7 t-20 3q-2 0 -14 5t-16 7q-48 14 -96 20t-96 22q-38 10 -88 40t-84 56q-76 52 -128 117t-80 157q-20 56 -33 105t-21 95t-12 96t-4 110z" />
<glyph unicode="H" horiz-adv-x="1838" d="M142 -10v166q0 14 4 68t8 116t8 115t4 67t-2 73t-4 125t-3 124t-1 72q0 16 1 63t3 111t5 136t6 136t5 112t2 64v47v104t1 121t1 102l-2 24q84 2 161 11t161 11h108q2 -28 7 -96t11 -146t11 -147t7 -97l4 -176l10 -20q6 0 18 1t25 1t25 -1t16 -1h14t26 -2t25 -3t15 -1h20 h36t37 1t21 1q16 0 39 -2t45 -3t38 -3l16 -2l30 2q6 0 24 -1t38 -1t38 1t24 1q4 0 24 4t24 16l-4 140q0 8 1 43t2 74t2 74t1 43q0 10 -2 45t-3 75t-1 74v44q0 6 2 29t6 31q33 -1 66 -1q73 0 144 6q102 9 210 11q2 -79 2 -158q0 -59 -1 -118t-1 -118q0 -79 2 -158v-50 q2 -12 3 -56t3 -94t3 -93t1 -53l10 -492v-51v-78t-1 -77t-1 -50v-34v-63v-69t-2 -50v-32t-3 -33t-13 -25t-28 -10l-360 -4q-4 0 -27 3t-31 7q-2 0 -6 3t-4 7l-16 784q-2 4 -5 24t-5 26q0 2 -4 5t-6 5h-86q-94 -8 -188 -17t-190 -11h-12q-4 2 -28 11t-28 11h-10q-4 -2 -19 -5 t-19 -5q0 -14 1 -48t2 -71t2 -71t1 -46q0 -32 -4 -110t-8 -167t-7 -167t-5 -110q0 -4 -4 -20t-4 -22q-6 -16 -22 -11t-26 1q-2 0 -14 -9t-14 -11h-86q-4 0 -19 -2t-33 -4t-33 -4t-19 -2h-16h-23q-34 0 -67 4q-44 6 -90 6z" />
<glyph unicode="I" horiz-adv-x="1164" d="M136 1700q0 4 1 24t3 44t4 44t2 26t1 19t1 29t-1 29t-1 19l10 10l292 -10l432 10q8 0 27 -1t42 -3t42 -4t27 -2q18 -12 19 -31t1 -37v-50t-1 -79t-1 -84v-61l-210 -10l-4 -28v-48t1 -72t1 -72v-48q0 -186 -12 -370t-12 -372q0 -64 -4 -124q-1 -17 -1 -35q0 -44 7 -89 l12 -10h10q2 2 6 5t4 5q12 6 35 10t49 7t50 5t36 2q14 0 27 -7t13 -25v-252q0 -4 -4 -10t-6 -10q-4 0 -20 -5t-36 -10t-37 -10t-21 -5q-6 0 -23 -2t-37 -3t-39 -3t-29 -2h-30h-53h-54h-31q-2 0 -12 -1t-21 -3l-22 -4t-13 -2q-4 0 -24 1t-24 -1q-4 0 -20 -5t-18 -5 q-4 0 -21 5t-19 5q-4 0 -16 -5t-16 -5h-28q-16 0 -31 5t-31 5h-6q-2 -2 -13 -6t-15 -4q-10 0 -35 2t-35 2q4 18 3 29t-1 17q-2 8 -2 10v270q4 0 19 2t21 0q62 10 96 13t50 7q12 2 10 14t-2 16v28q0 14 -1 55t-1 96t-2 117t-2 117t-1 97t-1 56q-2 150 -3 302t-17 302 q-2 16 -3 31t-17 25q-10 10 -18 10q-4 0 -20 -5t-18 -5h-60h-46t-42 20q-2 4 -4 17t-3 27t-2 26t-1 18z" />
<glyph unicode="J" horiz-adv-x="1258" d="M84 174q0 8 1 20t1 14l66 234h20q28 0 57 -3t59 -7q4 -2 20 -7t20 -5h18q4 0 23 5t23 7q4 0 24 -1t24 1q70 16 124 62t78 118q0 4 3 21t7 19l28 70q0 26 7 50t13 52q10 64 19 130t17 132v26v49t1 58t1 54v35v56t-1 72t-1 62v30q0 6 -2 34t-4 60t-4 60t-2 36t-3 34t-5 55 t-5 56t-3 39v82h346q4 0 19 -5t19 -15q2 -2 5 -16t5 -24t5 -29t3 -23q2 -28 7 -82t10 -110t9 -100t4 -52v-382q0 -24 -2 -81t-3 -120t-3 -118t-2 -75q-4 -50 -11 -107t-17 -105q-2 -10 -7 -29t-9 -39t-8 -35t-6 -17q0 -2 -8 -21t-18 -45t-22 -52t-18 -42q-14 -30 -29 -50 t-39 -50q-14 -22 -41 -37l-45 -25q-44 -28 -80 -47t-82 -33q-4 0 -16 -4t-14 -6q-6 -4 -21 -8t-19 -4q-12 0 -38 -2t-54 -4t-54 -3t-34 -1q-72 0 -143 14t-135 56q-4 4 -15 17t-15 15q-2 2 -13 5t-13 5q-20 10 -21 35t-1 41z" />
<glyph unicode="K" horiz-adv-x="1890" d="M116 -4l64 1020v10q0 16 3 76t6 129t6 129t3 76q0 28 1 100t1 153t-1 152t-1 99l10 38q32 -10 73 -13t69 -7q16 0 57 -1t88 -3t88 -3t57 -1l10 -10q2 -2 5 -20t6 -42t6 -49t3 -41v-110q0 -24 1 -82t2 -124t3 -124t2 -82q12 -16 29 -18t33 -2q12 2 23 12t20 21t18 21 t19 16q2 4 9 13t15 19t15 18t9 12l10 10t18 19t18 19l10 10t7 12t11 20t11 19t7 11t11 10t18 19t18 20l11 11q0 2 4 11t6 9q6 8 29 45t50 79t51 80t30 48q4 4 8 16l2 2v2q4 8 14 26t12 24q12 16 24 34q8 10 14 24h22q112 0 221 -5t219 -5v-8l-13 -24t-31 -56t-37 -66 t-31 -56q-2 -4 -11 -17t-18 -28t-18 -28t-11 -17q0 -2 -6 -13t-14 -25t-15 -29t-11 -23q-2 -2 -5 -10t-5 -10q-78 -120 -147 -244t-127 -258q-8 -16 -18 -30t-10 -36v-8q0 -4 2 -6q2 -4 12 -16t14 -16q8 -16 29 -47t45 -64t46 -64t30 -47q6 -6 22 -30t34 -52t36 -55t26 -41 q2 -2 9 -13t15 -23l16 -24t10 -14q4 -6 15 -22t24 -35t24 -37t17 -24q0 -2 4 -10t9 -16t9 -15t6 -9q2 -4 9 -14t16 -22l18 -24t13 -18q10 -20 23 -36t26 -34t25 -38t20 -48l-264 -20q-24 7 -49 7q-16 0 -33 -3q-21 -4 -42.5 -4t-43.5 4q0 2 -11 1t-13 -1l-90 -20q-2 6 -9 19 t-16 28t-18 27t-11 16q-66 102 -125 199t-117 190t-120 183t-134 178q-12 12 -19 21t-13 15t-12 10t-18 8q-14 4 -15 -7t-5 -31q-2 -8 -2 -25t-2 -23v-52q0 -8 -3 -33t-7 -54t-7 -54t-3 -33v-17t-1 -28t-2 -29t-1 -16q-8 -128 -18 -252l-20 -248q-2 -4 -9 -8t-9 -6 q-10 -2 -32 -6t-26 -4h-338z" />
<glyph unicode="L" horiz-adv-x="1362" d="M142 263v55q0 224 6 447t6 447q0 136 -5 270t-5 268v64q0 6 1 24t2 38t3 38t4 24q40 20 89 20h91q64 0 125 -7t127 -7v-63t-1 -96t-1 -111t-1 -111t-2 -95t-1 -62q0 -12 -3 -59t-6 -101t-7 -101t-4 -59v-57t-1 -107t-1 -120v-92v-63t1 -83t1 -76v-42l10 -68l19 -1t45 -2 t54 -1h46h60t81 1t74 2t39 1q4 0 24 1t43 3t43 4t26 2h126q10 -4 10 -8v-10q0 -82 -8 -168t-8 -170q0 -12 -33 -19t-76 -10t-86 -4t-61 -1h-34q-148 6 -250 9t-169 5t-103 2t-54 -1t-23 -2t-7 -3q-8 0 -26 2t-38 3t-38 3t-24 2q-12 2 -38 6t-30 6q-10 0 -10 8v56t-1 85 t-1 84z" />
<glyph unicode="M" horiz-adv-x="1836" d="M136 1922v18q0 30 30 35t52 3h14q4 -4 20 -9t20 -5l136 -8q8 0 28 -2t41 -5t40 -6t27 -5q44 -6 75 -38t52 -75t36 -88t31 -79l50 -100q2 -2 8 -12t12 -22t12 -22t8 -12q4 -10 14 -34t21 -51t20 -52t13 -33q4 0 8 -1t6 -1q16 0 26 10t19 24t18 29t21 21l18 32q2 4 5 13 t5 13t10 13t17 20t17 19l12 12q-4 12 6 27t24 29t28 29t20 27q2 4 10 24t10 24q14 34 28 59t36 53q4 2 12 8t10 10q0 4 -1 15t1 13q26 82 124 88q40 2 75 7t70 9t70 5h14q29 0 61 -3q2 2 4 2q4 0 6 2l8 4h10q2 -6 4 -24t4 -39t3 -39t1 -26q0 -2 2 -41t4 -91t4 -107t4 -91v-4 q2 -114 2 -226q0 -168 -4 -334q-6 -276 -10 -558q0 -98 -2 -195t-22 -193q-19 4 -37 4q-21 0 -41 -5q-38 -9 -78 -9h-34h-64h-71h-53l-60 4q0 4 -4 11t-4 11q-16 68 -21 166t-5 201t1 200v61q0 58 -1 104q0 10 -1 39t-4 69t-5 85t-5 85t-5 70t-2 40v20q0 4 -2 11t-4 13 q-2 8 -4 14l-10 2q-22 -88 -67 -161t-85 -151l-23 -46t-35 -72t-34 -72t-22 -46l-10 -10l-10 10l-18 27t-31 45t-31 44t-18 26q-58 82 -108 171t-88 185h-14q-20 2 -23 -12t-3 -28q1 -27 1 -60v-34v-34q0 -33 1 -60q2 -14 4 -43t4 -60t3 -57t1 -34v-30t1 -69t1 -91t1 -96 t1 -84v-56v-278h-30h-46h-47h-31l-106 6q-28 2 -71 2t-75 14q-12 2 -13 8t-1 9t-2 2t-12 -9v22q10 188 12 375q1 94 1 188t-1 189l-4 120t-4 122l6 6v10h-6q-4 64 -5 127t-3 127v112q0 8 1 38t2 64t3 64t2 36q0 4 -1 25t1 25q0 2 5 10t5 10t-4 9t-6 9q0 12 -2 39t-4 58 t-4 59t-2 38z" />
<glyph unicode="N" horiz-adv-x="1746" d="M122 1072l14 808q0 18 7 35t29 21h98q12 0 42 -2t63 -3t62 -3t41 -2q26 -6 48 -32t41 -59t35 -67t28 -58q0 -2 6 -13t12 -23l12 -24t8 -14q4 -8 16 -33t14 -33l368 -638q2 -14 4 -20t5 -10t8 -10t13 -18q6 -12 22 -41t33 -61t33 -61t22 -41l10 8v94v150q1 60 1 120 t-1 120q-2 120 -2 240q0 12 -1 61t-1 106t1 107t1 62q0 10 -1 37t-2 58t-1 58v37q102 0 199 -8q65 -5 132 -5q33 0 67 1q10 -2 10 -9v-11q3 -82 3 -164v-42q-1 -104 -11 -206q0 -22 2 -78t3 -118t3 -118t2 -78q2 -40 4 -104t4 -127t4 -111t2 -54q0 -12 4 -63t7 -110t7 -110 t4 -63v-18q0 -4 -3 -29t-5 -29v-8q0 -6 -3 -28t-5 -47t-4 -48t-2 -29v-18q0 -6 -1 -16t-2 -21t-3 -19l-2 -8q-6 -10 -8 -10q-28 -12 -57 -12q-6 0 -12 1q-21 2 -44 2q-15 0 -31 -1q-72 -4 -144 -17t-142 -13q-52 0 -77 28t-51 68l-30 54t-46 83t-55 97t-55 97t-46 83l-30 54 q-60 106 -113 208t-91 216h-4q-12 0 -18 -13t-6 -21v-4q2 -2 5 -9t5 -11v-29q0 -107 13 -210q15 -117 21 -239l14 -432q-4 0 -20 -4t-20 -4q-4 -2 -15 -2h-13q-10 0 -30 -2t-41 -4t-39 -3t-24 -1t-25 2t-42 3t-42 3t-25 2q-20 2 -37.5 2t-32.5 -2q-6 -1 -12 -1q-25 0 -54 13 q-6 0 -6 8q0 6 -1 19t-2 27t-2 26t-1 16v90q-8 -4 -9 43q0 24 -0.5 54t0.5 67q1 74 4 163t5 169q1 53 1 98v42q-1 60 -5 76q-2 14 -4 41l-4 54t-4 49t-2 26z" />
<glyph unicode="O" d="M114 954v30t1 35t1 31v16q0 6 2 23t5 36t7 36t6 23q26 106 60 211t84 199t120 176t168 142q2 0 10 4t10 4q66 24 131 43t137 19q74 0 137 -31t127 -59q2 -2 13 -7t23 -10t22 -10t14 -5q24 -12 53 -31t57 -42t54 -46t46 -41q6 -6 19 -18t26 -25l23 -23l12 -12q4 -4 15 -24 t15 -24q34 -62 57 -145t36 -170t17 -168q2 -40 2 -74t-2 -61q0 -54 -9 -97t-19 -91q-2 -8 -8 -33t-13 -53l-13 -52t-8 -30q-28 -118 -93 -212t-147 -178q-10 -12 -30 -32t-41 -40t-38 -37t-21 -19q-74 -66 -165 -84t-187 -18q-58 0 -108 15t-102 35q-8 4 -24 10l-32 12 t-29 11t-17 7q-10 4 -26 12l-32 16t-28 15t-14 9q-6 4 -21 18t-33 31t-34 34t-24 25q-2 2 -9 13t-17 26t-19 29t-15 22q-22 38 -35 78t-25 80q-10 42 -25 73t-25 77q-16 78 -19 162t-3 164zM486 892q0 -50 3 -114t15 -129t34 -123t60 -98l22 -22l33 -33t33 -32t22 -21 q30 -22 69 -27t75 -5q32 0 54 1t54 11q8 4 28 17t43 27t43 26t26 18q6 4 26 23t24 29q2 4 5 15t5 13q46 106 84 211t38 223q0 54 -8 106t-22 108q-14 52 -28 99t-34 90t-48 82t-70 75q-22 18 -35 23t-37 17q-4 8 -26 19t-50 18t-55 9t-41 -6q-2 -2 -14 -5t-14 -5 q-40 -16 -79 -37t-63 -61q-4 -6 -13 -22t-20 -35l-22 -38t-15 -27q-2 -2 -6 -9t-4 -9q-4 -8 -12 -29t-17 -45t-18 -46t-13 -30q-24 -58 -28 -124t-4 -128z" />
<glyph unicode="P" horiz-adv-x="1716" d="M119 451v68q0 135 3 271q0 102 8 203l16 202t14 201q3 50 3 100t-3 100q-2 18 -4 62t-5 93t-5 94t-2 63v10q-14 28 22 42t94 20t124 10t112 14q98 0 198 -1t198 -10t194 -29t186 -60q6 -4 24 -15t24 -15q8 -6 30 -22t45 -35t43 -36t28 -23q82 -70 114 -144t32 -180 q0 -156 -75 -274t-187 -216q-4 -2 -15 -8t-24 -12t-24 -11t-15 -7q-4 -4 -14 -7t-14 -5l-68 -20q-51 -19 -114 -19h-6q-66 1 -122 1q-36 -8 -84 -8t-112 -2q-12 -6 -33 -8t-40 -2t-34 -2t-17 -8v-102l-10 -226q0 -12 -2 -56t-4 -95t-4 -95t-2 -56v-18v-30v-31v-19 q-2 -22 -19 -34t-39 -19t-46 -9t-40 -4q-4 0 -21 -2t-37 -3t-37 -3t-21 -2q-44 -4 -80 -12t-82 -8h-34l-8 10q0 18 2 36q0 16 1 32t-1 32q-10 170 -11 339zM642 1244q-2 -16 4 -31t17 -26t26 -15t31 4h31h55h56h32q34 0 78 5t88 17t83 33t61 51t26 62t4 66v38t-10 38 q-10 20 -28 40t-41 38t-49 31t-48 17q-2 0 -13 2t-24 3t-25 3t-14 2q-76 12 -151 20t-151 18h-4h-4q-2 0 -2 2q-2 0 -2 -1t-2 -1h-4q-4 -2 -7 -8t-3 -10q3 -69 3 -135q0 -33 -1 -65q-2 -96 -12 -198z" />
<glyph unicode="Q" horiz-adv-x="1892" d="M120 734v262q6 12 3 33t-3 31q0 90 26 188t69 194t97 184t112 156q2 2 7 9t12 16t13 16t8 9t7 8t12 13l13 13t8 6q0 4 4 12t8 10q6 4 14 8q6 4 13 7t11 5q98 44 193 67t205 23q98 0 188 -34t170 -86q12 -8 32 -21t39 -26t33 -23t16 -12q4 -4 21 -20t38 -37l42 -42l33 -33 q0 -2 6 -9t13 -15t13 -16t8 -10q2 0 5 -4t5 -4q36 -54 57 -111t34 -115t22 -118t19 -122q8 -56 22 -110t16 -112v-16t1 -34t1 -40v-32v-31t-1 -38t-1 -34v-17q0 -4 -3 -22t-7 -28q-18 -88 -48 -174t-82 -160q-6 -6 -15 -18t-18 -25t-18 -24t-11 -13q-6 -8 -17 -10t-11 -16 v-4l50 -202q14 -20 17 -43t3 -47q0 -4 -1 -12t-1 -10t-7 -10t-11 -10q-22 -12 -54 -24t-66 -23t-67 -20t-55 -13q-2 4 -5 15t-5 15q-2 6 -11 28t-19 48t-20 47t-12 27t-7 18t-12 23t-14 19t-15 8l-38 -2q-27 -14 -61 -14q-11 0 -23 2q-48 6 -90 6q-68 0 -138 4t-136 18 q-4 2 -27 9t-33 11q-74 28 -149 58t-133 82l-124 122l-14 21t-14 19q-4 8 -13 25t-19 37t-18 37t-12 23q-4 20 -20 47t-18 43q-2 4 -5 16t-7 26t-7 25t-3 15q-6 22 -13 39t-7 43zM516 896q0 -156 79 -276t211 -190q2 0 11 -5t19 -10t19 -10t11 -5q26 -10 37 -9t13 -1h110 q24 0 30 12t3 27t-10 30t-9 21q-4 6 -12 26t-18 44t-19 47t-13 35q-2 4 -3 9t-3 9q-2 6 -6 12q2 0 11 4t13 4q0 2 12 11t16 11q10 6 26 15t32 19t28 18t14 10q10 4 37 15t35 15q22 -6 30 -19t12 -27t6 -29t12 -27q4 -4 12 -16t8 -14q2 -4 7 -16t5 -16q0 -2 4 -10l4 -8 q2 -2 4 -2h6q16 0 21 16t21 26q2 8 6 26t8 39t9 40t7 25q0 4 4 16t4 16q2 8 6 31t7 49t6 48t3 32l10 20v12q-2 0 -6 8t-4 10v11v20v20v11q-2 10 -5 37t-5 33q-34 124 -97 208t-165 156q-16 10 -45 21t-45 21q-32 12 -55 20t-57 8q-52 0 -83 -18t-69 -52l-21 -21t-25 -26 t-22 -23l-12 -12q-42 -52 -75 -117t-56 -136t-36 -142t-13 -137z" />
<glyph unicode="R" horiz-adv-x="1692" d="M126 1326v610l28 40l12 2t27 3t31 3t28 2h30h51h52h31q2 0 12 2t22 3t22 3t12 2h118q110 0 217 -4t209 -25t197 -64t181 -123q84 -78 115 -158t31 -194q0 -76 -17 -140t-43 -138q-30 -86 -87 -149t-127 -121q-2 -4 -18 -16t-20 -12q-6 -6 -20 -21t-18 -19q-2 0 -2 -2v-4 q2 -2 2 -4q34 -70 71 -137t75 -133q28 -56 52 -113t54 -111q32 -60 70 -116t66 -116q6 -14 7 -21t1 -19v-10q-6 0 -22 -2t-35 -3t-36 -3t-23 -2h-106q-10 0 -35 2t-52 3t-52 3t-35 2q-22 34 -33 76t-27 78q-24 62 -51 123t-53 121q-2 4 -10 18t-16 30l-15 30l-9 18l-38 88 q-22 40 -29 68t-19 68q-6 10 -10 10h-302q-2 0 -9 -3t-9 -7q-13 -52 -13 -106q0 -21 2 -43q7 -77 7 -153q0 -108 -7 -213q-4 -67 -4 -135q0 -39 1 -78l-30 -10q-4 0 -19 -2t-33 -3t-35 -3t-25 -2q-52 -2 -104 -5t-104 -3h-34l-20 18q0 2 -1 26t-1 36v22t1 29t1 27v16 q0 10 2 47t4 79t3 79t1 47v96q0 2 2 10t3 16t3 15t2 9v10q0 14 -10 18q-10 142 -17 288t-13 284v68q0 6 -1 20t-3 29t-3 29t-1 20zM502 1616q0 -6 2 -28t4 -49t3 -50t1 -29q2 -24 5 -73t6 -103t6 -104t3 -76l68 -6q6 2 20 6t18 4q72 8 130 10t110 8t103 25t111 65q4 2 23 20 t27 28q28 34 49 74t21 86q0 70 -27 117t-71 80t-100 54t-112 39l-20 5t-25 6t-23 5t-12 2q-23 1 -44 1q-43 0 -83 -5q-59 -8 -123 -14q-4 0 -25 1t-25 -1q-16 -4 -18 -35t-2 -47v-16z" />
<glyph unicode="S" horiz-adv-x="1598" d="M98 478v10v8q0 2 2 4q0 6 15 20t21 18l236 116h8q20 -2 43 -30t47 -65t48 -73t46 -54q70 -56 154 -86t166 -36q33 -2 60 -2q20 0 37 1q39 3 62 18t34 41t15 68q0 2 2 11t4 21t4 21t4 11q0 2 4 9t4 11q-6 44 -15 99t-41 95q-4 4 -19 20t-33 34t-34 35t-24 23q-4 4 -27 19 t-35 25q-2 0 -9 4t-9 4q-18 6 -57 27t-83 43t-83 43t-55 27q-6 2 -22 12t-35 20t-36 20t-25 16q-4 2 -16 15t-14 15q-4 4 -20 12l-20 10q-38 26 -60 51t-39 53t-31 62t-34 76q-4 4 -7 14t-3 14q0 2 -2 26t-2 40q-1 14 -1 27q0 81 22 142q25 71 83 147q50 66 125 108t162 66 t178 30q46 3 89.5 3t85.5 -3q4 0 31 -5t39 -9q2 -2 18 -4t34 -5t33 -6t17 -3q10 -2 15 -17t7 -19q6 -32 8 -56t4 -47t3 -47t1 -54l4 -104q0 -8 -8 -8q-2 0 -21 -1t-42 -1h-43h-26q-58 -2 -121 -8t-115 -27t-85 -63q-29 -37 -30 -100q0 -8 1 -16q2 -40 22 -75t51 -63t68 -50 t71 -36q8 -4 36 -19t59 -31t58 -31t35 -17q10 -4 28 -12t22 -10q2 -2 13 -9t24 -16t24 -17t17 -12q8 -6 27 -20t41 -31t43 -34t33 -25q0 -2 5 -5t5 -5q34 -46 58 -84t40 -76t24 -80t10 -98q2 -29 2 -54.5t-2 -47.5q-4 -44 -20 -96q-10 -26 -14 -41t-22 -33q-2 -4 -9 -15 t-7 -15q-40 -54 -78 -93t-82 -67t-97 -47t-121 -33q-6 -2 -25 -4t-25 -2l-144 10q-120 8 -232 29t-226 71q-8 2 -25 11t-36 19t-35 20t-22 14q-4 2 -16 14t-26 27t-28 29t-22 24q-2 0 -13 19t-19 29q-4 6 -10 21t-8 19q-4 8 -11 26t-14 38t-13 38t-6 24q-2 2 -2 6z" />
<glyph unicode="T" horiz-adv-x="1370" d="M102 1580q10 74 10 148t4 148l2 14q0 8 2 21t6 25q4 14 6 30l20 10h73t112 1t111 2t74 3q12 0 63 4t108 8t107 8t62 4l380 -10q4 0 7 -4t3 -6q12 -42 12 -89q0 -18 -2 -36q-6 -67 -10 -127l-12 -124l-10 -10q-8 -4 -22 -3t-16 1l-270 10q-4 0 -12 -7t-10 -11l-2 -40 q2 -16 2 -55t-1 -91t-3 -111t-3 -114t-3 -101t-4 -72q-4 -122 -4 -249t1 -255v-85q0 -85 -1 -171q-2 -128 -10 -250l-446 -4l-6 48l40 524q0 14 2 62t4 113t4 137t3 137t2 112t1 61q1 22 1 44q0 49 -6 98q-5 42 -5 84q0 28 2 56q0 6 2 25t4 23q0 4 2 12t3 17t-1 15t-12 6 h-46t-77 1t-77 3t-46 2q-4 0 -18 -1t-31 -1h-31h-18t-11 3t-9 7z" />
<glyph unicode="U" horiz-adv-x="1734" d="M120 1473v81v108q2 28 3 64t4 73t6 73t7 66q2 0 -1 18t1 18q4 4 24 1t24 1q2 0 25 3t33 5h20q8 0 39 -1t67 -3t68 -3t40 -1q10 -2 17 -1t11 -11q2 -2 5 -17t5 -19q0 -24 -1 -85t-1 -130t1 -131t1 -86q0 -12 1 -56t3 -96t4 -96t2 -56q4 -90 12 -168t26 -166 q12 -58 26 -104t35 -86t53 -75t80 -71q40 -28 72 -44t78 -16t84 18t76 42q40 26 65 74t38 103t18 110t5 95q0 78 -1 168t-9 166q-4 42 -4 105v109q0 36 -1 62t-3 51t-2 52t2 63v22v39v40v23q0 10 2 36t3 55t3 54t2 35q14 8 25 5t27 -3h26q4 -2 28 -2h30h96q4 0 29 -4t29 -4 q6 0 19 -1t29 -1t30 1t20 1q2 -8 4 -29t5 -43t6 -43t5 -29q0 -14 2 -53t5 -93t6 -113t6 -113t6 -94t3 -52q0 -4 2 -16t3 -26t3 -27t2 -15v-24t1 -46t1 -52v-42v-41t-1 -49t-1 -42v-20q0 -12 -3 -43t-6 -66t-6 -66t-5 -45l-8 -48t-14 -79t-16 -82t-12 -57q-12 -46 -39 -100 t-63 -102t-80 -87t-92 -55q-60 -28 -110 -44t-102 -24t-110 -9t-134 -1h-112q-4 2 -15 5t-15 5q-4 0 -18 3t-30 7t-31 7t-17 3q-102 24 -176 84t-144 136q-6 20 -22 34t-26 32q-22 42 -33 64t-15 52q-4 8 -7 23l-6 30t-5 27t-2 14l-28 474v388q-12 38 -12 79z" />
<glyph unicode="V" horiz-adv-x="1754" d="M116 1922q0 22 19 23t35 1q22 0 42 1t42 1h10q4 2 28 5t30 3q30 8 74 9t76 1q8 0 31 -1t31 -1q42 -50 66 -112t50 -120q4 -8 18 -38t31 -65t31 -64t18 -37q0 -2 4 -14t6 -16q8 -20 28 -72t44 -111t45 -112t29 -73l10 -38q12 -34 21 -68t17 -68q2 0 2 -1t2 -1q10 0 16 12 t8 18q12 32 16 64t14 62q42 130 83 258t81 256q28 90 54 173t72 167q19 -1 37 -1q32 0 61 4q46 7 96 7h40q8 0 26 -2t38 -3t37 -3t23 -2q10 -4 11 -8t1 -12q0 -2 -1 -5t-1 -5q-32 -118 -66 -223t-68 -223q-2 -4 -7 -24l-11 -44t-13 -49t-9 -37q-22 -98 -51 -193t-55 -195 q-28 -112 -59 -222t-57 -224q-16 -58 -29 -117t-29 -115q-2 -6 -12 -35t-22 -65t-25 -71t-19 -53q-8 -22 -30 -30q-52 -10 -120 -15t-120 -5q-24 0 -37 14t-23 36q-16 42 -27 85t-21 86t-21 86t-29 83q-32 84 -62 170t-62 170q-22 56 -48 111t-50 111q-4 10 -11 28t-9 20 l-28 68q-52 120 -95 241t-89 245q-4 8 -17 41t-28 70t-28 70t-15 41q-14 36 -32 74t-18 78z" />
<glyph unicode="W" horiz-adv-x="1876" d="M90 1956v18l9 1q9 1 22 3t27 3t22 1q2 0 13 2t17 2q26 0 50 -8t48 -8q20 0 44 3t50 7t51 7t45 3q2 0 4 -1t6 -1h6q4 -2 11 -14t9 -18q0 -4 4 -18t8 -32t7 -33t3 -17q2 -4 11 -25t11 -25q20 -64 42 -127t36 -129q16 -90 42 -180t46 -178q2 -6 6 -22t7 -34t6 -33t3 -19 t3 -14t6 -22t5 -23t2 -13q2 -2 2 -18t2 -20q2 -10 6 -40t4 -38q4 -10 9 -11t11 -1l8 2q2 6 11 21t19 32t18 32t12 21q16 26 25 54t25 52q0 2 5 9t9 15t9 15t5 9q16 30 22 61t20 61h10l98 -200l30 -42q20 -16 28 -31t13 -26t10 -17t21 -6q12 -2 14 1t6 17q2 10 -1 25t-3 25 q10 94 25 192t33 194q0 2 3 12t6 21t7 21t4 12t1 18t2 39t2 45t3 36q6 100 34 194t44 192q8 2 35 5t37 3q8 0 49 -2t90 -4t90 -4t49 -4q8 0 28 -1t26 -1q0 -66 -11 -134t-25 -137t-30 -136t-24 -131q-64 -386 -108 -770q-2 -20 -8 -62t-13 -86t-13 -80t-6 -46 q-2 -12 -11 -58t-19 -100t-19 -101t-9 -59q0 -10 -4 -36t-4 -34q-36 -17 -90 -17h-6q-58 1 -100 3l-90 2q-28 0 -50 10t-32 42q-4 16 -14 58t-22 89t-22 89t-14 58q-2 8 -9 34t-11 36t-10 29l-12 38t-11 34t-5 19q-2 2 -7 10t-9 18t-9 19t-7 13q0 2 -4 5t-4 5l-6 2 q-8 0 -19 -29t-23 -65t-21 -67t-13 -37q-4 -10 -17 -47t-30 -80t-31 -81t-16 -46q-16 -38 -23 -77t-23 -73q-10 -2 -24 -3t-34 -5q-2 0 -2 1t-2 1q-4 0 -29 -4t-29 -6l-166 16l-6 40l-3 14t-6 33t-6 39t-3 32q-2 8 -6 42t-7 72t-6 71t-3 41q-28 218 -61 429t-79 423 q-2 6 -11 37t-19 66t-20 66t-12 39l-40 218q-2 2 -5 14t-5 16q-6 28 -15 71t-16 83t-13 70t-6 34z" />
<glyph unicode="X" horiz-adv-x="1804" d="M122 164l6 138q0 6 8 21t10 19q4 4 20 22t33 39t33 39t20 24q2 2 10 13t10 13q2 4 16 14t16 14q2 2 1 11t-1 11q26 56 68 103t78 99q2 0 5 8t5 10q2 4 11 23t9 23q2 4 11 16t19 25l20 26t14 19t17 23t28 36t29 35t18 22v4q2 24 -19 48t-37 40q-4 2 -16 15t-27 27t-28 26 t-17 16t-17 19t-29 32t-30 33t-18 20q-64 68 -136 129t-130 135q-10 8 -10 13v13v12q2 24 5 63t6 79t6 70t3 36q0 12 2 30t5 36l5 30l2 12l10 8l14 2t33 4t39 4t32 4q2 0 13 1t24 2t25 2t18 1h10q4 -4 14 -21t14 -23q18 -22 55 -68t76 -95t72 -91t43 -56q2 -4 13 -14t22 -22 t21 -22l12 -12q2 -4 12 -18t20 -29t20 -29t12 -18q6 -4 24 -25t24 -27q14 -12 21 -17t19 -5l10 -2q74 56 127 131t109 145q4 6 19 24t33 39t33 39t19 22q44 52 96 97t122 57q16 2 39 3t46 1h43h28q10 0 34 -5t32 -7q-1 -26 -1 -52t1 -51q2 -51 2 -102t-4 -102t-16 -101 q0 -4 -3 -10l-5 -10q-4 -4 -14 -15t-22 -23l-23 -23l-13 -13q-8 -10 -34 -47t-58 -82t-63 -89t-49 -66q-4 -4 -12 -17t-12 -13q-12 -14 -27 -32t-30 -39t-27 -43t-16 -42v-10q4 -4 9 -12t7 -8q2 -4 14 -22t24 -39t23 -39t13 -22q10 -14 35 -52t54 -80t55 -81t36 -53 q18 -16 35 -45t29 -45q2 -4 10 -13t8 -13q8 -10 22 -37t32 -59t36 -63t34 -49v-4q0 -6 -2 -26t-5 -43t-5 -43t-2 -26q-2 -8 -5 -25t-8 -35t-11 -32t-12 -14q0 -2 -8 -1t-10 1h-26t-44 -1t-44 -1h-24l-26 2q-32 2 -61 5t-63 11q-26 4 -36 28t-22 42l-23 46t-38 73t-40 75 t-27 52q-4 4 -11 15t-7 15q-4 2 -20 20t-18 22l-140 186q-2 2 -5 6t-5 4q-4 2 -10 -5t-10 -3q0 -2 -12 -18t-26 -35t-26 -35t-12 -18q-34 -42 -73 -84t-79 -76l-226 -276q-10 -10 -30 -15t-43 -7t-44 -1t-35 1q-30 2 -59 8t-59 8q-10 2 -15 -3t-15 -5q-20 0 -33 20t-20 46 t-9 53t-2 43z" />
<glyph unicode="Y" horiz-adv-x="1632" d="M108 1944l2 4q0 2 5 5t7 3q10 2 43 3t43 1q4 0 17 -1t27 -2t27 -2t17 -1h118q18 2 32 6q12 4 23 5t13 1q14 0 28 -2t24 -12q20 -16 37 -40t31 -51t26 -54t26 -49q22 -34 38 -70t31 -72t31 -72t40 -68q20 -24 31 -38t18 -22t11 -11t8 -3h6q0 2 4 5t4 5q10 -4 6 8 q8 14 17 35t17 43t15 41t11 25q8 12 17 37t19 53t21 54t21 40l20 46q20 40 37 70t43 62l6 6q2 2 4 2q4 0 18 1t18 -3q34 14 84 20t104 6t106 -3t90 -5q-2 -16 -4 -22t-12 -20q-74 -108 -152 -235t-144 -239q-22 -34 -32 -69t-19 -70t-19 -70t-28 -71q-20 -20 -16 -46t0 -40 q0 -4 -2 -17t-3 -28t-2 -28t-1 -17q0 -8 -1 -23t-3 -30t-3 -26t-1 -13q-2 -22 -4 -69t-5 -98t-5 -95t-2 -58v-16t1 -27t1 -28v-17q0 -12 -1 -61t-2 -105t-2 -105t-1 -61q0 -2 1 -12t2 -21t2 -21t1 -12t-1 -17t-3 -23q0 -4 -1 -19t-1 -19h-90h-106h-105t-89 4q-6 0 -19 1 t-29 2t-29 3t-19 2l12 66v24t1 34t1 34v26v8q0 4 1 6t1 4q0 22 2 69t3 107t4 125t4 125t3 107t2 69q-4 6 -5 25t-3 25q0 2 1 10t1 10q0 4 -3 28t-3 28l6 70q-10 24 -5 36t3 40q0 2 -4 6l-6 6q-44 38 -80 89t-66 107t-58 113t-56 109q-30 62 -69 118t-67 116q-2 4 -8 25 t-8 25q-6 12 -22 32t-33 40t-30 39t-13 29z" />
<glyph unicode="Z" horiz-adv-x="1698" d="M113 1669q1 21 1 25v76t2 90q0 52 2 106l48 6l466 -22h47h79h79h47q6 0 30 -2t53 -3t53 -2t30 -1q108 0 216 3q36 1 72 1q73 0 148 -4q-2 -10 -5 -15t-7 -13q-46 -84 -86 -169t-80 -173q-44 -94 -90 -184t-88 -186q-10 -22 -28 -70t-41 -109t-48 -127t-47 -127t-40 -108 t-26 -69q-14 -56 -46 -108t-62 -98l2 -26q4 0 10 -3t10 -1q2 0 12 3t21 5t20 5t13 3q12 0 40 2t59 4t58 4t37 4q8 0 44 1t76 1h75h45q58 2 117 9q38 4 75 4q22 0 44 -1q4 0 14 -2t12 -2l10 -10l1 -11t2 -26l2 -30t1 -23q0 -12 1 -34t2 -45t1 -41v-22v-37t-1 -45t-2 -38 l-1 -16l-8 -10q-16 -2 -30 -2q-12 0 -26 -1t-22 1q-6 0 -36 1t-64 2t-64 2t-38 1q-12 0 -57 -3t-98 -6t-98 -5t-57 -2q-28 0 -99 4t-152 10t-153 13t-100 11q-66 -4 -129 -17q-48 -10 -99 -10q-16 0 -32 1v22q0 2 4 24t11 51t14 59t11 48l42 142q2 6 10 27t18 47t19 48 t13 28q0 2 3 11l6 18t5 17t4 10q52 150 107 294t113 294q26 64 48 129t44 129q10 34 21 73t33 67l20 22q2 2 2 4q-2 28 -29 32t-47 6q-4 2 -17 1t-15 -1q-4 0 -14 -1t-22 -2t-22 -3t-12 -2q-10 0 -42 -2t-70 -4t-71 -3t-41 -1q-40 -2 -82 -8q-25 -4 -51 -4q-17 0 -35 2 l-72 2l-20 22q-2 4 -2 12v20q-2 10 -1 31z" />
<glyph unicode="[" horiz-adv-x="790" d="M136 203v45q0 20 1 56t1 71t1 62t1 31q0 32 2 92t4 135t5 156t5 153t4 128t2 82q2 10 6 51t8 87t8 87t4 51t1 68t3 126t3 126t1 68q2 10 6 47t8 79t8 79t4 47q4 22 19 37t37 29q36 0 94 7t117 15t110 15t77 7h44q8 -2 21 -5t13 -5v-198q-94 -4 -183 -22t-183 -12l-24 -20 q4 -36 2 -83t-16 -81q-2 -26 -5 -89t-6 -144t-7 -172t-7 -172t-5 -143t-2 -88v-38t-1 -79t-1 -92v-75v-289t14 -289h22q72 0 143 11t143 11h20t16 -12v-208q0 -2 -11 -10t-17 -12h-14q-62 14 -122 16t-130 2q-4 0 -13 -1t-17 -1h-20h-35t-53 -1t-54 -2t-36 -1q-12 14 -12 44 t-2 40v45t-1 69t-1 69z" />
<glyph unicode="\" horiz-adv-x="1356" d="M256 2012l10 3q10 3 24 6l28 6t22 5q2 0 14 4l18 6l196 22h12h6q4 -2 14 -14t12 -16q0 -4 5 -19l11 -33t12 -34t6 -18q2 0 6 -7t9 -16t9 -17t4 -10q28 -64 44 -129t38 -135q46 -174 100 -354t109 -352t105 -325t87 -270t59 -189t18 -82q-20 -6 -60 -20h-4t-29 -9t-29 -13 l-224 -20l-14 40l-5 13t-11 32t-11 39t-7 32q-4 8 -13 42t-18 75t-16 76t-9 43q-58 224 -128 441t-144 437q-4 8 -17 39t-29 67t-29 68t-15 38l-68 228q-2 2 -7 14t-7 16q-10 30 -23 74t-26 87t-22 74t-9 35z" />
<glyph unicode="]" horiz-adv-x="860" d="M222 2048l4 106q8 2 28 4t42 5t41 4t27 1h28h47h47h28q2 0 17 1t31 2t30 1h18h24q4 0 16 -1t14 -13q4 -96 6 -223t3 -260t2 -260t3 -223q0 -12 1 -64t3 -111t4 -110t2 -65t1 -53t3 -91t4 -111t4 -112t4 -92t2 -51v-71v-122v-121v-70l-4 -108q0 -2 -4 -7t-6 -5 q-48 -10 -112 -3t-114 7q-4 0 -17 -1t-29 -1t-31 -1t-19 -1l-52 4q-4 -2 -8 -2h-8t-6 2q-8 0 -19 -1t-11 13q-2 8 -5 31t-6 48t-5 48t-2 33q0 2 -1 11t1 13q0 6 1 17t11 9h12h20t20 -1t12 -1t12 -1l20 -2l20 -2t12 -1q34 0 71 -5t65 -7q4 2 9 4t5 4v12q-12 92 -11 185 t-1 187q0 36 -1 97t-2 131t-2 143t-2 136t-2 107t-1 56q-2 10 -5 50t-8 86t-9 86t-6 50v30v47v93t-1 115t-1 114v91v46q0 20 -1 32t-25 12q-20 4 -36 0t-34 -6q-8 0 -31 -3t-50 -7t-50 -7t-31 -3v22l-1 12t-2 29l-2 34t-1 29z" />
<glyph unicode="^" horiz-adv-x="1536" d="M336 854v14l11 25t26 57t30 66t25 52q90 166 168 325t158 329h14q24 -36 67 -91t96 -123t112 -145t115 -156t104 -156t82 -147q-38 -8 -58 -11t-38 -3t-39 1t-59 1q-8 0 -21 1t-26 1t-23 1t-12 1l-24 10q-4 8 -17 29t-28 43t-28 42t-17 30q-6 12 -33 50t-59 77t-61 70 t-41 31q-22 0 -29 -17t-9 -35q-2 -8 -7 -31t-10 -50t-10 -50t-7 -29q-6 -24 -17 -59t-21 -68t-18 -57t-10 -24z" />
<glyph unicode="_" horiz-adv-x="1106" d="M139 184q1 26 1 36q134 2 242 3t205 -1t190 -5t195 -9v-8q0 -4 1 -28t-1 -28q0 -6 -1 -24t-2 -40t-3 -40t-2 -24q-2 -16 -7 -31t-21 -23h-28t-41 -1t-40 -1h-27q-136 -6 -270 -7t-272 5q-6 0 -18 1t-26 2t-26 2t-18 1q-6 4 -11 14l-7 14q-10 46 -11 81t-1 79q-2 6 -1 32z " />
<glyph unicode="`" horiz-adv-x="904" d="M160 2392l10 4q6 2 19 9t27 16t26 18t16 15h4q10 2 20 3t6 5q4 0 8 -2l8 -4l6 -6q2 -2 29 -22t68 -49t91 -64t96 -67t85 -59t57 -39q-26 -28 -50 -52t-28 -34q-38 10 -71 29t-63 37q-4 2 -18 10t-29 17t-29 18t-20 13q-4 4 -18 13t-16 11q-2 0 -8 5t-12 11t-12 10t-6 2 q-4 4 -21 15t-35 22t-34 20t-20 13q-16 10 -21 14t-7 7t-6 8t-18 17q-10 10 -19 15t-15 21z" />
<glyph unicode="a" horiz-adv-x="1686" d="M108 22q2 2 2 4v6q40 170 86 340t88 340q0 2 1 5t1 5q2 12 9 45t15 71t15 71t11 47q4 28 13 44t5 44l186 834q12 50 47 61t75 13q18 2 36 2q27 0 54 -4q44 -6 90 -10q12 0 43 1t67 1h68h44l10 -10q18 -60 39 -120t42 -124t43 -138t44 -160q2 -10 11 -42t21 -75t25 -91 t25 -91t21 -74t13 -41q16 -52 28 -95t23 -86t25 -91t32 -110q0 -4 8 -32t18 -64t19 -68t11 -42q20 -92 32 -170t34 -144q-34 -6 -54 -10t-24 -4q-10 0 -48 -1t-72 -3q-12 0 -39 -5t-56 -11t-52 -11t-25 -5l-20 8q-6 42 -19 82t-19 82q-16 82 -34 168t-56 162q4 6 3 25t-3 25 q-6 4 -10 8t-7 6t-3 4q-6 8 -10 25t-8 35t-11 30t-19 12q-2 0 -12 -1t-22 -3t-22 -5t-12 -3q-48 -6 -97 -12t-97 -8q-14 -10 -22 -26t-18 -32q-4 -12 -12 -30t-16 -35t-13 -30t-5 -15q-10 -24 -28 -86t-38 -131t-38 -131t-26 -86l-12 -20q-68 -2 -150 -12t-152 -14h-72 q-4 0 -15 2t-15 4zM730 990q0 -4 1 -14t11 -10l252 12q2 -2 9 -5t11 -3q10 0 10 13v15q0 4 -1 11t-1 9q-8 22 -28 75t-41 113t-40 112t-25 74q-4 12 -6 26t-5 25t-10 18t-21 5q-2 0 -7 -1t-7 -1q-16 -110 -37 -221t-55 -219q0 -2 -5 -9t-5 -11v-14z" />
<glyph unicode="b" horiz-adv-x="1796" d="M140 440v348q4 4 7 19t3 19q-1 16 -1 49v37q1 62 4 131t5 127t2 74q0 8 2 58t5 110t4 112v30q0 26 -1 34v46q0 4 5 24t5 24v15v28v27v16q2 48 20 74t46 38t64 14t76 2q88 0 174 -9t172 -13h108q8 0 27 -1t39 -3t37 -3t21 -1q2 0 14 -3t25 -7t24 -7t15 -3q30 -6 63 -10 t65 -10q48 -10 108 -32t117 -54t105 -72t76 -84q20 -34 30 -58t15 -47t5 -49v-64q0 -94 -51 -166t-115 -130q-4 -4 -19 -14l-21 -14q-2 -2 -9 -6t-15 -9t-15 -10t-9 -5q-8 -4 -29 -17t-21 -27l2 -6q8 -14 21 -9t27 1q2 0 17 -8t21 -12q58 -32 108 -79t86 -103t57 -121 t21 -133q0 -90 -16 -170t-62 -160q-2 -4 -9 -15t-9 -15l-27 -27t-40 -41t-41 -41t-28 -27q-12 -10 -34 -13t-34 -5h-108q-6 0 -33 -5t-60 -11t-61 -12t-34 -6h-106h-44h-81h-98t-98 -1t-81 -1h-44l-178 24q-4 0 -20 1t-34 3t-34 3t-20 1q-12 2 -35 13t-33 9l-20 20 q-2 4 -5 40t-5 58v35v62v61v36q0 4 -2 23t-3 40t-3 39t-2 24zM606 1168q0 -2 4 -6q2 -2 6 -4q6 -16 4 -23t22 -7h24q38 2 84 3t94 4t94 10t86 23q2 0 14 6l28 14t31 16t23 12q40 20 55 55t15 79q0 70 -39 109t-96 59t-121 24t-114 4h-106q-6 -2 -21 -5t-19 -5h-8q-4 2 -16 5 t-16 5h-4q-8 0 -11 -7t-4 -15t0 -16t1 -10q0 -12 -1 -56t-3 -95t-4 -95t-2 -56v-28zM616 242q0 -16 4 -21t20 -5q2 0 8 1t8 1q66 0 130 7t130 11q16 0 47 2t64 3t60 3t33 2q20 2 44 9t47 19t40 29t23 39q12 30 12 46v50q0 62 -24 106t-64 72t-91 46t-103 30h-234 q-4 0 -17 -2t-30 -3t-31 -3t-18 -2q-10 0 -33 1t-25 -21q0 -4 5 -19t5 -19v-72q0 -76 -5 -154t-5 -156z" />
<glyph unicode="c" horiz-adv-x="1608" d="M124 910q0 102 28 197t64 185q34 82 79 150t93 134q2 4 6 11t4 11q26 46 66 82t80 66q158 118 334 168q157 45 327 45q20 0 41 -1q16 0 42 -3t30 -3q8 -2 31 -7t23 -21v-10q-2 -18 -6 -64t-8 -98t-8 -98t-6 -64q-18 2 -38 2t-41 -2q-43 -4 -87 -13t-86 -22t-74 -25 q-112 -40 -214 -105t-170 -173q-22 -38 -41 -88t-32 -103t-20 -106t-7 -99q0 -100 33 -181t90 -140t135 -92t166 -37h16q80 0 161 18q89 20 173 42q26 10 56 22t54 26q22 -34 28 -79t16 -83q2 -10 10 -37t17 -58t17 -58t12 -39v-20q-8 -4 -33 -19t-33 -19q-46 -28 -97 -45 t-105 -24t-109 -9q-28 -1 -55 -1t-54 1q-58 2 -117 17t-115 31q-36 10 -74 18t-72 26q-6 2 -30 17t-54 33l-60 36t-48 28q-40 28 -67 47t-61 49q0 2 -4 5t-4 5q-100 130 -151 267t-51 307z" />
<glyph unicode="d" horiz-adv-x="1618" d="M128 820v272q0 8 1 39t3 66t3 65t1 38q2 20 2 32v23t1 23t7 30v404q0 10 4 44t6 44q12 8 24 13t24 9h116q140 0 278 -9t278 -43q10 -2 26 -7t33 -11t29 -11t14 -5q102 -34 184 -95t144 -142t106 -179t68 -202q26 -114 29 -236v-36q0 -103 -14 -200q-17 -114 -49 -212 t-76 -166q-72 -112 -169 -182t-205 -110t-219 -56t-209 -19q-59 -2 -111 -2q-35 0 -66 1q-40 1 -70 1t-51 -1q-4 0 -18 -1t-22 -1q-32 0 -50 8t-24 42q-12 194 -20 385t-8 387zM560 1428q0 -4 1 -23t3 -41t4 -41t2 -23q11 -231 11 -462v-38q-1 -250 -1 -500q10 0 18 4 q28 10 71 14t73 12q132 40 237 121t163 219q2 6 7 19t9 28t7 26t3 15q0 2 1 18t1 24q0 72 -4 136t-17 121t-39 112t-70 109q-4 4 -15 16t-15 14t-24 14t-24 16q-52 38 -97 67t-111 51q-2 0 -15 1t-29 1h-30t-16 2q-2 0 -18 9t-20 11l-56 -22q-10 -4 -10 -8v-12v-10z" />
<glyph unicode="e" horiz-adv-x="1578" d="M121 1429q1 25 5 54t7 58t1 55v16q-4 -6 -1 19t6 61t6 75t-1 63q0 4 -1 26t-1 32v24q0 8 2 16l20 10q2 0 22 1t30 1h18t24 -1t21 -1h11t12 -2t22 -3t22 -3t14 -2h116q14 0 64 -1t107 -3t107 -3t62 -1q24 0 83 -1t126 -1t126 1t83 1q16 -4 24 -17t11 -30t4 -34t1 -29 q0 -4 1 -19t3 -31t3 -30t1 -18v-16t1 -32t1 -37v-29v-23t-1 -35t-1 -34v-22q0 -2 -8 -6t-10 -6q-6 0 -19 -2t-27 -4t-26 -3t-14 -1h-468q-8 4 -30 7t-30 3l-10 2q-2 0 -2 -1t-2 -1h-4l-10 -48l-10 -306h14q18 0 30 2t34 8h280v-404q-84 -4 -173 -15q-58 -7 -114 -7 q-31 0 -61 2l-20 -20l16 -242q2 -10 18 -13t20 -3q20 0 35 2t37 8q50 -1 99 -1q99 0 195 5q144 8 292 8h33t41 -1t35 -1h15l20 -18v-60q6 -72 6 -138q0 -40 -2 -77q-6 -99 -34 -181q-6 2 -24 3t-38 3t-38 3t-24 1h-64h-108h-108h-64q-16 0 -76 3t-131 7t-132 7t-77 3h-126 q-6 0 -34 2t-59 4t-59 3t-34 1h-48q-2 0 -6 4l-4 4q-12 96 -14 189t-6 189q0 14 -3 66t-7 112t-7 112t-3 66v532q0 6 -1 20t-3 30t-3 30t-1 20q-6 18 -5 43z" />
<glyph unicode="f" horiz-adv-x="1484" d="M120 586q0 172 9 344l18 344t16 344q4 109 4 219q0 62 -1 125l10 8q2 0 20 1t28 1h57t59 -10q18 -2 61 -5t92 -6t92 -6t61 -3h20t42 -1t48 -1h38q112 0 222 7t220 7h29t45 -1t46 -1h30q10 -16 10 -40v-42v-48q-2 -24 -5 -63t-6 -76t-6 -64l-3 -27l-20 -18q-153 3 -264 3 q-55 0 -100 -1q-134 -2 -208 -5t-102 -5t-46 -2h-38q-4 -4 -18 -10t-14 -10v-260l22 -10q96 26 180 28t184 2h84l18 -20q0 -2 1 -25t1 -35v-25t-1 -31t-1 -29v-15q0 -6 -1 -24t-3 -38t-3 -39t-1 -27q-4 -22 -8 -43t-32 -25q-14 -2 -45 -6t-47 -4q-18 0 -61 -2t-92 -4t-92 -3 t-61 -1q-4 0 -17 -5t-13 -7v-50q-1 -24 -1 -48q0 -48 5 -96q4 -32 4 -64q0 -40 -6 -80q-2 -40 -4 -95t-4 -114l-4 -118t-3 -105t-3 -75t-2 -31l-10 -20h-414l-6 10v73q0 109 -4 216q-6 143 -6 287z" />
<glyph unicode="g" horiz-adv-x="1638" d="M124 834v128q2 52 14 99t26 95q0 2 4 19t6 21l24 88t32 84q4 6 15 26t23 43t23 43t15 26q4 4 16 21t16 21q6 8 26 30t43 48t43 49t30 33q120 128 262 181t308 53h76t80 -6t78 -19t68 -39l12 -12q4 -4 6 -8q0 -4 -2 -19t-6 -25q-4 -16 -15 -51t-24 -71t-25 -64t-20 -28 q-42 0 -84 7t-82 7q-64 0 -129 -7t-126 -25t-116 -49t-99 -81q-2 -2 -12 -9t-16 -15q-40 -30 -64 -106t-39 -168t-20 -185t-5 -157q16 -126 47 -197t59 -111q64 -88 146 -119q56 -21 136 -21q36 0 76 4h32q2 0 13 2t24 4t24 4t15 2q12 0 36 10t47 25t41 35t18 40q0 16 -1 17 t-2 -2t-2 -4t-1 9t2 38t4 84q0 18 9 33t9 31q0 22 -18 22q-14 0 -23 -5t-21 -5h-16q-4 0 -23 2t-40 3t-39 3t-22 2q-6 0 -34 -1t-34 1q-2 0 -9 4t-9 4q-4 2 -18 7t-22 5q0 6 -1 21t-3 33t-3 33t-1 21q0 2 -1 18t-1 24q0 4 1 21t1 21q2 2 10 6t10 4t12 2t22 3t24 3t18 2 q20 2 57 5t74 5t66 4t33 2h63h96h97h64l4 -64l-12 -432q-12 -84 -32 -146t-49 -109t-65 -83t-82 -70q-2 -4 -23 -9t-23 -7q-12 -4 -35 -12t-47 -16l-45 -15l-27 -9q-2 -2 -24 -5t-34 -5q-4 -2 -15 -4t-23 -4t-24 -3t-14 -1q-28 -8 -35 -9t-23 21q-8 0 -23 3t-31 7t-30 7 t-20 3q-2 0 -14 5t-16 7q-48 14 -96 20t-96 22q-38 10 -88 40t-84 56q-76 52 -128 117t-80 157q-20 56 -33 105t-21 95t-12 96t-4 110z" />
<glyph unicode="h" horiz-adv-x="1838" d="M142 -10v166q0 14 4 68t8 116t8 115t4 67t-2 73t-4 125t-3 124t-1 72q0 16 1 63t3 111t5 136t6 136t5 112t2 64v47v104t1 121t1 102l-2 24q84 2 161 11t161 11h108q2 -28 7 -96t11 -146t11 -147t7 -97l4 -176l10 -20q6 0 18 1t25 1t25 -1t16 -1h14t26 -2t25 -3t15 -1h20 h36t37 1t21 1q16 0 39 -2t45 -3t38 -3l16 -2l30 2q6 0 24 -1t38 -1t38 1t24 1q4 0 24 4t24 16l-4 140q0 8 1 43t2 74t2 74t1 43q0 10 -2 45t-3 75t-1 74v44q0 6 2 29t6 31q33 -1 66 -1q73 0 144 6q102 9 210 11q2 -79 2 -158q0 -59 -1 -118t-1 -118q0 -79 2 -158v-50 q2 -12 3 -56t3 -94t3 -93t1 -53l10 -492v-51v-78t-1 -77t-1 -50v-34v-63v-69t-2 -50v-32t-3 -33t-13 -25t-28 -10l-360 -4q-4 0 -27 3t-31 7q-2 0 -6 3t-4 7l-16 784q-2 4 -5 24t-5 26q0 2 -4 5t-6 5h-86q-94 -8 -188 -17t-190 -11h-12q-4 2 -28 11t-28 11h-10q-4 -2 -19 -5 t-19 -5q0 -14 1 -48t2 -71t2 -71t1 -46q0 -32 -4 -110t-8 -167t-7 -167t-5 -110q0 -4 -4 -20t-4 -22q-6 -16 -22 -11t-26 1q-2 0 -14 -9t-14 -11h-86q-4 0 -19 -2t-33 -4t-33 -4t-19 -2h-16h-23q-34 0 -67 4q-44 6 -90 6z" />
<glyph unicode="i" horiz-adv-x="1164" d="M136 1700q0 4 1 24t3 44t4 44t2 26t1 19t1 29t-1 29t-1 19l10 10l292 -10l432 10q8 0 27 -1t42 -3t42 -4t27 -2q18 -12 19 -31t1 -37v-50t-1 -79t-1 -84v-61l-210 -10l-4 -28v-48t1 -72t1 -72v-48q0 -186 -12 -370t-12 -372q0 -64 -4 -124q-1 -17 -1 -35q0 -44 7 -89 l12 -10h10q2 2 6 5t4 5q12 6 35 10t49 7t50 5t36 2q14 0 27 -7t13 -25v-252q0 -4 -4 -10t-6 -10q-4 0 -20 -5t-36 -10t-37 -10t-21 -5q-6 0 -23 -2t-37 -3t-39 -3t-29 -2h-30h-53h-54h-31q-2 0 -12 -1t-21 -3l-22 -4t-13 -2q-4 0 -24 1t-24 -1q-4 0 -20 -5t-18 -5 q-4 0 -21 5t-19 5q-4 0 -16 -5t-16 -5h-28q-16 0 -31 5t-31 5h-6q-2 -2 -13 -6t-15 -4q-10 0 -35 2t-35 2q4 18 3 29t-1 17q-2 8 -2 10v270q4 0 19 2t21 0q62 10 96 13t50 7q12 2 10 14t-2 16v28q0 14 -1 55t-1 96t-2 117t-2 117t-1 97t-1 56q-2 150 -3 302t-17 302 q-2 16 -3 31t-17 25q-10 10 -18 10q-4 0 -20 -5t-18 -5h-60h-46t-42 20q-2 4 -4 17t-3 27t-2 26t-1 18z" />
<glyph unicode="j" horiz-adv-x="1258" d="M84 174q0 8 1 20t1 14l66 234h20q28 0 57 -3t59 -7q4 -2 20 -7t20 -5h18q4 0 23 5t23 7q4 0 24 -1t24 1q70 16 124 62t78 118q0 4 3 21t7 19l28 70q0 26 7 50t13 52q10 64 19 130t17 132v26v49t1 58t1 54v35v56t-1 72t-1 62v30q0 6 -2 34t-4 60t-4 60t-2 36t-3 34t-5 55 t-5 56t-3 39v82h346q4 0 19 -5t19 -15q2 -2 5 -16t5 -24t5 -29t3 -23q2 -28 7 -82t10 -110t9 -100t4 -52v-382q0 -24 -2 -81t-3 -120t-3 -118t-2 -75q-4 -50 -11 -107t-17 -105q-2 -10 -7 -29t-9 -39t-8 -35t-6 -17q0 -2 -8 -21t-18 -45t-22 -52t-18 -42q-14 -30 -29 -50 t-39 -50q-14 -22 -41 -37l-45 -25q-44 -28 -80 -47t-82 -33q-4 0 -16 -4t-14 -6q-6 -4 -21 -8t-19 -4q-12 0 -38 -2t-54 -4t-54 -3t-34 -1q-72 0 -143 14t-135 56q-4 4 -15 17t-15 15q-2 2 -13 5t-13 5q-20 10 -21 35t-1 41z" />
<glyph unicode="k" horiz-adv-x="1890" d="M116 -4l64 1020v10q0 16 3 76t6 129t6 129t3 76q0 28 1 100t1 153t-1 152t-1 99l10 38q32 -10 73 -13t69 -7q16 0 57 -1t88 -3t88 -3t57 -1l10 -10q2 -2 5 -20t6 -42t6 -49t3 -41v-110q0 -24 1 -82t2 -124t3 -124t2 -82q12 -16 29 -18t33 -2q12 2 23 12t20 21t18 21 t19 16q2 4 9 13t15 19t15 18t9 12l10 10t18 19t18 19l10 10t7 12t11 20t11 19t7 11t11 10t18 19t18 20l11 11q0 2 4 11t6 9q6 8 29 45t50 79t51 80t30 48q4 4 8 16l2 2v2q4 8 14 26t12 24q12 16 24 34q8 10 14 24h22q112 0 221 -5t219 -5v-8l-13 -24t-31 -56t-37 -66 t-31 -56q-2 -4 -11 -17t-18 -28t-18 -28t-11 -17q0 -2 -6 -13t-14 -25t-15 -29t-11 -23q-2 -2 -5 -10t-5 -10q-78 -120 -147 -244t-127 -258q-8 -16 -18 -30t-10 -36v-8q0 -4 2 -6q2 -4 12 -16t14 -16q8 -16 29 -47t45 -64t46 -64t30 -47q6 -6 22 -30t34 -52t36 -55t26 -41 q2 -2 9 -13t15 -23l16 -24t10 -14q4 -6 15 -22t24 -35t24 -37t17 -24q0 -2 4 -10t9 -16t9 -15t6 -9q2 -4 9 -14t16 -22l18 -24t13 -18q10 -20 23 -36t26 -34t25 -38t20 -48l-264 -20q-24 7 -49 7q-16 0 -33 -3q-21 -4 -42.5 -4t-43.5 4q0 2 -11 1t-13 -1l-90 -20q-2 6 -9 19 t-16 28t-18 27t-11 16q-66 102 -125 199t-117 190t-120 183t-134 178q-12 12 -19 21t-13 15t-12 10t-18 8q-14 4 -15 -7t-5 -31q-2 -8 -2 -25t-2 -23v-52q0 -8 -3 -33t-7 -54t-7 -54t-3 -33v-17t-1 -28t-2 -29t-1 -16q-8 -128 -18 -252l-20 -248q-2 -4 -9 -8t-9 -6 q-10 -2 -32 -6t-26 -4h-338z" />
<glyph unicode="l" horiz-adv-x="1362" d="M142 263v55q0 224 6 447t6 447q0 136 -5 270t-5 268v64q0 6 1 24t2 38t3 38t4 24q40 20 89 20h91q64 0 125 -7t127 -7v-63t-1 -96t-1 -111t-1 -111t-2 -95t-1 -62q0 -12 -3 -59t-6 -101t-7 -101t-4 -59v-57t-1 -107t-1 -120v-92v-63t1 -83t1 -76v-42l10 -68l19 -1t45 -2 t54 -1h46h60t81 1t74 2t39 1q4 0 24 1t43 3t43 4t26 2h126q10 -4 10 -8v-10q0 -82 -8 -168t-8 -170q0 -12 -33 -19t-76 -10t-86 -4t-61 -1h-34q-148 6 -250 9t-169 5t-103 2t-54 -1t-23 -2t-7 -3q-8 0 -26 2t-38 3t-38 3t-24 2q-12 2 -38 6t-30 6q-10 0 -10 8v56t-1 85 t-1 84z" />
<glyph unicode="m" horiz-adv-x="1836" d="M136 1922v18q0 30 30 35t52 3h14q4 -4 20 -9t20 -5l136 -8q8 0 28 -2t41 -5t40 -6t27 -5q44 -6 75 -38t52 -75t36 -88t31 -79l50 -100q2 -2 8 -12t12 -22t12 -22t8 -12q4 -10 14 -34t21 -51t20 -52t13 -33q4 0 8 -1t6 -1q16 0 26 10t19 24t18 29t21 21l18 32q2 4 5 13 t5 13t10 13t17 20t17 19l12 12q-4 12 6 27t24 29t28 29t20 27q2 4 10 24t10 24q14 34 28 59t36 53q4 2 12 8t10 10q0 4 -1 15t1 13q26 82 124 88q40 2 75 7t70 9t70 5h14q29 0 61 -3q2 2 4 2q4 0 6 2l8 4h10q2 -6 4 -24t4 -39t3 -39t1 -26q0 -2 2 -41t4 -91t4 -107t4 -91v-4 q2 -114 2 -226q0 -168 -4 -334q-6 -276 -10 -558q0 -98 -2 -195t-22 -193q-19 4 -37 4q-21 0 -41 -5q-38 -9 -78 -9h-34h-64h-71h-53l-60 4q0 4 -4 11t-4 11q-16 68 -21 166t-5 201t1 200v61q0 58 -1 104q0 10 -1 39t-4 69t-5 85t-5 85t-5 70t-2 40v20q0 4 -2 11t-4 13 q-2 8 -4 14l-10 2q-22 -88 -67 -161t-85 -151l-23 -46t-35 -72t-34 -72t-22 -46l-10 -10l-10 10l-18 27t-31 45t-31 44t-18 26q-58 82 -108 171t-88 185h-14q-20 2 -23 -12t-3 -28q1 -27 1 -60v-34v-34q0 -33 1 -60q2 -14 4 -43t4 -60t3 -57t1 -34v-30t1 -69t1 -91t1 -96 t1 -84v-56v-278h-30h-46h-47h-31l-106 6q-28 2 -71 2t-75 14q-12 2 -13 8t-1 9t-2 2t-12 -9v22q10 188 12 375q1 94 1 188t-1 189l-4 120t-4 122l6 6v10h-6q-4 64 -5 127t-3 127v112q0 8 1 38t2 64t3 64t2 36q0 4 -1 25t1 25q0 2 5 10t5 10t-4 9t-6 9q0 12 -2 39t-4 58 t-4 59t-2 38z" />
<glyph unicode="n" horiz-adv-x="1746" d="M122 1072l14 808q0 18 7 35t29 21h98q12 0 42 -2t63 -3t62 -3t41 -2q26 -6 48 -32t41 -59t35 -67t28 -58q0 -2 6 -13t12 -23l12 -24t8 -14q4 -8 16 -33t14 -33l368 -638q2 -14 4 -20t5 -10t8 -10t13 -18q6 -12 22 -41t33 -61t33 -61t22 -41l10 8v94v150q1 60 1 120 t-1 120q-2 120 -2 240q0 12 -1 61t-1 106t1 107t1 62q0 10 -1 37t-2 58t-1 58v37q102 0 199 -8q65 -5 132 -5q33 0 67 1q10 -2 10 -9v-11q3 -82 3 -164v-42q-1 -104 -11 -206q0 -22 2 -78t3 -118t3 -118t2 -78q2 -40 4 -104t4 -127t4 -111t2 -54q0 -12 4 -63t7 -110t7 -110 t4 -63v-18q0 -4 -3 -29t-5 -29v-8q0 -6 -3 -28t-5 -47t-4 -48t-2 -29v-18q0 -6 -1 -16t-2 -21t-3 -19l-2 -8q-6 -10 -8 -10q-28 -12 -57 -12q-6 0 -12 1q-21 2 -44 2q-15 0 -31 -1q-72 -4 -144 -17t-142 -13q-52 0 -77 28t-51 68l-30 54t-46 83t-55 97t-55 97t-46 83l-30 54 q-60 106 -113 208t-91 216h-4q-12 0 -18 -13t-6 -21v-4q2 -2 5 -9t5 -11v-29q0 -107 13 -210q15 -117 21 -239l14 -432q-4 0 -20 -4t-20 -4q-4 -2 -15 -2h-13q-10 0 -30 -2t-41 -4t-39 -3t-24 -1t-25 2t-42 3t-42 3t-25 2q-20 2 -37.5 2t-32.5 -2q-6 -1 -12 -1q-25 0 -54 13 q-6 0 -6 8q0 6 -1 19t-2 27t-2 26t-1 16v90q-8 -4 -9 43q0 24 -0.5 54t0.5 67q1 74 4 163t5 169q1 53 1 98v42q-1 60 -5 76q-2 14 -4 41l-4 54t-4 49t-2 26z" />
<glyph unicode="o" d="M114 954v30t1 35t1 31v16q0 6 2 23t5 36t7 36t6 23q26 106 60 211t84 199t120 176t168 142q2 0 10 4t10 4q66 24 131 43t137 19q74 0 137 -31t127 -59q2 -2 13 -7t23 -10t22 -10t14 -5q24 -12 53 -31t57 -42t54 -46t46 -41q6 -6 19 -18t26 -25l23 -23l12 -12q4 -4 15 -24 t15 -24q34 -62 57 -145t36 -170t17 -168q2 -40 2 -74t-2 -61q0 -54 -9 -97t-19 -91q-2 -8 -8 -33t-13 -53l-13 -52t-8 -30q-28 -118 -93 -212t-147 -178q-10 -12 -30 -32t-41 -40t-38 -37t-21 -19q-74 -66 -165 -84t-187 -18q-58 0 -108 15t-102 35q-8 4 -24 10l-32 12 t-29 11t-17 7q-10 4 -26 12l-32 16t-28 15t-14 9q-6 4 -21 18t-33 31t-34 34t-24 25q-2 2 -9 13t-17 26t-19 29t-15 22q-22 38 -35 78t-25 80q-10 42 -25 73t-25 77q-16 78 -19 162t-3 164zM486 892q0 -50 3 -114t15 -129t34 -123t60 -98l22 -22l33 -33t33 -32t22 -21 q30 -22 69 -27t75 -5q32 0 54 1t54 11q8 4 28 17t43 27t43 26t26 18q6 4 26 23t24 29q2 4 5 15t5 13q46 106 84 211t38 223q0 54 -8 106t-22 108q-14 52 -28 99t-34 90t-48 82t-70 75q-22 18 -35 23t-37 17q-4 8 -26 19t-50 18t-55 9t-41 -6q-2 -2 -14 -5t-14 -5 q-40 -16 -79 -37t-63 -61q-4 -6 -13 -22t-20 -35l-22 -38t-15 -27q-2 -2 -6 -9t-4 -9q-4 -8 -12 -29t-17 -45t-18 -46t-13 -30q-24 -58 -28 -124t-4 -128z" />
<glyph unicode="p" horiz-adv-x="1716" d="M119 451v68q0 135 3 271q0 102 8 203l16 202t14 201q3 50 3 100t-3 100q-2 18 -4 62t-5 93t-5 94t-2 63v10q-14 28 22 42t94 20t124 10t112 14q98 0 198 -1t198 -10t194 -29t186 -60q6 -4 24 -15t24 -15q8 -6 30 -22t45 -35t43 -36t28 -23q82 -70 114 -144t32 -180 q0 -156 -75 -274t-187 -216q-4 -2 -15 -8t-24 -12t-24 -11t-15 -7q-4 -4 -14 -7t-14 -5l-68 -20q-51 -19 -114 -19h-6q-66 1 -122 1q-36 -8 -84 -8t-112 -2q-12 -6 -33 -8t-40 -2t-34 -2t-17 -8v-102l-10 -226q0 -12 -2 -56t-4 -95t-4 -95t-2 -56v-18v-30v-31v-19 q-2 -22 -19 -34t-39 -19t-46 -9t-40 -4q-4 0 -21 -2t-37 -3t-37 -3t-21 -2q-44 -4 -80 -12t-82 -8h-34l-8 10q0 18 2 36q0 16 1 32t-1 32q-10 170 -11 339zM642 1244q-2 -16 4 -31t17 -26t26 -15t31 4h31h55h56h32q34 0 78 5t88 17t83 33t61 51t26 62t4 66v38t-10 38 q-10 20 -28 40t-41 38t-49 31t-48 17q-2 0 -13 2t-24 3t-25 3t-14 2q-76 12 -151 20t-151 18h-4h-4q-2 0 -2 2q-2 0 -2 -1t-2 -1h-4q-4 -2 -7 -8t-3 -10q3 -69 3 -135q0 -33 -1 -65q-2 -96 -12 -198z" />
<glyph unicode="q" horiz-adv-x="1892" d="M120 734v262q6 12 3 33t-3 31q0 90 26 188t69 194t97 184t112 156q2 2 7 9t12 16t13 16t8 9t7 8t12 13l13 13t8 6q0 4 4 12t8 10q6 4 14 8q6 4 13 7t11 5q98 44 193 67t205 23q98 0 188 -34t170 -86q12 -8 32 -21t39 -26t33 -23t16 -12q4 -4 21 -20t38 -37l42 -42l33 -33 q0 -2 6 -9t13 -15t13 -16t8 -10q2 0 5 -4t5 -4q36 -54 57 -111t34 -115t22 -118t19 -122q8 -56 22 -110t16 -112v-16t1 -34t1 -40v-32v-31t-1 -38t-1 -34v-17q0 -4 -3 -22t-7 -28q-18 -88 -48 -174t-82 -160q-6 -6 -15 -18t-18 -25t-18 -24t-11 -13q-6 -8 -17 -10t-11 -16 v-4l50 -202q14 -20 17 -43t3 -47q0 -4 -1 -12t-1 -10t-7 -10t-11 -10q-22 -12 -54 -24t-66 -23t-67 -20t-55 -13q-2 4 -5 15t-5 15q-2 6 -11 28t-19 48t-20 47t-12 27t-7 18t-12 23t-14 19t-15 8l-38 -2q-27 -14 -61 -14q-11 0 -23 2q-48 6 -90 6q-68 0 -138 4t-136 18 q-4 2 -27 9t-33 11q-74 28 -149 58t-133 82l-124 122l-14 21t-14 19q-4 8 -13 25t-19 37t-18 37t-12 23q-4 20 -20 47t-18 43q-2 4 -5 16t-7 26t-7 25t-3 15q-6 22 -13 39t-7 43zM516 896q0 -156 79 -276t211 -190q2 0 11 -5t19 -10t19 -10t11 -5q26 -10 37 -9t13 -1h110 q24 0 30 12t3 27t-10 30t-9 21q-4 6 -12 26t-18 44t-19 47t-13 35q-2 4 -3 9t-3 9q-2 6 -6 12q2 0 11 4t13 4q0 2 12 11t16 11q10 6 26 15t32 19t28 18t14 10q10 4 37 15t35 15q22 -6 30 -19t12 -27t6 -29t12 -27q4 -4 12 -16t8 -14q2 -4 7 -16t5 -16q0 -2 4 -10l4 -8 q2 -2 4 -2h6q16 0 21 16t21 26q2 8 6 26t8 39t9 40t7 25q0 4 4 16t4 16q2 8 6 31t7 49t6 48t3 32l10 20v12q-2 0 -6 8t-4 10v11v20v20v11q-2 10 -5 37t-5 33q-34 124 -97 208t-165 156q-16 10 -45 21t-45 21q-32 12 -55 20t-57 8q-52 0 -83 -18t-69 -52l-21 -21t-25 -26 t-22 -23l-12 -12q-42 -52 -75 -117t-56 -136t-36 -142t-13 -137z" />
<glyph unicode="r" horiz-adv-x="1692" d="M126 1326v610l28 40l12 2t27 3t31 3t28 2h30h51h52h31q2 0 12 2t22 3t22 3t12 2h118q110 0 217 -4t209 -25t197 -64t181 -123q84 -78 115 -158t31 -194q0 -76 -17 -140t-43 -138q-30 -86 -87 -149t-127 -121q-2 -4 -18 -16t-20 -12q-6 -6 -20 -21t-18 -19q-2 0 -2 -2v-4 q2 -2 2 -4q34 -70 71 -137t75 -133q28 -56 52 -113t54 -111q32 -60 70 -116t66 -116q6 -14 7 -21t1 -19v-10q-6 0 -22 -2t-35 -3t-36 -3t-23 -2h-106q-10 0 -35 2t-52 3t-52 3t-35 2q-22 34 -33 76t-27 78q-24 62 -51 123t-53 121q-2 4 -10 18t-16 30l-15 30l-9 18l-38 88 q-22 40 -29 68t-19 68q-6 10 -10 10h-302q-2 0 -9 -3t-9 -7q-13 -52 -13 -106q0 -21 2 -43q7 -77 7 -153q0 -108 -7 -213q-4 -67 -4 -135q0 -39 1 -78l-30 -10q-4 0 -19 -2t-33 -3t-35 -3t-25 -2q-52 -2 -104 -5t-104 -3h-34l-20 18q0 2 -1 26t-1 36v22t1 29t1 27v16 q0 10 2 47t4 79t3 79t1 47v96q0 2 2 10t3 16t3 15t2 9v10q0 14 -10 18q-10 142 -17 288t-13 284v68q0 6 -1 20t-3 29t-3 29t-1 20zM502 1616q0 -6 2 -28t4 -49t3 -50t1 -29q2 -24 5 -73t6 -103t6 -104t3 -76l68 -6q6 2 20 6t18 4q72 8 130 10t110 8t103 25t111 65q4 2 23 20 t27 28q28 34 49 74t21 86q0 70 -27 117t-71 80t-100 54t-112 39l-20 5t-25 6t-23 5t-12 2q-23 1 -44 1q-43 0 -83 -5q-59 -8 -123 -14q-4 0 -25 1t-25 -1q-16 -4 -18 -35t-2 -47v-16z" />
<glyph unicode="s" horiz-adv-x="1598" d="M98 478v10v8q0 2 2 4q0 6 15 20t21 18l236 116h8q20 -2 43 -30t47 -65t48 -73t46 -54q70 -56 154 -86t166 -36q33 -2 60 -2q20 0 37 1q39 3 62 18t34 41t15 68q0 2 2 11t4 21t4 21t4 11q0 2 4 9t4 11q-6 44 -15 99t-41 95q-4 4 -19 20t-33 34t-34 35t-24 23q-4 4 -27 19 t-35 25q-2 0 -9 4t-9 4q-18 6 -57 27t-83 43t-83 43t-55 27q-6 2 -22 12t-35 20t-36 20t-25 16q-4 2 -16 15t-14 15q-4 4 -20 12l-20 10q-38 26 -60 51t-39 53t-31 62t-34 76q-4 4 -7 14t-3 14q0 2 -2 26t-2 40q-1 14 -1 27q0 81 22 142q25 71 83 147q50 66 125 108t162 66 t178 30q46 3 89.5 3t85.5 -3q4 0 31 -5t39 -9q2 -2 18 -4t34 -5t33 -6t17 -3q10 -2 15 -17t7 -19q6 -32 8 -56t4 -47t3 -47t1 -54l4 -104q0 -8 -8 -8q-2 0 -21 -1t-42 -1h-43h-26q-58 -2 -121 -8t-115 -27t-85 -63q-29 -37 -30 -100q0 -8 1 -16q2 -40 22 -75t51 -63t68 -50 t71 -36q8 -4 36 -19t59 -31t58 -31t35 -17q10 -4 28 -12t22 -10q2 -2 13 -9t24 -16t24 -17t17 -12q8 -6 27 -20t41 -31t43 -34t33 -25q0 -2 5 -5t5 -5q34 -46 58 -84t40 -76t24 -80t10 -98q2 -29 2 -54.5t-2 -47.5q-4 -44 -20 -96q-10 -26 -14 -41t-22 -33q-2 -4 -9 -15 t-7 -15q-40 -54 -78 -93t-82 -67t-97 -47t-121 -33q-6 -2 -25 -4t-25 -2l-144 10q-120 8 -232 29t-226 71q-8 2 -25 11t-36 19t-35 20t-22 14q-4 2 -16 14t-26 27t-28 29t-22 24q-2 0 -13 19t-19 29q-4 6 -10 21t-8 19q-4 8 -11 26t-14 38t-13 38t-6 24q-2 2 -2 6z" />
<glyph unicode="t" horiz-adv-x="1370" d="M102 1580q10 74 10 148t4 148l2 14q0 8 2 21t6 25q4 14 6 30l20 10h73t112 1t111 2t74 3q12 0 63 4t108 8t107 8t62 4l380 -10q4 0 7 -4t3 -6q12 -42 12 -89q0 -18 -2 -36q-6 -67 -10 -127l-12 -124l-10 -10q-8 -4 -22 -3t-16 1l-270 10q-4 0 -12 -7t-10 -11l-2 -40 q2 -16 2 -55t-1 -91t-3 -111t-3 -114t-3 -101t-4 -72q-4 -122 -4 -249t1 -255v-85q0 -85 -1 -171q-2 -128 -10 -250l-446 -4l-6 48l40 524q0 14 2 62t4 113t4 137t3 137t2 112t1 61q1 22 1 44q0 49 -6 98q-5 42 -5 84q0 28 2 56q0 6 2 25t4 23q0 4 2 12t3 17t-1 15t-12 6 h-46t-77 1t-77 3t-46 2q-4 0 -18 -1t-31 -1h-31h-18t-11 3t-9 7z" />
<glyph unicode="u" horiz-adv-x="1734" d="M120 1473v81v108q2 28 3 64t4 73t6 73t7 66q2 0 -1 18t1 18q4 4 24 1t24 1q2 0 25 3t33 5h20q8 0 39 -1t67 -3t68 -3t40 -1q10 -2 17 -1t11 -11q2 -2 5 -17t5 -19q0 -24 -1 -85t-1 -130t1 -131t1 -86q0 -12 1 -56t3 -96t4 -96t2 -56q4 -90 12 -168t26 -166 q12 -58 26 -104t35 -86t53 -75t80 -71q40 -28 72 -44t78 -16t84 18t76 42q40 26 65 74t38 103t18 110t5 95q0 78 -1 168t-9 166q-4 42 -4 105v109q0 36 -1 62t-3 51t-2 52t2 63v22v39v40v23q0 10 2 36t3 55t3 54t2 35q14 8 25 5t27 -3h26q4 -2 28 -2h30h96q4 0 29 -4t29 -4 q6 0 19 -1t29 -1t30 1t20 1q2 -8 4 -29t5 -43t6 -43t5 -29q0 -14 2 -53t5 -93t6 -113t6 -113t6 -94t3 -52q0 -4 2 -16t3 -26t3 -27t2 -15v-24t1 -46t1 -52v-42v-41t-1 -49t-1 -42v-20q0 -12 -3 -43t-6 -66t-6 -66t-5 -45l-8 -48t-14 -79t-16 -82t-12 -57q-12 -46 -39 -100 t-63 -102t-80 -87t-92 -55q-60 -28 -110 -44t-102 -24t-110 -9t-134 -1h-112q-4 2 -15 5t-15 5q-4 0 -18 3t-30 7t-31 7t-17 3q-102 24 -176 84t-144 136q-6 20 -22 34t-26 32q-22 42 -33 64t-15 52q-4 8 -7 23l-6 30t-5 27t-2 14l-28 474v388q-12 38 -12 79z" />
<glyph unicode="v" horiz-adv-x="1754" d="M116 1922q0 22 19 23t35 1q22 0 42 1t42 1h10q4 2 28 5t30 3q30 8 74 9t76 1q8 0 31 -1t31 -1q42 -50 66 -112t50 -120q4 -8 18 -38t31 -65t31 -64t18 -37q0 -2 4 -14t6 -16q8 -20 28 -72t44 -111t45 -112t29 -73l10 -38q12 -34 21 -68t17 -68q2 0 2 -1t2 -1q10 0 16 12 t8 18q12 32 16 64t14 62q42 130 83 258t81 256q28 90 54 173t72 167q19 -1 37 -1q32 0 61 4q46 7 96 7h40q8 0 26 -2t38 -3t37 -3t23 -2q10 -4 11 -8t1 -12q0 -2 -1 -5t-1 -5q-32 -118 -66 -223t-68 -223q-2 -4 -7 -24l-11 -44t-13 -49t-9 -37q-22 -98 -51 -193t-55 -195 q-28 -112 -59 -222t-57 -224q-16 -58 -29 -117t-29 -115q-2 -6 -12 -35t-22 -65t-25 -71t-19 -53q-8 -22 -30 -30q-52 -10 -120 -15t-120 -5q-24 0 -37 14t-23 36q-16 42 -27 85t-21 86t-21 86t-29 83q-32 84 -62 170t-62 170q-22 56 -48 111t-50 111q-4 10 -11 28t-9 20 l-28 68q-52 120 -95 241t-89 245q-4 8 -17 41t-28 70t-28 70t-15 41q-14 36 -32 74t-18 78z" />
<glyph unicode="w" horiz-adv-x="1876" d="M90 1956v18l9 1q9 1 22 3t27 3t22 1q2 0 13 2t17 2q26 0 50 -8t48 -8q20 0 44 3t50 7t51 7t45 3q2 0 4 -1t6 -1h6q4 -2 11 -14t9 -18q0 -4 4 -18t8 -32t7 -33t3 -17q2 -4 11 -25t11 -25q20 -64 42 -127t36 -129q16 -90 42 -180t46 -178q2 -6 6 -22t7 -34t6 -33t3 -19 t3 -14t6 -22t5 -23t2 -13q2 -2 2 -18t2 -20q2 -10 6 -40t4 -38q4 -10 9 -11t11 -1l8 2q2 6 11 21t19 32t18 32t12 21q16 26 25 54t25 52q0 2 5 9t9 15t9 15t5 9q16 30 22 61t20 61h10l98 -200l30 -42q20 -16 28 -31t13 -26t10 -17t21 -6q12 -2 14 1t6 17q2 10 -1 25t-3 25 q10 94 25 192t33 194q0 2 3 12t6 21t7 21t4 12t1 18t2 39t2 45t3 36q6 100 34 194t44 192q8 2 35 5t37 3q8 0 49 -2t90 -4t90 -4t49 -4q8 0 28 -1t26 -1q0 -66 -11 -134t-25 -137t-30 -136t-24 -131q-64 -386 -108 -770q-2 -20 -8 -62t-13 -86t-13 -80t-6 -46 q-2 -12 -11 -58t-19 -100t-19 -101t-9 -59q0 -10 -4 -36t-4 -34q-36 -17 -90 -17h-6q-58 1 -100 3l-90 2q-28 0 -50 10t-32 42q-4 16 -14 58t-22 89t-22 89t-14 58q-2 8 -9 34t-11 36t-10 29l-12 38t-11 34t-5 19q-2 2 -7 10t-9 18t-9 19t-7 13q0 2 -4 5t-4 5l-6 2 q-8 0 -19 -29t-23 -65t-21 -67t-13 -37q-4 -10 -17 -47t-30 -80t-31 -81t-16 -46q-16 -38 -23 -77t-23 -73q-10 -2 -24 -3t-34 -5q-2 0 -2 1t-2 1q-4 0 -29 -4t-29 -6l-166 16l-6 40l-3 14t-6 33t-6 39t-3 32q-2 8 -6 42t-7 72t-6 71t-3 41q-28 218 -61 429t-79 423 q-2 6 -11 37t-19 66t-20 66t-12 39l-40 218q-2 2 -5 14t-5 16q-6 28 -15 71t-16 83t-13 70t-6 34z" />
<glyph unicode="x" horiz-adv-x="1804" d="M122 164l6 138q0 6 8 21t10 19q4 4 20 22t33 39t33 39t20 24q2 2 10 13t10 13q2 4 16 14t16 14q2 2 1 11t-1 11q26 56 68 103t78 99q2 0 5 8t5 10q2 4 11 23t9 23q2 4 11 16t19 25l20 26t14 19t17 23t28 36t29 35t18 22v4q2 24 -19 48t-37 40q-4 2 -16 15t-27 27t-28 26 t-17 16t-17 19t-29 32t-30 33t-18 20q-64 68 -136 129t-130 135q-10 8 -10 13v13v12q2 24 5 63t6 79t6 70t3 36q0 12 2 30t5 36l5 30l2 12l10 8l14 2t33 4t39 4t32 4q2 0 13 1t24 2t25 2t18 1h10q4 -4 14 -21t14 -23q18 -22 55 -68t76 -95t72 -91t43 -56q2 -4 13 -14t22 -22 t21 -22l12 -12q2 -4 12 -18t20 -29t20 -29t12 -18q6 -4 24 -25t24 -27q14 -12 21 -17t19 -5l10 -2q74 56 127 131t109 145q4 6 19 24t33 39t33 39t19 22q44 52 96 97t122 57q16 2 39 3t46 1h43h28q10 0 34 -5t32 -7q-1 -26 -1 -52t1 -51q2 -51 2 -102t-4 -102t-16 -101 q0 -4 -3 -10l-5 -10q-4 -4 -14 -15t-22 -23l-23 -23l-13 -13q-8 -10 -34 -47t-58 -82t-63 -89t-49 -66q-4 -4 -12 -17t-12 -13q-12 -14 -27 -32t-30 -39t-27 -43t-16 -42v-10q4 -4 9 -12t7 -8q2 -4 14 -22t24 -39t23 -39t13 -22q10 -14 35 -52t54 -80t55 -81t36 -53 q18 -16 35 -45t29 -45q2 -4 10 -13t8 -13q8 -10 22 -37t32 -59t36 -63t34 -49v-4q0 -6 -2 -26t-5 -43t-5 -43t-2 -26q-2 -8 -5 -25t-8 -35t-11 -32t-12 -14q0 -2 -8 -1t-10 1h-26t-44 -1t-44 -1h-24l-26 2q-32 2 -61 5t-63 11q-26 4 -36 28t-22 42l-23 46t-38 73t-40 75 t-27 52q-4 4 -11 15t-7 15q-4 2 -20 20t-18 22l-140 186q-2 2 -5 6t-5 4q-4 2 -10 -5t-10 -3q0 -2 -12 -18t-26 -35t-26 -35t-12 -18q-34 -42 -73 -84t-79 -76l-226 -276q-10 -10 -30 -15t-43 -7t-44 -1t-35 1q-30 2 -59 8t-59 8q-10 2 -15 -3t-15 -5q-20 0 -33 20t-20 46 t-9 53t-2 43z" />
<glyph unicode="y" horiz-adv-x="1632" d="M108 1944l2 4q0 2 5 5t7 3q10 2 43 3t43 1q4 0 17 -1t27 -2t27 -2t17 -1h118q18 2 32 6q12 4 23 5t13 1q14 0 28 -2t24 -12q20 -16 37 -40t31 -51t26 -54t26 -49q22 -34 38 -70t31 -72t31 -72t40 -68q20 -24 31 -38t18 -22t11 -11t8 -3h6q0 2 4 5t4 5q10 -4 6 8 q8 14 17 35t17 43t15 41t11 25q8 12 17 37t19 53t21 54t21 40l20 46q20 40 37 70t43 62l6 6q2 2 4 2q4 0 18 1t18 -3q34 14 84 20t104 6t106 -3t90 -5q-2 -16 -4 -22t-12 -20q-74 -108 -152 -235t-144 -239q-22 -34 -32 -69t-19 -70t-19 -70t-28 -71q-20 -20 -16 -46t0 -40 q0 -4 -2 -17t-3 -28t-2 -28t-1 -17q0 -8 -1 -23t-3 -30t-3 -26t-1 -13q-2 -22 -4 -69t-5 -98t-5 -95t-2 -58v-16t1 -27t1 -28v-17q0 -12 -1 -61t-2 -105t-2 -105t-1 -61q0 -2 1 -12t2 -21t2 -21t1 -12t-1 -17t-3 -23q0 -4 -1 -19t-1 -19h-90h-106h-105t-89 4q-6 0 -19 1 t-29 2t-29 3t-19 2l12 66v24t1 34t1 34v26v8q0 4 1 6t1 4q0 22 2 69t3 107t4 125t4 125t3 107t2 69q-4 6 -5 25t-3 25q0 2 1 10t1 10q0 4 -3 28t-3 28l6 70q-10 24 -5 36t3 40q0 2 -4 6l-6 6q-44 38 -80 89t-66 107t-58 113t-56 109q-30 62 -69 118t-67 116q-2 4 -8 25 t-8 25q-6 12 -22 32t-33 40t-30 39t-13 29z" />
<glyph unicode="z" horiz-adv-x="1698" d="M113 1669q1 21 1 25v76t2 90q0 52 2 106l48 6l466 -22h47h79h79h47q6 0 30 -2t53 -3t53 -2t30 -1q108 0 216 3q36 1 72 1q73 0 148 -4q-2 -10 -5 -15t-7 -13q-46 -84 -86 -169t-80 -173q-44 -94 -90 -184t-88 -186q-10 -22 -28 -70t-41 -109t-48 -127t-47 -127t-40 -108 t-26 -69q-14 -56 -46 -108t-62 -98l2 -26q4 0 10 -3t10 -1q2 0 12 3t21 5t20 5t13 3q12 0 40 2t59 4t58 4t37 4q8 0 44 1t76 1h75h45q58 2 117 9q38 4 75 4q22 0 44 -1q4 0 14 -2t12 -2l10 -10l1 -11t2 -26l2 -30t1 -23q0 -12 1 -34t2 -45t1 -41v-22v-37t-1 -45t-2 -38 l-1 -16l-8 -10q-16 -2 -30 -2q-12 0 -26 -1t-22 1q-6 0 -36 1t-64 2t-64 2t-38 1q-12 0 -57 -3t-98 -6t-98 -5t-57 -2q-28 0 -99 4t-152 10t-153 13t-100 11q-66 -4 -129 -17q-48 -10 -99 -10q-16 0 -32 1v22q0 2 4 24t11 51t14 59t11 48l42 142q2 6 10 27t18 47t19 48 t13 28q0 2 3 11l6 18t5 17t4 10q52 150 107 294t113 294q26 64 48 129t44 129q10 34 21 73t33 67l20 22q2 2 2 4q-2 28 -29 32t-47 6q-4 2 -17 1t-15 -1q-4 0 -14 -1t-22 -2t-22 -3t-12 -2q-10 0 -42 -2t-70 -4t-71 -3t-41 -1q-40 -2 -82 -8q-25 -4 -51 -4q-17 0 -35 2 l-72 2l-20 22q-2 4 -2 12v20q-2 10 -1 31z" />
<glyph unicode="{" horiz-adv-x="752" d="M137 1585q5 41 9 81q10 96 42 183t87 150t135 96t188 23q0 -4 4 -18t4 -18v-19v-33v-34v-20t2 -26t4 -28l-2 -10l-162 -74q-30 -14 -48 -44t-27 -68t-14 -79t-7 -75q-8 -70 -2 -137t24 -139q10 -46 21 -80t7 -80l-6 -34q-10 -6 -23 -17t-15 -27v-6q0 -2 6 -9t13 -15 t12 -15l5 -7q40 -66 47 -139t4 -148t-7 -151t14 -146q16 -64 41 -122t69 -110q6 -4 17 -8t21 -9t17 -11t7 -16l-2 -8q-2 -6 -6 -21t-10 -33t-10 -33t-6 -21q-6 -22 -19 -53t-23 -47q-8 -14 -37 -13t-45 5q-42 6 -81 33t-71 57q-24 20 -53 53t-45 59q0 2 -1 20t-5 22 q2 4 -2 7t-4 5q-16 42 -11 86t7 84q2 22 7 78t10 119t9 120t6 79q-4 40 -7 79t-11 77t-23 72t-45 64v4q4 32 28 58t28 62l2 14q0 8 -2 24t-4 34t-4 32t-2 18q-2 8 -9 40t-16 69t-16 70t-9 41q-10 42 -5 83z" />
<glyph unicode="|" horiz-adv-x="604" d="M178 -22v1948l10 164q0 4 4 11t4 9h6h4q22 -4 37 -5t26 -1h23t28 -2q2 0 14 1t25 3t24 3t15 1h16h12q4 0 7 -8t3 -12v-1850q0 -6 2 -24t3 -38t3 -38t2 -26q0 -4 1 -26t1 -32q0 -8 -1 -30t-1 -28q-4 -6 -13 -13t-15 -7h-240z" />
<glyph unicode="}" horiz-adv-x="776" d="M114 -42q0 6 1 24t2 37t2 36t1 23q0 4 1 9t1 7q50 -8 91 6t71 43t49 70t25 87l2 4q-2 18 -5 56t-7 86t-8 101t-7 101t-6 86t-3 56q-4 30 -6 61t2 59q8 62 35 100t81 72q0 -2 1 -1t1 3t2 4q0 4 -7 11t-16 15t-19 16t-14 18q-16 34 -19 76t-2 85t6 85t9 76q8 84 -18 173 t-88 153q-20 16 -35 23t-37 11q-18 4 -31 -1t-27 -3q-16 2 -21 17t-3 34t6 37t4 28q0 26 -6 52t-2 54q2 6 3 16t15 8q8 -2 37 -6t37 -6q34 -4 73 -12t69 -30q58 -46 105 -97t79 -119q14 -28 17 -70l5 -70q6 -64 -2 -154t-5 -180t30 -169t103 -121v-2l2 -4l-2 -4 q-10 -12 -31 -30t-42 -38t-38 -41t-19 -39q-10 -74 -8 -142t8 -135t8 -135t-8 -142q-10 -64 -21 -119t-32 -103t-56 -89t-89 -77q-32 -22 -66 -36t-74 -12q-4 0 -14 2t-22 5t-22 5t-12 2q-6 6 -9 10t-7 8l2 4q-4 4 -10 16t-10 16z" />
<glyph unicode="~" horiz-adv-x="1196" d="M210 1102v4q2 6 9 29t11 31q10 30 39 46t57 30q24 14 53 18t57 4q34 0 60 -2t62 -10t63 -42t53 -54q28 -22 70 -36t78 -14q50 0 89 26t79 60q4 -10 18 -35t29 -53t27 -53t12 -37q0 -22 -21 -42t-49 -37t-59 -30t-49 -21q-22 -8 -44 -9t-44 -1q-36 0 -56 10t-50 10l-26 13 t-32 15q0 2 -4 6t-6 4q-4 2 -15 5t-15 5q-2 2 -12 10t-21 19t-21 20t-12 11q-10 6 -33 16t-27 12q-2 2 -21 2h-29q-46 0 -91 -19t-71 -59q-8 12 -18 31t-19 39t-15 40t-6 38z" />
<glyph unicode="&#xa1;" horiz-adv-x="954" d="M64 0v54q0 116 21 224t37 226q2 18 7 57t11 91t12 110t12 112t10 98l6 66q2 10 5 53t6 92t6 92t3 53q0 6 1 18t3 26t4 27t2 17h38h11t19 1t18 2t10 1q8 0 31 1t29 5l10 -35t8 -33l78 -486q20 -64 29 -130t19 -130q12 -68 31 -135t36 -134t29 -135t12 -138q0 -34 -3 -41 t-37 -9q-28 -2 -101 -6t-155 -9t-156 -9t-102 -6v10zM84 1776q0 34 12 72t34 70t53 52t69 20q90 0 146 -48t56 -138q0 -66 -36 -114t-100 -70h-30q-4 -2 -19 -3t-34 1t-39 7t-34 15q-36 28 -57 59t-21 77z" />
<glyph unicode="&#xa3;" horiz-adv-x="1574" d="M128 -4q-4 84 28 163t79 155t95 149t76 149q4 8 10 22l12 28t11 24t5 12l2 42v26q0 10 -2 25l-4 30t-4 27l-2 12l-10 4q-8 0 -27 -1t-40 -1t-39 -1t-26 -1q-4 0 -17 2t-19 4l-16 4q-16 4 -16 10l-12 210q0 10 29 20t64 20t64 22t29 28q0 2 -1 6t-1 6q-2 2 -10 15t-10 15 q-24 52 -43 110t-23 116q-6 110 37 213t122 184t189 131t238 56q32 2 72 -3t81 -15t80 -26t67 -36q26 -18 46 -46t40 -50q22 -24 40 -39t34 -43q0 -2 8 -15t10 -17v-4v-2q2 -24 -19 -40t-35 -32q-4 -2 -17 -20t-17 -22q-6 -8 -17 -20t-23 -24t-21 -20l-9 -8l-6 -2 q-2 6 -4 23t-6 23q0 12 -8 36t-10 28q-2 2 -10 9t-19 16l-22 18t-17 13q-36 28 -87 42t-97 10q-22 0 -43 -9t-37 -19q-58 -38 -95 -73t-58 -74t-32 -85t-17 -104q0 -2 -4 -23t-2 -27v-8v-6q10 -46 15 -89t17 -87q0 -8 8 -9t12 -1q14 0 28 6t30 6h16h25t35 -1t32 -2t18 -1 q36 -2 48 -25t16 -51v-4q0 -6 -1 -22t-2 -34t-2 -34t-1 -22q-10 -20 -40 -24t-52 -6q-4 2 -19 2h-19q-2 2 -5 3t-5 3h-4q-16 0 -43 -8t-27 -26v-10q2 0 12 -7t10 -9q2 -6 10 -25t10 -23t2 -8q0 -10 2 -12q0 -4 -1 -6t-1 -6v-8q-4 -84 -15 -168t-43 -162q0 -4 -5 -14t-10 -23 t-10 -24t-7 -17q-4 -4 -9 -15t-11 -22t-11 -21t-5 -12q-2 -2 -9 -12t-9 -14v-4v-6q8 2 29 2t43 -1t43 -1h29q34 -4 70 -15t64 -21q76 -22 151 -37t155 -11q8 0 24 2t18 2q6 0 20 3t30 6t32 7t22 6q10 2 24 10t29 15t28 14t19 7v-8q0 -4 -1 -20t-2 -34t-1 -34v-20t1 -21 t1 -21q-8 -32 -33 -56t-60 -41t-73 -26t-70 -13q-156 -6 -303 13t-301 37q-64 8 -126 17t-130 5q-38 -2 -60 -3t-52 -11q-4 0 -17 -6t-28 -12t-29 -12t-18 -6t-12 -2t-10 -2z" />
<glyph unicode="&#xa8;" horiz-adv-x="1106" d="M168 2224v20q0 8 2 14q0 4 9 22t13 28q16 26 42 56t62 30q30 0 62 -13t59 -34t45 -48t18 -57q0 -4 -1 -9t-1 -7q-6 -40 -14 -71t-24 -54t-43 -35t-71 -12q-72 0 -115 50t-43 120zM676 2222v20q0 8 2 16q0 4 9 21t13 27q16 26 42 57t62 31q30 0 62 -13t59 -34t45 -49 t18 -58q0 -4 -1 -9t-1 -7q-6 -40 -14 -71t-24 -54t-43 -35t-71 -12q-72 0 -115 50t-43 120z" />
<glyph unicode="&#xab;" horiz-adv-x="2598" d="M216 484q30 28 62 47t65 35t66 31t67 37q196 122 380 244t370 262q6 -2 6 -45t-4 -98t-9 -109t-9 -78q-6 -30 -28 -52t-51 -40t-61 -32t-56 -28q-4 -2 -23 -13t-40 -23t-40 -23t-23 -13q-4 -4 -20 -11t-34 -14t-34 -13t-20 -8q-14 -10 -14 -22v-6v-4q22 -24 64 -33 t72 -19q64 -18 125 -42t125 -40q4 -2 28 -7t28 -5q2 0 12 -3t22 -7t23 -7t17 -3q4 -2 19 -7t17 -15q-2 -2 -1 -25t1 -35l-2 -8q-4 -10 -12 -50t-18 -86t-18 -85t-10 -49l-4 -24q-26 0 -41 8t-43 18q-60 20 -121 33t-117 41q-8 4 -36 20t-61 36t-62 36t-37 20q-2 2 -14 6 t-26 10t-27 10t-15 6q-6 4 -30 15t-34 15q-12 6 -38 21t-54 31t-52 30t-32 18q-50 32 -107 67t-91 85zM1292 546q30 28 62 47t65 35t66 31t67 37q196 122 380 244t370 262q6 -2 6 -45t-4 -98t-9 -109t-9 -78q-6 -30 -28 -52t-51 -40t-61 -32t-56 -28q-4 -2 -23 -13t-40 -23 t-40 -23t-23 -13q-4 -4 -20 -11t-34 -14t-34 -13t-20 -8q-14 -10 -14 -22v-6v-4q22 -24 64 -33t72 -19q64 -18 125 -42t125 -40q4 -2 28 -7t28 -5q2 0 12 -3t22 -7t23 -7t17 -3q4 -2 19 -7t17 -15q-2 -2 -1 -25t1 -35l-2 -8q-4 -10 -12 -50t-18 -86t-18 -85t-10 -49l-4 -24 q-26 0 -41 8t-43 18q-60 20 -121 33t-117 41q-8 4 -36 20t-61 36t-62 36t-37 20q-2 2 -14 6t-26 10t-27 10t-15 6q-6 4 -30 15t-34 15q-12 6 -38 21t-54 31t-52 30t-32 18q-50 32 -107 67t-91 85z" />
<glyph unicode="&#xad;" horiz-adv-x="1226" d="M187 764q1 26 1 36q212 12 416 5t416 -17v-8q0 -4 1 -28t-1 -28q0 -6 -1 -24t-2 -40t-3 -40t-2 -24q-2 -16 -7 -31t-21 -23h-28t-41 -1t-40 -1h-27q-136 -6 -270 -7t-272 5q-6 0 -18 1t-26 2t-26 2t-18 1q-6 4 -11 14l-7 14q-10 46 -11 81t-1 79q-2 6 -1 32z" />
<glyph unicode="&#xaf;" horiz-adv-x="978" d="M161 2249q1 21 1 29q170 10 332 5t332 -15v-6q0 -4 1 -23t-1 -23q0 -4 -1 -19t-2 -32t-2 -32t-1 -19q-2 -12 -5 -24t-17 -18h-22t-34 -1t-33 -1h-21q-108 -4 -215 -5t-217 3q-10 2 -36 4t-34 2q-4 4 -9 11t-5 11q-8 38 -9 65t-1 63q-2 4 -1 25z" />
<glyph unicode="&#xb4;" horiz-adv-x="812" d="M188 2130l4 8l44 36q18 16 36 31l30 25q50 36 85 64t66 55t65 57t82 68l6 -4q30 -28 61 -39t33 -33q0 -12 -27 -43t-66 -69t-83 -78t-76 -70q-10 -12 -25 -27t-30 -29t-26 -22l-11 -8z" />
<glyph unicode="&#xb8;" horiz-adv-x="972" d="M372 70l2 12l232 -2q-10 -72 -1 -104t17 -38q28 -26 42 -37t22 -19t15 -20t21 -38q16 -34 25 -62t9 -62q0 -60 -28 -110q-6 -14 -24 -31t-41 -32t-45 -25t-38 -12q-4 -2 -15 -4t-23 -4t-23 -4t-13 -2l-68 4q-16 4 -21 25t-7 48t-4 51t-12 34q22 8 45 9t42 4t31 11t12 32 q0 10 -6 29t-8 21q-2 4 -12 27t-16 33q-2 2 -13 12t-24 21t-24 21t-13 12q-2 4 -5 15t-5 15q0 2 -4 6t-6 4q-4 10 -3 30t-1 24q2 30 -7 50t-5 56z" />
<glyph unicode="&#xbb;" horiz-adv-x="2652" d="M228 116v24q2 10 11 42t19 68t17 69t5 43v8q2 12 11 32t7 22q4 10 20 16t20 8q6 0 17 5t23 9t21 8t13 4l178 74q14 6 34 12t39 13t36 16t29 23q2 2 2 4v6q0 8 -1 12t-11 10q-4 2 -19 7l-33 11l-33 11t-19 9q-4 2 -22 12t-38 20l-38 19l-22 11q-24 12 -54 24t-58 29 t-49 38t-23 51q-2 24 -3 77t0 109t4 99t9 45q174 -128 348 -238t358 -218q32 -20 67 -37t68 -35t64 -39t53 -49q-50 -50 -116 -86t-124 -66q-10 -4 -38 -18t-60 -31t-62 -31t-42 -20q-12 -4 -39 -15t-35 -15q-4 -2 -18 -7t-29 -10t-28 -9t-15 -6q-10 -4 -44 -20t-72 -35 t-71 -36t-41 -19q-32 -16 -43 -20t-19 -4t-20 -1t-44 -11q-28 -8 -46 -17t-44 -7zM1416 86v24q2 10 11 42t19 68t17 69t5 43v8q2 12 11 32t7 22q4 10 20 16t20 8q6 0 17 5t23 9t21 8t13 4l178 74q14 6 34 12t39 13t36 16t29 23q2 2 2 4v6q0 8 -1 12t-11 10q-4 2 -19 7 l-33 11l-33 11t-19 9q-4 2 -22 12t-38 20l-38 19l-22 11q-24 12 -54 24t-58 29t-49 38t-23 51q-2 24 -3 77t0 109t4 99t9 45q174 -128 348 -238t358 -218q32 -20 67 -37t68 -35t64 -39t53 -49q-50 -50 -116 -86t-124 -66q-10 -4 -38 -18t-60 -31t-62 -31t-42 -20 q-12 -4 -39 -15t-35 -15q-4 -2 -18 -7t-29 -10t-28 -9t-15 -6q-10 -4 -44 -20t-72 -35t-71 -36t-41 -19q-32 -16 -43 -20t-19 -4t-20 -1t-44 -11q-28 -8 -46 -17t-44 -7z" />
<glyph unicode="&#xbf;" horiz-adv-x="1228" d="M-12 376v14v39v57v56v34q4 58 23 116t54 109t82 88t103 49q4 2 15 3t24 1t25 1t14 1q52 22 66 23t18 1l5 5t3 5q0 10 -1 36t-1 54t-1 53t-1 33v38t4 43t15 38t31 21q34 10 65 15t65 7q30 4 58 -1t58 -3q0 -6 1 -24t1 -24v-56v-65v-55v-26l2 -40q2 -10 4 -35t4 -53t4 -53 t4 -35l8 -48q-4 -6 -19 -11t-21 -1q-14 0 -51 -2t-79 -5t-79 -7t-51 -6q-40 -4 -78 -27t-65 -58t-41 -77t-8 -84q20 -150 111 -231t245 -71q52 4 98 24t76 60q2 4 8 14t12 22t12 22t6 12q2 2 6 18q2 8 6 14l10 -18l36 -66q4 -8 17 -27t27 -40t26 -40t18 -27q14 -22 20 -37 t8 -37q4 -16 -13 -36t-40 -39t-47 -33t-38 -20q-68 -22 -135 -39t-151 -17q-120 -4 -226 40t-192 124q-60 58 -104 130t-56 154zM414 1768q0 4 1 11t1 9q8 48 17 86t28 66t52 43t87 15q44 0 80 -17t61 -45t39 -66t14 -80v-24q0 -8 -2 -18q0 -4 -11 -27t-17 -33 q-20 -32 -51 -69t-75 -37q-36 0 -75 15t-72 41t-55 60t-22 70z" />
<glyph unicode="&#xc0;" horiz-adv-x="1710" d="M108 22q2 2 2 4v6q40 170 86 340t88 340q0 2 1 5t1 5q2 12 9 45t15 71t15 71t11 47q4 28 13 44t5 44l186 834q12 50 47 61t75 13q46 4 90 -2t90 -10q12 0 43 1t67 1h68h44l10 -10q18 -60 39 -120t42 -124t43 -138t44 -160q2 -10 11 -42t21 -75t25 -91t25 -91t21 -74 t13 -41q16 -52 28 -95t23 -86t25 -91t32 -110q0 -4 8 -32t18 -64t19 -68t11 -42q20 -92 32 -170t34 -144q-34 -6 -54 -10t-24 -4q-10 0 -48 -1t-72 -3q-12 0 -39 -5t-56 -11t-52 -11t-25 -5l-20 8q-6 42 -19 82t-19 82q-16 82 -34 168t-56 162q4 6 3 25t-3 25q-6 4 -10 8 t-7 6t-3 4q-6 8 -10 25t-8 35t-11 30t-19 12q-2 0 -12 -1t-22 -3t-22 -5t-12 -3q-48 -6 -97 -12t-97 -8q-14 -10 -22 -26t-18 -32q-4 -12 -12 -30t-16 -35t-13 -30t-5 -15q-10 -24 -28 -86t-38 -131t-38 -131t-26 -86l-12 -20q-68 -2 -150 -12t-152 -14h-72q-4 0 -15 2 t-15 4zM670 2378l10 4q6 2 19 9t27 16t26 18t16 15h4q10 2 20 3t6 5q4 0 8 -2l8 -4l6 -6q2 -2 29 -22t68 -49t91 -64t96 -67t85 -59t57 -39q-26 -28 -50 -52t-28 -34q-38 10 -71 29t-63 37q-4 2 -18 10t-29 17t-29 18t-20 13q-4 4 -18 13t-16 11q-2 0 -8 5t-12 11t-12 10 t-6 2q-4 4 -21 15t-35 22t-34 20t-20 13q-16 10 -21 14t-7 7t-6 8t-18 17q-10 10 -19 15t-15 21zM730 990q0 -4 1 -14t11 -10l252 12q2 -2 9 -5t11 -3q10 0 10 13v15q0 4 -1 11t-1 9q-8 22 -28 75t-41 113t-40 112t-25 74q-4 12 -6 26t-5 25t-10 18t-21 5q-2 0 -7 -1t-7 -1 q-16 -110 -37 -221t-55 -219q0 -2 -5 -9t-5 -11v-14z" />
<glyph unicode="&#xc1;" horiz-adv-x="1694" d="M108 22q2 2 2 4v6q40 170 86 340t88 340q0 2 1 5t1 5q2 12 9 45t15 71t15 71t11 47q4 28 13 44t5 44l186 834q12 50 47 61t75 13q46 4 90 -2t90 -10q12 0 43 1t67 1h68h44l10 -10q18 -60 39 -120t42 -124t43 -138t44 -160q2 -10 11 -42t21 -75t25 -91t25 -91t21 -74 t13 -41q16 -52 28 -95t23 -86t25 -91t32 -110q0 -4 8 -32t18 -64t19 -68t11 -42q20 -92 32 -170t34 -144q-34 -6 -54 -10t-24 -4q-10 0 -48 -1t-72 -3q-12 0 -39 -5t-56 -11t-52 -11t-25 -5l-20 8q-6 42 -19 82t-19 82q-16 82 -34 168t-56 162q4 6 3 25t-3 25q-6 4 -10 8 t-7 6t-3 4q-6 8 -10 25t-8 35t-11 30t-19 12q-2 0 -12 -1t-22 -3t-22 -5t-12 -3q-48 -6 -97 -12t-97 -8q-14 -10 -22 -26t-18 -32q-4 -12 -12 -30t-16 -35t-13 -30t-5 -15q-10 -24 -28 -86t-38 -131t-38 -131t-26 -86l-12 -20q-68 -2 -150 -12t-152 -14h-72q-4 0 -15 2 t-15 4zM674 2138l4 8l44 36q18 16 36 31l30 25q50 36 85 64t66 55t65 57t82 68l6 -4q30 -28 61 -39t33 -33q0 -12 -27 -43t-66 -69t-83 -78t-76 -70q-10 -12 -25 -27t-30 -29t-26 -22l-11 -8zM730 990q0 -4 1 -14t11 -10l252 12q2 -2 9 -5t11 -3q10 0 10 13v15q0 4 -1 11 t-1 9q-8 22 -28 75t-41 113t-40 112t-25 74q-4 12 -6 26t-5 25t-10 18t-21 5q-2 0 -7 -1t-7 -1q-16 -110 -37 -221t-55 -219q0 -2 -5 -9t-5 -11v-14z" />
<glyph unicode="&#xc2;" horiz-adv-x="1694" d="M108 22q2 2 2 4v6q40 170 86 340t88 340q0 2 1 5t1 5q2 12 9 45t15 71t15 71t11 47q4 28 13 44t5 44l186 834q12 50 47 61t75 13q46 4 90 -2t90 -10q12 0 43 1t67 1h68h44l10 -10q18 -60 39 -120t42 -124t43 -138t44 -160q2 -10 11 -42t21 -75t25 -91t25 -91t21 -74 t13 -41q16 -52 28 -95t23 -86t25 -91t32 -110q0 -4 8 -32t18 -64t19 -68t11 -42q20 -92 32 -170t34 -144q-34 -6 -54 -10t-24 -4q-10 0 -48 -1t-72 -3q-12 0 -39 -5t-56 -11t-52 -11t-25 -5l-20 8q-6 42 -19 82t-19 82q-16 82 -34 168t-56 162q4 6 3 25t-3 25q-6 4 -10 8 t-7 6t-3 4q-6 8 -10 25t-8 35t-11 30t-19 12q-2 0 -12 -1t-22 -3t-22 -5t-12 -3q-48 -6 -97 -12t-97 -8q-14 -10 -22 -26t-18 -32q-4 -12 -12 -30t-16 -35t-13 -30t-5 -15q-10 -24 -28 -86t-38 -131t-38 -131t-26 -86l-12 -20q-68 -2 -150 -12t-152 -14h-72q-4 0 -15 2 t-15 4zM510 2052v8l7 16t16 38t19 44t16 34q58 108 109 211t103 211h8q24 -34 74 -96t106 -135t109 -152t85 -147q-24 -4 -37 -6t-24 -2t-25 1t-40 1h-52l-16 8q-2 6 -11 19t-18 28t-18 28t-11 19q-4 8 -19 33t-32 51t-33 47t-24 21q-12 0 -17 -10t-5 -22q-2 -6 -8 -22 t-13 -34t-14 -34t-9 -20q-4 -16 -10 -39t-13 -45t-13 -37l-6 -15zM730 990q0 -4 1 -14t11 -10l252 12q2 -2 9 -5t11 -3q10 0 10 13v15q0 4 -1 11t-1 9q-8 22 -28 75t-41 113t-40 112t-25 74q-4 12 -6 26t-5 25t-10 18t-21 5q-2 0 -7 -1t-7 -1q-16 -110 -37 -221t-55 -219 q0 -2 -5 -9t-5 -11v-14z" />
<glyph unicode="&#xc3;" horiz-adv-x="1694" d="M108 22q2 2 2 4v6q40 170 86 340t88 340q0 2 1 5t1 5q2 12 9 45t15 71t15 71t11 47q4 28 13 44t5 44l186 834q12 50 47 61t75 13q46 4 90 -2t90 -10q12 0 43 1t67 1h68h44l10 -10q18 -60 39 -120t42 -124t43 -138t44 -160q2 -10 11 -42t21 -75t25 -91t25 -91t21 -74 t13 -41q16 -52 28 -95t23 -86t25 -91t32 -110q0 -4 8 -32t18 -64t19 -68t11 -42q20 -92 32 -170t34 -144q-34 -6 -54 -10t-24 -4q-10 0 -48 -1t-72 -3q-12 0 -39 -5t-56 -11t-52 -11t-25 -5l-20 8q-6 42 -19 82t-19 82q-16 82 -34 168t-56 162q4 6 3 25t-3 25q-6 4 -10 8 t-7 6t-3 4q-6 8 -10 25t-8 35t-11 30t-19 12q-2 0 -12 -1t-22 -3t-22 -5t-12 -3q-48 -6 -97 -12t-97 -8q-14 -10 -22 -26t-18 -32q-4 -12 -12 -30t-16 -35t-13 -30t-5 -15q-10 -24 -28 -86t-38 -131t-38 -131t-26 -86l-12 -20q-68 -2 -150 -12t-152 -14h-72q-4 0 -15 2 t-15 4zM520 2280q-2 2 5 8t15 14t16 14t10 10q10 26 40 35t52 21q22 10 45 14t47 4q30 0 51 -2t51 -8q32 -6 54 -35t44 -45q24 -20 59 -31t65 -11q42 0 68 31t60 59q4 -8 17 -18t28 -23t29 -27t20 -32q6 -16 -12 -44t-45 -55t-56 -49t-45 -28q-18 -6 -36 -7t-38 -1 q-30 0 -47 8t-41 8q-4 2 -23 11t-27 13q0 8 -8 8q-4 2 -13 4t-11 4t-11 9t-18 16t-17 16t-10 9q-8 6 -27 14t-23 10q-2 2 -17 2h-25q-40 0 -77 -16t-59 -50q-12 22 -28 47t-32 49zM730 990q0 -4 1 -14t11 -10l252 12q2 -2 9 -5t11 -3q10 0 10 13v15q0 4 -1 11t-1 9 q-8 22 -28 75t-41 113t-40 112t-25 74q-4 12 -6 26t-5 25t-10 18t-21 5q-2 0 -7 -1t-7 -1q-16 -110 -37 -221t-55 -219q0 -2 -5 -9t-5 -11v-14z" />
<glyph unicode="&#xc4;" horiz-adv-x="1700" d="M108 22q2 2 2 4v6q40 170 86 340t88 340q0 2 1 5t1 5q2 12 9 45t15 71t15 71t11 47q4 28 13 44t5 44l186 834q12 50 47 61t75 13q46 4 90 -2t90 -10q12 0 43 1t67 1h68h44l10 -10q18 -60 39 -120t42 -124t43 -138t44 -160q2 -10 11 -42t21 -75t25 -91t25 -91t21 -74 t13 -41q16 -52 28 -95t23 -86t25 -91t32 -110q0 -4 8 -32t18 -64t19 -68t11 -42q20 -92 32 -170t34 -144q-34 -6 -54 -10t-24 -4q-10 0 -48 -1t-72 -3q-12 0 -39 -5t-56 -11t-52 -11t-25 -5l-20 8q-6 42 -19 82t-19 82q-16 82 -34 168t-56 162q4 6 3 25t-3 25q-6 4 -10 8 t-7 6t-3 4q-6 8 -10 25t-8 35t-11 30t-19 12q-2 0 -12 -1t-22 -3t-22 -5t-12 -3q-48 -6 -97 -12t-97 -8q-14 -10 -22 -26t-18 -32q-4 -12 -12 -30t-16 -35t-13 -30t-5 -15q-10 -24 -28 -86t-38 -131t-38 -131t-26 -86l-12 -20q-68 -2 -150 -12t-152 -14h-72q-4 0 -15 2 t-15 4zM458 2224v20q0 8 2 14q0 4 9 22t13 28q16 26 42 56t62 30q30 0 62 -13t59 -34t45 -48t18 -57q0 -4 -1 -9t-1 -7q-6 -40 -14 -71t-24 -54t-43 -35t-71 -12q-72 0 -115 50t-43 120zM730 990q0 -4 1 -14t11 -10l252 12q2 -2 9 -5t11 -3q10 0 10 13v15q0 4 -1 11t-1 9 q-8 22 -28 75t-41 113t-40 112t-25 74q-4 12 -6 26t-5 25t-10 18t-21 5q-2 0 -7 -1t-7 -1q-16 -110 -37 -221t-55 -219q0 -2 -5 -9t-5 -11v-14zM966 2222v20q0 8 2 16q0 4 9 21t13 27q16 26 42 57t62 31q30 0 62 -13t59 -34t45 -49t18 -58q0 -4 -1 -9t-1 -7q-6 -40 -14 -71 t-24 -54t-43 -35t-71 -12q-72 0 -115 50t-43 120z" />
<glyph unicode="&#xc5;" horiz-adv-x="1680" d="M108 22q2 2 2 4v6q40 170 86 340t88 340q0 2 1 5t1 5q2 12 9 45t15 71t15 71t11 47q4 28 13 44t5 44l186 834q12 50 47 61t75 13q46 4 90 -2t90 -10q12 0 43 1t67 1h68h44l10 -10q18 -60 39 -120t42 -124t43 -138t44 -160q2 -10 11 -42t21 -75t25 -91t25 -91t21 -74 t13 -41q16 -52 28 -95t23 -86t25 -91t32 -110q0 -4 8 -32t18 -64t19 -68t11 -42q20 -92 32 -170t34 -144q-34 -6 -54 -10t-24 -4q-10 0 -48 -1t-72 -3q-12 0 -39 -5t-56 -11t-52 -11t-25 -5l-20 8q-6 42 -19 82t-19 82q-16 82 -34 168t-56 162q4 6 3 25t-3 25q-6 4 -10 8 t-7 6t-3 4q-6 8 -10 25t-8 35t-11 30t-19 12q-2 0 -12 -1t-22 -3t-22 -5t-12 -3q-48 -6 -97 -12t-97 -8q-14 -10 -22 -26t-18 -32q-4 -12 -12 -30t-16 -35t-13 -30t-5 -15q-10 -24 -28 -86t-38 -131t-38 -131t-26 -86l-12 -20q-68 -2 -150 -12t-152 -14h-72q-4 0 -15 2 t-15 4zM626 2292v24q0 8 2 18q0 4 11 27t17 33q20 32 51 69t75 37q36 0 75 -15t72 -41t55 -60t22 -70q0 -4 -1 -11t-1 -9q-8 -48 -17 -86t-28 -66t-52 -43t-87 -15q-44 0 -80 17t-61 45t-39 66t-14 80zM730 990q0 -4 1 -14t11 -10l252 12q2 -2 9 -5t11 -3q10 0 10 13v15 q0 4 -1 11t-1 9q-8 22 -28 75t-41 113t-40 112t-25 74q-4 12 -6 26t-5 25t-10 18t-21 5q-2 0 -7 -1t-7 -1q-16 -110 -37 -221t-55 -219q0 -2 -5 -9t-5 -11v-14zM758 2284q0 -28 18 -49t48 -21q36 0 46 19t16 51v6q0 26 -26 45t-50 19q-14 0 -24 -13t-18 -23q-2 -4 -6 -11 t-4 -9v-14z" />
<glyph unicode="&#xc6;" horiz-adv-x="2582" d="M94 36q2 2 2 4l2 6q70 170 148 337t152 337q0 2 2 5t2 5q4 12 17 45t28 70t29 70t20 47q10 28 21 44t13 44l342 828q22 50 59 60t77 10q60 4 98 6t61 4t34 2h15h18t24 -1t21 -1h11t12 -2t22 -3t22 -3t14 -2h116q14 0 64 -1t107 -3t107 -3t62 -1q24 0 83 -1t126 -1t126 1 t83 1q16 -4 24 -17t11 -30t4 -34t1 -29q0 -4 1 -19t3 -31t3 -30t1 -18v-16t1 -32t1 -37v-29v-23t-1 -35t-1 -34v-22q0 -2 -8 -6t-10 -6q-6 0 -19 -2t-27 -4t-26 -3t-14 -1h-468q-8 4 -30 7t-30 3l-10 2q-2 0 -2 -1t-2 -1h-4l-10 -48l-10 -306h14q18 0 30 2t34 8h280v-404 q-84 -4 -173 -15t-175 -5l-20 -20l16 -242q2 -10 18 -13t20 -3q20 0 35 2t37 8q150 -4 294 4t292 8h33t41 -1t35 -1h15l20 -18v-60q10 -116 4 -215t-34 -181q-6 2 -24 3t-38 3t-38 3t-24 1h-64h-108h-108h-64q-16 0 -76 3t-131 7t-132 7t-77 3h-126q-6 0 -34 2t-59 4t-59 3 t-34 1h-48l-24 3t-56 8t-63 11t-45 12l-4 598h-28l-2 -2q-30 -2 -60 -3t-58 -1q-16 -10 -27 -26t-23 -32q-6 -10 -18 -28t-22 -35t-19 -30t-9 -15q-14 -24 -43 -85t-62 -130t-63 -130t-42 -85l-16 -20q-68 2 -153 -5t-155 -11l-70 2q-4 0 -14 3t-14 5zM894 970q0 -10 10 -10 h144l-12 348q-28 -74 -58 -147t-66 -143q0 -2 -6 -9t-8 -11l-2 -14q-2 -4 -2 -14z" />
<glyph unicode="&#xc7;" horiz-adv-x="1608" d="M124 910q0 102 28 197t64 185q34 82 79 150t93 134q2 4 6 11t4 11q26 46 66 82t80 66q158 118 334 168t368 44q16 0 42 -3t30 -3q8 -2 31 -7t23 -21v-10q-2 -18 -6 -64t-8 -98t-8 -98t-6 -64q-36 4 -79 0t-87 -13t-86 -22t-74 -25q-112 -40 -214 -105t-170 -173 q-22 -38 -41 -88t-32 -103t-20 -106t-7 -99q0 -100 33 -181t90 -140t135 -92t166 -37q88 -2 177 18t173 42q26 10 56 22t54 26q22 -34 28 -79t16 -83q2 -10 10 -37t17 -58t17 -58t12 -39v-20q-8 -4 -33 -19t-33 -19q-46 -28 -97 -45t-105 -24t-109 -9t-109 0q-58 2 -117 17 t-115 31q-36 10 -74 18t-72 26q-6 2 -30 17t-54 33l-60 36t-48 28q-40 28 -67 47t-61 49q0 2 -4 5t-4 5q-100 130 -151 267t-51 307zM860 60l2 12l232 -2q-10 -72 -1 -104t17 -38q28 -26 42 -37t22 -19t15 -20t21 -38q16 -34 25 -62t9 -62q0 -60 -28 -110q-6 -14 -24 -31 t-41 -32t-45 -25t-38 -12q-4 -2 -15 -4t-23 -4t-23 -4t-13 -2l-68 4q-16 4 -21 25t-7 48t-4 51t-12 34q22 8 45 9t42 4t31 11t12 32q0 10 -6 29t-8 21q-2 4 -12 27t-16 33q-2 2 -13 12t-24 21t-24 21t-13 12q-2 4 -5 15t-5 15q0 2 -4 6t-6 4q-4 10 -3 30t-1 24q2 30 -7 50 t-5 56z" />
<glyph unicode="&#xc8;" horiz-adv-x="1580" d="M121 1429q1 25 5 54t7 58t1 55v16q-4 -6 -1 19t6 61t6 75t-1 63q0 4 -1 26t-1 32v24q0 8 2 16l20 10q2 0 22 1t30 1h18t24 -1t21 -1h11t12 -2t22 -3t22 -3t14 -2h116q14 0 64 -1t107 -3t107 -3t62 -1q24 0 83 -1t126 -1t126 1t83 1q16 -4 24 -17t11 -30t4 -34t1 -29 q0 -4 1 -19t3 -31t3 -30t1 -18v-16t1 -32t1 -37v-29v-23t-1 -35t-1 -34v-22q0 -2 -8 -6t-10 -6q-6 0 -19 -2t-27 -4t-26 -3t-14 -1h-468q-8 4 -30 7t-30 3l-10 2q-2 0 -2 -1t-2 -1h-4l-10 -48l-10 -306h14q18 0 30 2t34 8h280v-404q-84 -4 -173 -15t-175 -5l-20 -20l16 -242 q2 -10 18 -13t20 -3q20 0 35 2t37 8q150 -4 294 4t292 8h33t41 -1t35 -1h15l20 -18v-60q10 -116 4 -215t-34 -181q-6 2 -24 3t-38 3t-38 3t-24 1h-64h-108h-108h-64q-16 0 -76 3t-131 7t-132 7t-77 3h-126q-6 0 -34 2t-59 4t-59 3t-34 1h-48q-2 0 -6 4l-4 4q-12 96 -14 189 t-6 189q0 14 -3 66t-7 112t-7 112t-3 66v532q0 6 -1 20t-3 30t-3 30t-1 20q-6 18 -5 43zM602 2398l10 4q6 2 19 9t27 16t26 18t16 15h4q10 2 20 3t6 5q4 0 8 -2l8 -4l6 -6q2 -2 29 -22t68 -49t91 -64t96 -67t85 -59t57 -39q-26 -28 -50 -52t-28 -34q-38 10 -71 29t-63 37 q-4 2 -18 10t-29 17t-29 18t-20 13q-4 4 -18 13t-16 11q-2 0 -8 5t-12 11t-12 10t-6 2q-4 4 -21 15t-35 22t-34 20t-20 13q-16 10 -21 14t-7 7t-6 8t-18 17q-10 10 -19 15t-15 21z" />
<glyph unicode="&#xc9;" horiz-adv-x="1558" d="M121 1429q1 25 5 54t7 58t1 55v16q-4 -6 -1 19t6 61t6 75t-1 63q0 4 -1 26t-1 32v24q0 8 2 16l20 10q2 0 22 1t30 1h18t24 -1t21 -1h11t12 -2t22 -3t22 -3t14 -2h116q14 0 64 -1t107 -3t107 -3t62 -1q24 0 83 -1t126 -1t126 1t83 1q16 -4 24 -17t11 -30t4 -34t1 -29 q0 -4 1 -19t3 -31t3 -30t1 -18v-16t1 -32t1 -37v-29v-23t-1 -35t-1 -34v-22q0 -2 -8 -6t-10 -6q-6 0 -19 -2t-27 -4t-26 -3t-14 -1h-468q-8 4 -30 7t-30 3l-10 2q-2 0 -2 -1t-2 -1h-4l-10 -48l-10 -306h14q18 0 30 2t34 8h280v-404q-84 -4 -173 -15t-175 -5l-20 -20l16 -242 q2 -10 18 -13t20 -3q20 0 35 2t37 8q150 -4 294 4t292 8h33t41 -1t35 -1h15l20 -18v-60q10 -116 4 -215t-34 -181q-6 2 -24 3t-38 3t-38 3t-24 1h-64h-108h-108h-64q-16 0 -76 3t-131 7t-132 7t-77 3h-126q-6 0 -34 2t-59 4t-59 3t-34 1h-48q-2 0 -6 4l-4 4q-12 96 -14 189 t-6 189q0 14 -3 66t-7 112t-7 112t-3 66v532q0 6 -1 20t-3 30t-3 30t-1 20q-6 18 -5 43zM436 2130l4 8l44 36q18 16 36 31l30 25q50 36 85 64t66 55t65 57t82 68l6 -4q30 -28 61 -39t33 -33q0 -12 -27 -43t-66 -69t-83 -78t-76 -70q-10 -12 -25 -27t-30 -29t-26 -22l-11 -8z " />
<glyph unicode="&#xca;" horiz-adv-x="1580" d="M121 1429q1 25 5 54t7 58t1 55v16q-4 -6 -1 19t6 61t6 75t-1 63q0 4 -1 26t-1 32v24q0 8 2 16l20 10q2 0 22 1t30 1h18t24 -1t21 -1h11t12 -2t22 -3t22 -3t14 -2h116q14 0 64 -1t107 -3t107 -3t62 -1q24 0 83 -1t126 -1t126 1t83 1q16 -4 24 -17t11 -30t4 -34t1 -29 q0 -4 1 -19t3 -31t3 -30t1 -18v-16t1 -32t1 -37v-29v-23t-1 -35t-1 -34v-22q0 -2 -8 -6t-10 -6q-6 0 -19 -2t-27 -4t-26 -3t-14 -1h-468q-8 4 -30 7t-30 3l-10 2q-2 0 -2 -1t-2 -1h-4l-10 -48l-10 -306h14q18 0 30 2t34 8h280v-404q-84 -4 -173 -15t-175 -5l-20 -20l16 -242 q2 -10 18 -13t20 -3q20 0 35 2t37 8q150 -4 294 4t292 8h33t41 -1t35 -1h15l20 -18v-60q10 -116 4 -215t-34 -181q-6 2 -24 3t-38 3t-38 3t-24 1h-64h-108h-108h-64q-16 0 -76 3t-131 7t-132 7t-77 3h-126q-6 0 -34 2t-59 4t-59 3t-34 1h-48q-2 0 -6 4l-4 4q-12 96 -14 189 t-6 189q0 14 -3 66t-7 112t-7 112t-3 66v532q0 6 -1 20t-3 30t-3 30t-1 20q-6 18 -5 43zM428 2048v8l7 16t16 38t19 44t16 34q58 108 109 211t103 211h8q24 -34 74 -96t106 -135t109 -152t85 -147q-24 -4 -37 -6t-24 -2t-25 1t-40 1h-52l-16 8q-2 6 -11 19t-18 28t-18 28 t-11 19q-4 8 -19 33t-32 51t-33 47t-24 21q-12 0 -17 -10t-5 -22q-2 -6 -8 -22t-13 -34t-14 -34t-9 -20q-4 -16 -10 -39t-13 -45t-13 -37l-6 -15z" />
<glyph unicode="&#xcb;" horiz-adv-x="1568" d="M121 1429q1 25 5 54t7 58t1 55v16q-4 -6 -1 19t6 61t6 75t-1 63q0 4 -1 26t-1 32v24q0 8 2 16l20 10q2 0 22 1t30 1h18t24 -1t21 -1h11t12 -2t22 -3t22 -3t14 -2h116q14 0 64 -1t107 -3t107 -3t62 -1q24 0 83 -1t126 -1t126 1t83 1q16 -4 24 -17t11 -30t4 -34t1 -29 q0 -4 1 -19t3 -31t3 -30t1 -18v-16t1 -32t1 -37v-29v-23t-1 -35t-1 -34v-22q0 -2 -8 -6t-10 -6q-6 0 -19 -2t-27 -4t-26 -3t-14 -1h-468q-8 4 -30 7t-30 3l-10 2q-2 0 -2 -1t-2 -1h-4l-10 -48l-10 -306h14q18 0 30 2t34 8h280v-404q-84 -4 -173 -15t-175 -5l-20 -20l16 -242 q2 -10 18 -13t20 -3q20 0 35 2t37 8q150 -4 294 4t292 8h33t41 -1t35 -1h15l20 -18v-60q10 -116 4 -215t-34 -181q-6 2 -24 3t-38 3t-38 3t-24 1h-64h-108h-108h-64q-16 0 -76 3t-131 7t-132 7t-77 3h-126q-6 0 -34 2t-59 4t-59 3t-34 1h-48q-2 0 -6 4l-4 4q-12 96 -14 189 t-6 189q0 14 -3 66t-7 112t-7 112t-3 66v532q0 6 -1 20t-3 30t-3 30t-1 20q-6 18 -5 43zM378 2218v20q0 8 2 14q0 4 9 22t13 28q16 26 42 56t62 30q30 0 62 -13t59 -34t45 -48t18 -57q0 -4 -1 -9t-1 -7q-6 -40 -14 -71t-24 -54t-43 -35t-71 -12q-72 0 -115 50t-43 120z M886 2216v20q0 8 2 16q0 4 9 21t13 27q16 26 42 57t62 31q30 0 62 -13t59 -34t45 -49t18 -58q0 -4 -1 -9t-1 -7q-6 -40 -14 -71t-24 -54t-43 -35t-71 -12q-72 0 -115 50t-43 120z" />
<glyph unicode="&#xcc;" horiz-adv-x="1190" d="M136 1700q0 4 1 24t3 44t4 44t2 26t1 19t1 29t-1 29t-1 19l10 10l292 -10l432 10q8 0 27 -1t42 -3t42 -4t27 -2q18 -12 19 -31t1 -37v-50t-1 -79t-1 -84v-61l-210 -10l-4 -28v-48t1 -72t1 -72v-48q0 -186 -12 -370t-12 -372q0 -64 -4 -124t6 -124l12 -10h10q2 2 6 5t4 5 q12 6 35 10t49 7t50 5t36 2q14 0 27 -7t13 -25v-252q0 -4 -4 -10t-6 -10q-4 0 -20 -5t-36 -10t-37 -10t-21 -5q-6 0 -23 -2t-37 -3t-39 -3t-29 -2h-30h-53h-54h-31q-2 0 -12 -1t-21 -3l-22 -4t-13 -2q-4 0 -24 1t-24 -1q-4 0 -20 -5t-18 -5q-4 0 -21 5t-19 5q-4 0 -16 -5 t-16 -5h-28q-16 0 -31 5t-31 5h-6q-2 -2 -13 -6t-15 -4q-10 0 -35 2t-35 2q4 18 3 29t-1 17q-2 8 -2 10v270q4 0 19 2t21 0q62 10 96 13t50 7q12 2 10 14t-2 16v28q0 14 -1 55t-1 96t-2 117t-2 117t-1 97t-1 56q-2 150 -3 302t-17 302q-2 16 -3 31t-17 25q-10 10 -18 10 q-4 0 -20 -5t-18 -5h-60h-46t-42 20q-2 4 -4 17t-3 27t-2 26t-1 18zM390 2392l10 4q6 2 19 9t27 16t26 18t16 15h4q10 2 20 3t6 5q4 0 8 -2l8 -4l6 -6q2 -2 29 -22t68 -49t91 -64t96 -67t85 -59t57 -39q-26 -28 -50 -52t-28 -34q-38 10 -71 29t-63 37q-4 2 -18 10t-29 17 t-29 18t-20 13q-4 4 -18 13t-16 11q-2 0 -8 5t-12 11t-12 10t-6 2q-4 4 -21 15t-35 22t-34 20t-20 13q-16 10 -21 14t-7 7t-6 8t-18 17q-10 10 -19 15t-15 21z" />
<glyph unicode="&#xcd;" horiz-adv-x="1190" d="M136 1700q0 4 1 24t3 44t4 44t2 26t1 19t1 29t-1 29t-1 19l10 10l292 -10l432 10q8 0 27 -1t42 -3t42 -4t27 -2q18 -12 19 -31t1 -37v-50t-1 -79t-1 -84v-61l-210 -10l-4 -28v-48t1 -72t1 -72v-48q0 -186 -12 -370t-12 -372q0 -64 -4 -124t6 -124l12 -10h10q2 2 6 5t4 5 q12 6 35 10t49 7t50 5t36 2q14 0 27 -7t13 -25v-252q0 -4 -4 -10t-6 -10q-4 0 -20 -5t-36 -10t-37 -10t-21 -5q-6 0 -23 -2t-37 -3t-39 -3t-29 -2h-30h-53h-54h-31q-2 0 -12 -1t-21 -3l-22 -4t-13 -2q-4 0 -24 1t-24 -1q-4 0 -20 -5t-18 -5q-4 0 -21 5t-19 5q-4 0 -16 -5 t-16 -5h-28q-16 0 -31 5t-31 5h-6q-2 -2 -13 -6t-15 -4q-10 0 -35 2t-35 2q4 18 3 29t-1 17q-2 8 -2 10v270q4 0 19 2t21 0q62 10 96 13t50 7q12 2 10 14t-2 16v28q0 14 -1 55t-1 96t-2 117t-2 117t-1 97t-1 56q-2 150 -3 302t-17 302q-2 16 -3 31t-17 25q-10 10 -18 10 q-4 0 -20 -5t-18 -5h-60h-46t-42 20q-2 4 -4 17t-3 27t-2 26t-1 18zM466 2148l4 8l44 36q18 16 36 31l30 25q50 36 85 64t66 55t65 57t82 68l6 -4q30 -28 61 -39t33 -33q0 -12 -27 -43t-66 -69t-83 -78t-76 -70q-10 -12 -25 -27t-30 -29t-26 -22l-11 -8z" />
<glyph unicode="&#xce;" horiz-adv-x="1176" d="M136 1700q0 4 1 24t3 44t4 44t2 26t1 19t1 29t-1 29t-1 19l10 10l292 -10l432 10q8 0 27 -1t42 -3t42 -4t27 -2q18 -12 19 -31t1 -37v-50t-1 -79t-1 -84v-61l-210 -10l-4 -28v-48t1 -72t1 -72v-48q0 -186 -12 -370t-12 -372q0 -64 -4 -124t6 -124l12 -10h10q2 2 6 5t4 5 q12 6 35 10t49 7t50 5t36 2q14 0 27 -7t13 -25v-252q0 -4 -4 -10t-6 -10q-4 0 -20 -5t-36 -10t-37 -10t-21 -5q-6 0 -23 -2t-37 -3t-39 -3t-29 -2h-30h-53h-54h-31q-2 0 -12 -1t-21 -3l-22 -4t-13 -2q-4 0 -24 1t-24 -1q-4 0 -20 -5t-18 -5q-4 0 -21 5t-19 5q-4 0 -16 -5 t-16 -5h-28q-16 0 -31 5t-31 5h-6q-2 -2 -13 -6t-15 -4q-10 0 -35 2t-35 2q4 18 3 29t-1 17q-2 8 -2 10v270q4 0 19 2t21 0q62 10 96 13t50 7q12 2 10 14t-2 16v28q0 14 -1 55t-1 96t-2 117t-2 117t-1 97t-1 56q-2 150 -3 302t-17 302q-2 16 -3 31t-17 25q-10 10 -18 10 q-4 0 -20 -5t-18 -5h-60h-46t-42 20q-2 4 -4 17t-3 27t-2 26t-1 18zM324 2026v8l7 16t16 38t19 44t16 34q58 108 109 211t103 211h8q24 -34 74 -96t106 -135t109 -152t85 -147q-24 -4 -37 -6t-24 -2t-25 1t-40 1h-52l-16 8q-2 6 -11 19t-18 28t-18 28t-11 19q-4 8 -19 33 t-32 51t-33 47t-24 21q-12 0 -17 -10t-5 -22q-2 -6 -8 -22t-13 -34t-14 -34t-9 -20q-4 -16 -10 -39t-13 -45t-13 -37l-6 -15z" />
<glyph unicode="&#xcf;" horiz-adv-x="1196" d="M136 1700q0 4 1 24t3 44t4 44t2 26t1 19t1 29t-1 29t-1 19l10 10l292 -10l432 10q8 0 27 -1t42 -3t42 -4t27 -2q18 -12 19 -31t1 -37v-50t-1 -79t-1 -84v-61l-210 -10l-4 -28v-48t1 -72t1 -72v-48q0 -186 -12 -370t-12 -372q0 -64 -4 -124t6 -124l12 -10h10q2 2 6 5t4 5 q12 6 35 10t49 7t50 5t36 2q14 0 27 -7t13 -25v-252q0 -4 -4 -10t-6 -10q-4 0 -20 -5t-36 -10t-37 -10t-21 -5q-6 0 -23 -2t-37 -3t-39 -3t-29 -2h-30h-53h-54h-31q-2 0 -12 -1t-21 -3l-22 -4t-13 -2q-4 0 -24 1t-24 -1q-4 0 -20 -5t-18 -5q-4 0 -21 5t-19 5q-4 0 -16 -5 t-16 -5h-28q-16 0 -31 5t-31 5h-6q-2 -2 -13 -6t-15 -4q-10 0 -35 2t-35 2q4 18 3 29t-1 17q-2 8 -2 10v270q4 0 19 2t21 0q62 10 96 13t50 7q12 2 10 14t-2 16v28q0 14 -1 55t-1 96t-2 117t-2 117t-1 97t-1 56q-2 150 -3 302t-17 302q-2 16 -3 31t-17 25q-10 10 -18 10 q-4 0 -20 -5t-18 -5h-60h-46t-42 20q-2 4 -4 17t-3 27t-2 26t-1 18zM200 2230v20q0 8 2 14q0 4 9 22t13 28q16 26 42 56t62 30q30 0 62 -13t59 -34t45 -48t18 -57q0 -4 -1 -9t-1 -7q-6 -40 -14 -71t-24 -54t-43 -35t-71 -12q-72 0 -115 50t-43 120zM708 2228v20q0 8 2 16 q0 4 9 21t13 27q16 26 42 57t62 31q30 0 62 -13t59 -34t45 -49t18 -58q0 -4 -1 -9t-1 -7q-6 -40 -14 -71t-24 -54t-43 -35t-71 -12q-72 0 -115 50t-43 120z" />
<glyph unicode="&#xd0;" horiz-adv-x="1780" d="M97 1008q1 26 1 36q212 12 416 5t416 -17v-8q0 -4 1 -28t-1 -28q0 -6 -1 -24t-2 -40t-3 -40t-2 -24q-2 -16 -7 -31t-21 -23h-28t-41 -1t-40 -1h-27q-136 -6 -270 -7t-272 5q-6 0 -18 1t-26 2t-26 2t-18 1q-6 4 -11 14l-7 14q-10 46 -11 81t-1 79q-2 6 -1 32zM214 820v272 q0 8 1 39t3 66t3 65t1 38q2 20 2 32v23t1 23t7 30v404q0 10 4 44t6 44q12 8 24 13t24 9h192q140 0 278 -9t278 -43q10 -2 26 -7t33 -11t29 -11t14 -5q102 -34 184 -95t144 -142t106 -179t68 -202q26 -114 33 -234t-2 -231t-34 -210t-61 -171q-48 -96 -106 -161t-134 -107 t-172 -62t-216 -22h-50h-85h-84h-49q-12 0 -60 -3t-103 -7t-103 -7t-60 -3q-4 0 -18 -1t-22 -1q-32 0 -50 8t-24 42q-12 194 -20 385t-8 387zM722 1428q0 -4 1 -23t3 -41t4 -41t2 -23q12 -250 11 -500t-1 -500q10 0 18 4q28 10 75 26t77 24q130 40 232 110t160 206q2 6 7 19 t9 28t7 26t3 15q0 2 1 18t1 24q0 72 -7 131t-25 112t-47 103t-73 104q-4 4 -15 16t-15 14t-24 14t-24 16q-52 38 -97 67t-111 51q-4 2 -29 4t-31 6q-2 0 -18 9t-20 11h-64q-10 -4 -10 -8v-12v-10z" />
<glyph unicode="&#xd1;" horiz-adv-x="1778" d="M122 1072l14 808q0 18 7 35t29 21h98q12 0 42 -2t63 -3t62 -3t41 -2q26 -6 48 -32t41 -59t35 -67t28 -58q0 -2 6 -13t12 -23l12 -24t8 -14q4 -8 16 -33t14 -33l368 -638q2 -14 4 -20t5 -10t8 -10t13 -18q6 -12 22 -41t33 -61t33 -61t22 -41l10 8v94v150q2 120 0 240 t-2 240q0 12 -1 61t-1 106t1 107t1 62q0 10 -1 37t-2 58t-1 58v37q102 0 199 -8t199 -4q10 -2 10 -9v-11q4 -102 3 -206t-11 -206q0 -22 2 -78t3 -118t3 -118t2 -78q2 -40 4 -104t4 -127t4 -111t2 -54q0 -12 4 -63t7 -110t7 -110t4 -63v-18q0 -4 -3 -29t-5 -29v-8 q0 -6 -3 -28t-5 -47t-4 -48t-2 -29v-18q0 -6 -1 -16t-2 -21t-3 -19l-2 -8q-6 -10 -8 -10q-34 -14 -69 -11t-75 1q-72 -4 -144 -17t-142 -13q-52 0 -77 28t-51 68l-30 54t-46 83t-55 97t-55 97t-46 83l-30 54q-60 106 -113 208t-91 216h-4q-12 0 -18 -13t-6 -21v-4q2 -2 5 -9 t5 -11q-2 -122 13 -239t21 -239l14 -432q-4 0 -20 -4t-20 -4q-4 -2 -15 -2h-13q-10 0 -30 -2t-41 -4t-39 -3t-24 -1t-25 2t-42 3t-42 3t-25 2q-40 4 -70 0t-66 12q-6 0 -6 8q0 6 -1 19t-2 27t-2 26t-1 16v90q-8 -4 -9 43t0 121t4 163t5 169t1 140t-5 76q-2 14 -4 41l-4 54 t-4 49t-2 26zM356 2252q-2 2 5 8t15 14t16 14t10 10q10 26 40 35t52 21q22 10 45 14t47 4q30 0 51 -2t51 -8q32 -6 54 -35t44 -45q24 -20 59 -31t65 -11q42 0 68 31t60 59q4 -8 17 -18t28 -23t29 -27t20 -32q6 -16 -12 -44t-45 -55t-56 -49t-45 -28q-18 -6 -36 -7t-38 -1 q-30 0 -47 8t-41 8q-4 2 -23 11t-27 13q0 8 -8 8q-4 2 -13 4t-11 4t-11 9t-18 16t-17 16t-10 9q-8 6 -27 14t-23 10q-2 2 -17 2h-25q-40 0 -77 -16t-59 -50q-12 22 -28 47t-32 49z" />
<glyph unicode="&#xd2;" horiz-adv-x="1752" d="M114 954v30t1 35t1 31v16q0 6 2 23t5 36t7 36t6 23q26 106 60 211t84 199t120 176t168 142q2 0 10 4t10 4q66 24 131 43t137 19q74 0 137 -31t127 -59q2 -2 13 -7t23 -10t22 -10t14 -5q24 -12 53 -31t57 -42t54 -46t46 -41q6 -6 19 -18t26 -25l23 -23l12 -12q4 -4 15 -24 t15 -24q34 -62 57 -145t36 -170t17 -168t0 -135q0 -54 -9 -97t-19 -91q-2 -8 -8 -33t-13 -53l-13 -52t-8 -30q-28 -118 -93 -212t-147 -178q-10 -12 -30 -32t-41 -40t-38 -37t-21 -19q-74 -66 -165 -84t-187 -18q-58 0 -108 15t-102 35q-8 4 -24 10l-32 12t-29 11t-17 7 q-10 4 -26 12l-32 16t-28 15t-14 9q-6 4 -21 18t-33 31t-34 34t-24 25q-2 2 -9 13t-17 26t-19 29t-15 22q-22 38 -35 78t-25 80q-10 42 -25 73t-25 77q-16 78 -19 162t-3 164zM486 892q0 -50 3 -114t15 -129t34 -123t60 -98l22 -22l33 -33t33 -32t22 -21q30 -22 69 -27 t75 -5q32 0 54 1t54 11q8 4 28 17t43 27t43 26t26 18q6 4 26 23t24 29q2 4 5 15t5 13q46 106 84 211t38 223q0 54 -8 106t-22 108q-14 52 -28 99t-34 90t-48 82t-70 75q-22 18 -35 23t-37 17q-4 8 -26 19t-50 18t-55 9t-41 -6q-2 -2 -14 -5t-14 -5q-40 -16 -79 -37t-63 -61 q-4 -6 -13 -22t-20 -35l-22 -38t-15 -27q-2 -2 -6 -9t-4 -9q-4 -8 -12 -29t-17 -45t-18 -46t-13 -30q-24 -58 -28 -124t-4 -128zM530 2402l10 4q6 2 19 9t27 16t26 18t16 15h4q10 2 20 3t6 5q4 0 8 -2l8 -4l6 -6q2 -2 29 -22t68 -49t91 -64t96 -67t85 -59t57 -39 q-26 -28 -50 -52t-28 -34q-38 10 -71 29t-63 37q-4 2 -18 10t-29 17t-29 18t-20 13q-4 4 -18 13t-16 11q-2 0 -8 5t-12 11t-12 10t-6 2q-4 4 -21 15t-35 22t-34 20t-20 13q-16 10 -21 14t-7 7t-6 8t-18 17q-10 10 -19 15t-15 21z" />
<glyph unicode="&#xd3;" horiz-adv-x="1736" d="M114 954v30t1 35t1 31v16q0 6 2 23t5 36t7 36t6 23q26 106 60 211t84 199t120 176t168 142q2 0 10 4t10 4q66 24 131 43t137 19q74 0 137 -31t127 -59q2 -2 13 -7t23 -10t22 -10t14 -5q24 -12 53 -31t57 -42t54 -46t46 -41q6 -6 19 -18t26 -25l23 -23l12 -12q4 -4 15 -24 t15 -24q34 -62 57 -145t36 -170t17 -168t0 -135q0 -54 -9 -97t-19 -91q-2 -8 -8 -33t-13 -53l-13 -52t-8 -30q-28 -118 -93 -212t-147 -178q-10 -12 -30 -32t-41 -40t-38 -37t-21 -19q-74 -66 -165 -84t-187 -18q-58 0 -108 15t-102 35q-8 4 -24 10l-32 12t-29 11t-17 7 q-10 4 -26 12l-32 16t-28 15t-14 9q-6 4 -21 18t-33 31t-34 34t-24 25q-2 2 -9 13t-17 26t-19 29t-15 22q-22 38 -35 78t-25 80q-10 42 -25 73t-25 77q-16 78 -19 162t-3 164zM486 892q0 -50 3 -114t15 -129t34 -123t60 -98l22 -22l33 -33t33 -32t22 -21q30 -22 69 -27 t75 -5q32 0 54 1t54 11q8 4 28 17t43 27t43 26t26 18q6 4 26 23t24 29q2 4 5 15t5 13q46 106 84 211t38 223q0 54 -8 106t-22 108q-14 52 -28 99t-34 90t-48 82t-70 75q-22 18 -35 23t-37 17q-4 8 -26 19t-50 18t-55 9t-41 -6q-2 -2 -14 -5t-14 -5q-40 -16 -79 -37t-63 -61 q-4 -6 -13 -22t-20 -35l-22 -38t-15 -27q-2 -2 -6 -9t-4 -9q-4 -8 -12 -29t-17 -45t-18 -46t-13 -30q-24 -58 -28 -124t-4 -128zM612 2140l4 8l44 36q18 16 36 31l30 25q50 36 85 64t66 55t65 57t82 68l6 -4q30 -28 61 -39t33 -33q0 -12 -27 -43t-66 -69t-83 -78t-76 -70 q-10 -12 -25 -27t-30 -29t-26 -22l-11 -8z" />
<glyph unicode="&#xd4;" horiz-adv-x="1700" d="M114 954v30t1 35t1 31v16q0 6 2 23t5 36t7 36t6 23q26 106 60 211t84 199t120 176t168 142q2 0 10 4t10 4q66 24 131 43t137 19q74 0 137 -31t127 -59q2 -2 13 -7t23 -10t22 -10t14 -5q24 -12 53 -31t57 -42t54 -46t46 -41q6 -6 19 -18t26 -25l23 -23l12 -12q4 -4 15 -24 t15 -24q34 -62 57 -145t36 -170t17 -168t0 -135q0 -54 -9 -97t-19 -91q-2 -8 -8 -33t-13 -53l-13 -52t-8 -30q-28 -118 -93 -212t-147 -178q-10 -12 -30 -32t-41 -40t-38 -37t-21 -19q-74 -66 -165 -84t-187 -18q-58 0 -108 15t-102 35q-8 4 -24 10l-32 12t-29 11t-17 7 q-10 4 -26 12l-32 16t-28 15t-14 9q-6 4 -21 18t-33 31t-34 34t-24 25q-2 2 -9 13t-17 26t-19 29t-15 22q-22 38 -35 78t-25 80q-10 42 -25 73t-25 77q-16 78 -19 162t-3 164zM486 892q0 -50 3 -114t15 -129t34 -123t60 -98l22 -22l33 -33t33 -32t22 -21q30 -22 69 -27 t75 -5q32 0 54 1t54 11q8 4 28 17t43 27t43 26t26 18q6 4 26 23t24 29q2 4 5 15t5 13q46 106 84 211t38 223q0 54 -8 106t-22 108q-14 52 -28 99t-34 90t-48 82t-70 75q-22 18 -35 23t-37 17q-4 8 -26 19t-50 18t-55 9t-41 -6q-2 -2 -14 -5t-14 -5q-40 -16 -79 -37t-63 -61 q-4 -6 -13 -22t-20 -35l-22 -38t-15 -27q-2 -2 -6 -9t-4 -9q-4 -8 -12 -29t-17 -45t-18 -46t-13 -30q-24 -58 -28 -124t-4 -128zM564 2064v8l7 16t16 38t19 44t16 34q58 108 109 211t103 211h8q24 -34 74 -96t106 -135t109 -152t85 -147q-24 -4 -37 -6t-24 -2t-25 1t-40 1 h-52l-16 8q-2 6 -11 19t-18 28t-18 28t-11 19q-4 8 -19 33t-32 51t-33 47t-24 21q-12 0 -17 -10t-5 -22q-2 -6 -8 -22t-13 -34t-14 -34t-9 -20q-4 -16 -10 -39t-13 -45t-13 -37l-6 -15z" />
<glyph unicode="&#xd5;" horiz-adv-x="1726" d="M114 954v30t1 35t1 31v16q0 6 2 23t5 36t7 36t6 23q26 106 60 211t84 199t120 176t168 142q2 0 10 4t10 4q66 24 131 43t137 19q74 0 137 -31t127 -59q2 -2 13 -7t23 -10t22 -10t14 -5q24 -12 53 -31t57 -42t54 -46t46 -41q6 -6 19 -18t26 -25l23 -23l12 -12q4 -4 15 -24 t15 -24q34 -62 57 -145t36 -170t17 -168t0 -135q0 -54 -9 -97t-19 -91q-2 -8 -8 -33t-13 -53l-13 -52t-8 -30q-28 -118 -93 -212t-147 -178q-10 -12 -30 -32t-41 -40t-38 -37t-21 -19q-74 -66 -165 -84t-187 -18q-58 0 -108 15t-102 35q-8 4 -24 10l-32 12t-29 11t-17 7 q-10 4 -26 12l-32 16t-28 15t-14 9q-6 4 -21 18t-33 31t-34 34t-24 25q-2 2 -9 13t-17 26t-19 29t-15 22q-22 38 -35 78t-25 80q-10 42 -25 73t-25 77q-16 78 -19 162t-3 164zM470 2276q-2 2 5 8t15 14t16 14t10 10q10 26 40 35t52 21q22 10 45 14t47 4q30 0 51 -2t51 -8 q32 -6 54 -35t44 -45q24 -20 59 -31t65 -11q42 0 68 31t60 59q4 -8 17 -18t28 -23t29 -27t20 -32q6 -16 -12 -44t-45 -55t-56 -49t-45 -28q-18 -6 -36 -7t-38 -1q-30 0 -47 8t-41 8q-4 2 -23 11t-27 13q0 8 -8 8q-4 2 -13 4t-11 4t-11 9t-18 16t-17 16t-10 9q-8 6 -27 14 t-23 10q-2 2 -17 2h-25q-40 0 -77 -16t-59 -50q-12 22 -28 47t-32 49zM486 892q0 -50 3 -114t15 -129t34 -123t60 -98l22 -22l33 -33t33 -32t22 -21q30 -22 69 -27t75 -5q32 0 54 1t54 11q8 4 28 17t43 27t43 26t26 18q6 4 26 23t24 29q2 4 5 15t5 13q46 106 84 211t38 223 q0 54 -8 106t-22 108q-14 52 -28 99t-34 90t-48 82t-70 75q-22 18 -35 23t-37 17q-4 8 -26 19t-50 18t-55 9t-41 -6q-2 -2 -14 -5t-14 -5q-40 -16 -79 -37t-63 -61q-4 -6 -13 -22t-20 -35l-22 -38t-15 -27q-2 -2 -6 -9t-4 -9q-4 -8 -12 -29t-17 -45t-18 -46t-13 -30 q-24 -58 -28 -124t-4 -128z" />
<glyph unicode="&#xd6;" d="M114 954v30t1 35t1 31v16q0 6 2 23t5 36t7 36t6 23q26 106 60 211t84 199t120 176t168 142q2 0 10 4t10 4q66 24 131 43t137 19q74 0 137 -31t127 -59q2 -2 13 -7t23 -10t22 -10t14 -5q24 -12 53 -31t57 -42t54 -46t46 -41q6 -6 19 -18t26 -25l23 -23l12 -12q4 -4 15 -24 t15 -24q34 -62 57 -145t36 -170t17 -168t0 -135q0 -54 -9 -97t-19 -91q-2 -8 -8 -33t-13 -53l-13 -52t-8 -30q-28 -118 -93 -212t-147 -178q-10 -12 -30 -32t-41 -40t-38 -37t-21 -19q-74 -66 -165 -84t-187 -18q-58 0 -108 15t-102 35q-8 4 -24 10l-32 12t-29 11t-17 7 q-10 4 -26 12l-32 16t-28 15t-14 9q-6 4 -21 18t-33 31t-34 34t-24 25q-2 2 -9 13t-17 26t-19 29t-15 22q-22 38 -35 78t-25 80q-10 42 -25 73t-25 77q-16 78 -19 162t-3 164zM424 2230v20q0 8 2 14q0 4 9 22t13 28q16 26 42 56t62 30q30 0 62 -13t59 -34t45 -48t18 -57 q0 -4 -1 -9t-1 -7q-6 -40 -14 -71t-24 -54t-43 -35t-71 -12q-72 0 -115 50t-43 120zM486 892q0 -50 3 -114t15 -129t34 -123t60 -98l22 -22l33 -33t33 -32t22 -21q30 -22 69 -27t75 -5q32 0 54 1t54 11q8 4 28 17t43 27t43 26t26 18q6 4 26 23t24 29q2 4 5 15t5 13 q46 106 84 211t38 223q0 54 -8 106t-22 108q-14 52 -28 99t-34 90t-48 82t-70 75q-22 18 -35 23t-37 17q-4 8 -26 19t-50 18t-55 9t-41 -6q-2 -2 -14 -5t-14 -5q-40 -16 -79 -37t-63 -61q-4 -6 -13 -22t-20 -35l-22 -38t-15 -27q-2 -2 -6 -9t-4 -9q-4 -8 -12 -29t-17 -45 t-18 -46t-13 -30q-24 -58 -28 -124t-4 -128zM932 2228v20q0 8 2 16q0 4 9 21t13 27q16 26 42 57t62 31q30 0 62 -13t59 -34t45 -49t18 -58q0 -4 -1 -9t-1 -7q-6 -40 -14 -71t-24 -54t-43 -35t-71 -12q-72 0 -115 50t-43 120z" />
<glyph unicode="&#xd7;" horiz-adv-x="1164" d="M136 854q22 32 46 55t49 44t52 42t57 45l-172 178l22 24l4 4q56 46 107 80t103 82q16 -18 34 -39t35 -41t30 -34t19 -18l12 -12t18 -16t20 -10t20 6l2 2q6 4 30 25t52 45t52 45t30 27l14 14q4 4 12 9t16 1q22 -24 39 -42t32 -35t31 -35t34 -42l42 -48l-16 -24l-166 -160 q0 -4 -5 -10t-11 -13t-10 -13t-2 -10t14 -10t14 -10q40 -38 84 -96t82 -104q-20 -18 -47 -39t-55 -41t-57 -38t-55 -28q-2 2 -7 2t-5 2q-32 22 -53 50t-47 58l-48 62q2 -2 0 8t-4 12l-4 8q-4 2 -8 1t-6 -1q-6 -6 -22 -19t-34 -28t-34 -28t-24 -17q-6 -4 -18 -13t-26 -18 t-26 -17t-18 -10q-26 -12 -42 -19t-40 21q-2 2 -7 10t-9 17t-8 17t-6 10l-14 16q-16 24 -41 45t-47 47z" />
<glyph unicode="&#xd8;" d="M114 954v30t1 35t1 31v16q0 6 2 23t5 36t7 36t6 23q26 106 60 211t84 199t120 176t168 142q2 0 10 4t10 4q66 24 131 43t137 19q74 0 137 -31t127 -59q2 -2 13 -7t23 -10t22 -10t14 -5q24 -12 53 -31t57 -42t54 -46t46 -41q6 -6 19 -18t26 -25l23 -23l12 -12q4 -4 15 -24 t15 -24q34 -62 57 -145t36 -170t17 -168t0 -135q0 -54 -9 -97t-19 -91q-2 -8 -8 -33t-13 -53l-13 -52t-8 -30q-28 -118 -93 -212t-147 -178q-10 -12 -30 -32t-41 -40t-38 -37t-21 -19q-74 -66 -165 -84t-187 -18q-58 0 -108 15t-102 35q-8 4 -24 10l-32 12t-29 11t-17 7 q-10 4 -26 12l-32 16t-28 15t-14 9q-6 4 -21 18t-33 31t-34 34t-24 25q-2 2 -9 13t-17 26t-19 29t-15 22q-22 38 -35 78t-25 80q-10 42 -25 73t-25 77q-16 78 -19 162t-3 164zM308 28v10q4 14 17 50t27 76t27 76t19 50q68 172 138 341t142 338t144 342t148 353v10q2 6 6 19 t6 17t6 16l9 27t9 28t6 17t8 25t12 45t12 46t8 28q4 10 11 27t9 19h12l70 8q4 0 15 -1t24 -3t24 -3t17 -1q20 -4 50 -9t59 -10t50 -10l21 -5v-28l-292 -694q-16 -58 -37 -103t-43 -103q-2 -8 -14 -42t-25 -73t-26 -73t-15 -42q-16 -38 -29 -65t-31 -65q-8 -18 -23 -54 t-31 -74t-29 -71t-19 -43q-2 -8 -12 -36t-22 -61t-23 -61t-13 -36q-2 -4 -10 -21t-16 -38t-15 -39t-9 -22q-4 -8 -7 -21t-8 -28t-11 -28t-14 -19q-76 4 -148 -3t-144 -7q-14 0 -27 1t-13 23zM486 892q0 -50 3 -114t15 -129t34 -123t60 -98l22 -22l33 -33t33 -32t22 -21 q30 -22 69 -27t75 -5q32 0 54 1t54 11q8 4 28 17t43 27t43 26t26 18q6 4 26 23t24 29q2 4 5 15t5 13q46 106 84 211t38 223q0 54 -8 106t-22 108q-14 52 -28 99t-34 90t-48 82t-70 75q-22 18 -35 23t-37 17q-4 8 -26 19t-50 18t-55 9t-41 -6q-2 -2 -14 -5t-14 -5 q-40 -16 -79 -37t-63 -61q-4 -6 -13 -22t-20 -35l-22 -38t-15 -27q-2 -2 -6 -9t-4 -9q-4 -8 -12 -29t-17 -45t-18 -46t-13 -30q-24 -58 -28 -124t-4 -128z" />
<glyph unicode="&#xd9;" horiz-adv-x="1774" d="M120 1473v81v108q2 28 3 64t4 73t6 73t7 66q2 0 -1 18t1 18q4 4 24 1t24 1q2 0 25 3t33 5h20q8 0 39 -1t67 -3t68 -3t40 -1q10 -2 17 -1t11 -11q2 -2 5 -17t5 -19q0 -24 -1 -85t-1 -130t1 -131t1 -86q0 -12 1 -56t3 -96t4 -96t2 -56q4 -90 12 -168t26 -166 q12 -58 26 -104t35 -86t53 -75t80 -71q40 -28 72 -44t78 -16t84 18t76 42q40 26 65 74t38 103t18 110t5 95q0 78 -1 168t-9 166q-4 42 -4 105v109q0 36 -1 62t-3 51t-2 52t2 63v22v39v40v23q0 10 2 36t3 55t3 54t2 35q14 8 25 5t27 -3h26q4 -2 28 -2h30h96q4 0 29 -4t29 -4 q6 0 19 -1t29 -1t30 1t20 1q2 -8 4 -29t5 -43t6 -43t5 -29q0 -14 2 -53t5 -93t6 -113t6 -113t6 -94t3 -52q0 -4 2 -16t3 -26t3 -27t2 -15v-24t1 -46t1 -52v-42v-41t-1 -49t-1 -42v-20q0 -12 -3 -43t-6 -66t-6 -66t-5 -45l-8 -48t-14 -79t-16 -82t-12 -57q-12 -46 -39 -100 t-63 -102t-80 -87t-92 -55q-60 -28 -110 -44t-102 -24t-110 -9t-134 -1h-112q-4 2 -15 5t-15 5q-4 0 -18 3t-30 7t-31 7t-17 3q-102 24 -176 84t-144 136q-6 20 -22 34t-26 32q-22 42 -33 64t-15 52q-4 8 -7 23l-6 30t-5 27t-2 14l-28 474v388q-12 38 -12 79zM514 2438l10 4 q6 2 19 9t27 16t26 18t16 15h4q10 2 20 3t6 5q4 0 8 -2l8 -4l6 -6q2 -2 29 -22t68 -49t91 -64t96 -67t85 -59t57 -39q-26 -28 -50 -52t-28 -34q-38 10 -71 29t-63 37q-4 2 -18 10t-29 17t-29 18t-20 13q-4 4 -18 13t-16 11q-2 0 -8 5t-12 11t-12 10t-6 2q-4 4 -21 15t-35 22 t-34 20t-20 13q-16 10 -21 14t-7 7t-6 8t-18 17q-10 10 -19 15t-15 21z" />
<glyph unicode="&#xda;" horiz-adv-x="1742" d="M120 1473v81v108q2 28 3 64t4 73t6 73t7 66q2 0 -1 18t1 18q4 4 24 1t24 1q2 0 25 3t33 5h20q8 0 39 -1t67 -3t68 -3t40 -1q10 -2 17 -1t11 -11q2 -2 5 -17t5 -19q0 -24 -1 -85t-1 -130t1 -131t1 -86q0 -12 1 -56t3 -96t4 -96t2 -56q4 -90 12 -168t26 -166 q12 -58 26 -104t35 -86t53 -75t80 -71q40 -28 72 -44t78 -16t84 18t76 42q40 26 65 74t38 103t18 110t5 95q0 78 -1 168t-9 166q-4 42 -4 105v109q0 36 -1 62t-3 51t-2 52t2 63v22v39v40v23q0 10 2 36t3 55t3 54t2 35q14 8 25 5t27 -3h26q4 -2 28 -2h30h96q4 0 29 -4t29 -4 q6 0 19 -1t29 -1t30 1t20 1q2 -8 4 -29t5 -43t6 -43t5 -29q0 -14 2 -53t5 -93t6 -113t6 -113t6 -94t3 -52q0 -4 2 -16t3 -26t3 -27t2 -15v-24t1 -46t1 -52v-42v-41t-1 -49t-1 -42v-20q0 -12 -3 -43t-6 -66t-6 -66t-5 -45l-8 -48t-14 -79t-16 -82t-12 -57q-12 -46 -39 -100 t-63 -102t-80 -87t-92 -55q-60 -28 -110 -44t-102 -24t-110 -9t-134 -1h-112q-4 2 -15 5t-15 5q-4 0 -18 3t-30 7t-31 7t-17 3q-102 24 -176 84t-144 136q-6 20 -22 34t-26 32q-22 42 -33 64t-15 52q-4 8 -7 23l-6 30t-5 27t-2 14l-28 474v388q-12 38 -12 79zM606 2124l4 8 l44 36q18 16 36 31l30 25q50 36 85 64t66 55t65 57t82 68l6 -4q30 -28 61 -39t33 -33q0 -12 -27 -43t-66 -69t-83 -78t-76 -70q-10 -12 -25 -27t-30 -29t-26 -22l-11 -8z" />
<glyph unicode="&#xdb;" horiz-adv-x="1742" d="M120 1473v81v108q2 28 3 64t4 73t6 73t7 66q2 0 -1 18t1 18q4 4 24 1t24 1q2 0 25 3t33 5h20q8 0 39 -1t67 -3t68 -3t40 -1q10 -2 17 -1t11 -11q2 -2 5 -17t5 -19q0 -24 -1 -85t-1 -130t1 -131t1 -86q0 -12 1 -56t3 -96t4 -96t2 -56q4 -90 12 -168t26 -166 q12 -58 26 -104t35 -86t53 -75t80 -71q40 -28 72 -44t78 -16t84 18t76 42q40 26 65 74t38 103t18 110t5 95q0 78 -1 168t-9 166q-4 42 -4 105v109q0 36 -1 62t-3 51t-2 52t2 63v22v39v40v23q0 10 2 36t3 55t3 54t2 35q14 8 25 5t27 -3h26q4 -2 28 -2h30h96q4 0 29 -4t29 -4 q6 0 19 -1t29 -1t30 1t20 1q2 -8 4 -29t5 -43t6 -43t5 -29q0 -14 2 -53t5 -93t6 -113t6 -113t6 -94t3 -52q0 -4 2 -16t3 -26t3 -27t2 -15v-24t1 -46t1 -52v-42v-41t-1 -49t-1 -42v-20q0 -12 -3 -43t-6 -66t-6 -66t-5 -45l-8 -48t-14 -79t-16 -82t-12 -57q-12 -46 -39 -100 t-63 -102t-80 -87t-92 -55q-60 -28 -110 -44t-102 -24t-110 -9t-134 -1h-112q-4 2 -15 5t-15 5q-4 0 -18 3t-30 7t-31 7t-17 3q-102 24 -176 84t-144 136q-6 20 -22 34t-26 32q-22 42 -33 64t-15 52q-4 8 -7 23l-6 30t-5 27t-2 14l-28 474v388q-12 38 -12 79zM490 2078v8 l7 16t16 38t19 44t16 34q58 108 109 211t103 211h8q24 -34 74 -96t106 -135t109 -152t85 -147q-24 -4 -37 -6t-24 -2t-25 1t-40 1h-52l-16 8q-2 6 -11 19t-18 28t-18 28t-11 19q-4 8 -19 33t-32 51t-33 47t-24 21q-12 0 -17 -10t-5 -22q-2 -6 -8 -22t-13 -34t-14 -34t-9 -20 q-4 -16 -10 -39t-13 -45t-13 -37l-6 -15z" />
<glyph unicode="&#xdc;" horiz-adv-x="1758" d="M120 1473v81v108q2 28 3 64t4 73t6 73t7 66q2 0 -1 18t1 18q4 4 24 1t24 1q2 0 25 3t33 5h20q8 0 39 -1t67 -3t68 -3t40 -1q10 -2 17 -1t11 -11q2 -2 5 -17t5 -19q0 -24 -1 -85t-1 -130t1 -131t1 -86q0 -12 1 -56t3 -96t4 -96t2 -56q4 -90 12 -168t26 -166 q12 -58 26 -104t35 -86t53 -75t80 -71q40 -28 72 -44t78 -16t84 18t76 42q40 26 65 74t38 103t18 110t5 95q0 78 -1 168t-9 166q-4 42 -4 105v109q0 36 -1 62t-3 51t-2 52t2 63v22v39v40v23q0 10 2 36t3 55t3 54t2 35q14 8 25 5t27 -3h26q4 -2 28 -2h30h96q4 0 29 -4t29 -4 q6 0 19 -1t29 -1t30 1t20 1q2 -8 4 -29t5 -43t6 -43t5 -29q0 -14 2 -53t5 -93t6 -113t6 -113t6 -94t3 -52q0 -4 2 -16t3 -26t3 -27t2 -15v-24t1 -46t1 -52v-42v-41t-1 -49t-1 -42v-20q0 -12 -3 -43t-6 -66t-6 -66t-5 -45l-8 -48t-14 -79t-16 -82t-12 -57q-12 -46 -39 -100 t-63 -102t-80 -87t-92 -55q-60 -28 -110 -44t-102 -24t-110 -9t-134 -1h-112q-4 2 -15 5t-15 5q-4 0 -18 3t-30 7t-31 7t-17 3q-102 24 -176 84t-144 136q-6 20 -22 34t-26 32q-22 42 -33 64t-15 52q-4 8 -7 23l-6 30t-5 27t-2 14l-28 474v388q-12 38 -12 79zM376 2248v20 q0 8 2 14q0 4 9 22t13 28q16 26 42 56t62 30q30 0 62 -13t59 -34t45 -48t18 -57q0 -4 -1 -9t-1 -7q-6 -40 -14 -71t-24 -54t-43 -35t-71 -12q-72 0 -115 50t-43 120zM884 2246v20q0 8 2 16q0 4 9 21t13 27q16 26 42 57t62 31q30 0 62 -13t59 -34t45 -49t18 -58q0 -4 -1 -9 t-1 -7q-6 -40 -14 -71t-24 -54t-43 -35t-71 -12q-72 0 -115 50t-43 120z" />
<glyph unicode="&#xdd;" horiz-adv-x="1638" d="M108 1944l2 4q0 2 5 5t7 3q10 2 43 3t43 1q4 0 17 -1t27 -2t27 -2t17 -1h118q18 2 32 6q12 4 23 5t13 1q14 0 28 -2t24 -12q20 -16 37 -40t31 -51t26 -54t26 -49q22 -34 38 -70t31 -72t31 -72t40 -68q20 -24 31 -38t18 -22t11 -11t8 -3h6q0 2 4 5t4 5q10 -4 6 8 q8 14 17 35t17 43t15 41t11 25q8 12 17 37t19 53t21 54t21 40l20 46q20 40 37 70t43 62l6 6q2 2 4 2q4 0 18 1t18 -3q34 14 84 20t104 6t106 -3t90 -5q-2 -16 -4 -22t-12 -20q-74 -108 -152 -235t-144 -239q-22 -34 -32 -69t-19 -70t-19 -70t-28 -71q-20 -20 -16 -46t0 -40 q0 -4 -2 -17t-3 -28t-2 -28t-1 -17q0 -8 -1 -23t-3 -30t-3 -26t-1 -13q-2 -22 -4 -69t-5 -98t-5 -95t-2 -58v-16t1 -27t1 -28v-17q0 -12 -1 -61t-2 -105t-2 -105t-1 -61q0 -2 1 -12t2 -21t2 -21t1 -12t-1 -17t-3 -23q0 -4 -1 -19t-1 -19h-90h-106h-105t-89 4q-6 0 -19 1 t-29 2t-29 3t-19 2l12 66v24t1 34t1 34v26v8q0 4 1 6t1 4q0 22 2 69t3 107t4 125t4 125t3 107t2 69q-4 6 -5 25t-3 25q0 2 1 10t1 10q0 4 -3 28t-3 28l6 70q-10 24 -5 36t3 40q0 2 -4 6l-6 6q-44 38 -80 89t-66 107t-58 113t-56 109q-30 62 -69 118t-67 116q-2 4 -8 25 t-8 25q-6 12 -22 32t-33 40t-30 39t-13 29zM600 2130l4 8l44 36q18 16 36 31l30 25q50 36 85 64t66 55t65 57t82 68l6 -4q30 -28 61 -39t33 -33q0 -12 -27 -43t-66 -69t-83 -78t-76 -70q-10 -12 -25 -27t-30 -29t-26 -22l-11 -8z" />
<glyph unicode="&#xde;" horiz-adv-x="1716" d="M119 451q-1 169 3 339q0 102 8 203l16 202t14 201t0 200q-2 18 -4 62t-5 93t-5 94t-2 63v10q-14 28 22 42t94 20t124 10t112 14q10 0 17 -51t14 -112t14 -111t17 -50q120 12 216 14t178 -7t158 -30t158 -57q6 -4 24 -15t24 -15q8 -6 30 -22t45 -35t43 -36t28 -23 q82 -70 114 -144t32 -180q0 -156 -75 -274t-187 -216q-4 -2 -15 -8t-24 -12t-24 -11t-15 -7q-4 -4 -14 -7t-14 -5l-68 -20q-54 -20 -120 -19t-122 1q-36 -8 -84 -8t-112 -2q-12 -6 -33 -8t-40 -2t-34 -2t-17 -8q-4 -22 -6 -71t-5 -102t-5 -97t-2 -56v-18v-30v-31v-19 q-2 -22 -19 -34t-39 -19t-46 -9t-40 -4q-4 0 -21 -2t-37 -3t-37 -3t-21 -2q-44 -4 -80 -12t-82 -8h-34l-8 10q0 18 2 36q0 16 1 32t-1 32q-10 170 -11 339zM638 940q-2 -16 4 -31t17 -26t26 -15t31 4h31h55h56h32q34 0 78 5t88 17t83 33t61 51t26 62t4 66v38t-10 38 q-10 20 -29 45t-44 49t-52 41t-49 21q-2 0 -13 2t-24 3t-25 3t-14 2q-76 12 -147 5t-147 3h-4h-4q-2 0 -2 2q-2 0 -2 -1t-2 -1h-4q-4 -2 -7 -8t-3 -10q4 -104 2 -200t-12 -198z" />
<glyph unicode="&#xdf;" horiz-adv-x="1800" d="M136 506v348q4 4 7 19t3 19q-2 24 -1 86t4 131t5 127t2 74q0 8 2 58t5 110t4 112t-1 64v46q0 4 5 24t5 24v15v28v27v16q2 48 20 74t46 38t64 14t76 2q88 0 174 -9t172 -13h108q8 0 27 -1t39 -3t37 -3t21 -1q2 0 14 -3t25 -7t24 -7t15 -3q30 -6 63 -10t65 -10 q48 -10 108 -32t117 -54t105 -72t76 -84q20 -34 30 -58t15 -47t5 -49v-64q0 -94 -51 -166t-115 -130q-4 -4 -19 -14l-21 -14q-2 -2 -9 -6t-15 -9t-15 -10t-9 -5q-8 -4 -29 -17t-21 -27l2 -6q8 -14 21 -9t27 1q2 0 17 -8t21 -12q58 -32 108 -79t86 -103t57 -121t21 -133 q0 -90 -16 -170t-62 -160q-2 -4 -9 -15t-9 -15l-27 -27t-40 -41t-41 -41t-28 -27q-12 -10 -34 -13t-34 -5h-108q-6 0 -28 -1t-48 -3t-49 -4t-29 -2h-106q-10 0 -39 2t-68 4t-83 4t-84 4v232q44 4 87 8t89 8q16 0 47 2t64 3t60 3t33 2q20 2 44 9t47 19t40 29t23 39 q12 30 12 46v50q0 62 -24 106t-64 72t-91 46t-103 30h-234q-4 0 -9 -1t-13 -1v440q68 2 141 9t135 29q2 0 14 6l28 14t31 16t23 12q40 20 55 55t15 79q0 70 -39 109t-96 59t-121 24t-114 4h-106q-6 -2 -21 -5t-19 -5h-8q-4 2 -16 5t-16 5h-4q-8 0 -11 -7t-4 -15t0 -16t1 -10 q0 -4 -1 -67t-4 -166t-6 -236t-7 -280t-7 -298t-7 -288t-6 -251t-4 -188h-190q-4 0 -20 1t-34 3t-34 3t-20 1q-6 0 -21 1t-32 1t-32 -1t-21 -1l-20 20v26v65v84v86v71v36v35v62v61v36q0 4 -2 23t-3 40t-3 39t-2 24z" />
<glyph unicode="&#xe0;" horiz-adv-x="1706" d="M108 22q2 2 2 4v6q40 170 86 340t88 340q0 2 1 5t1 5q2 12 9 45t15 71t15 71t11 47q4 28 13 44t5 44l186 834q12 50 47 61t75 13q46 4 90 -2t90 -10q12 0 43 1t67 1h68h44l10 -10q18 -60 39 -120t42 -124t43 -138t44 -160q2 -10 11 -42t21 -75t25 -91t25 -91t21 -74 t13 -41q16 -52 28 -95t23 -86t25 -91t32 -110q0 -4 8 -32t18 -64t19 -68t11 -42q20 -92 32 -170t34 -144q-34 -6 -54 -10t-24 -4q-10 0 -48 -1t-72 -3q-12 0 -39 -5t-56 -11t-52 -11t-25 -5l-20 8q-6 42 -19 82t-19 82q-16 82 -34 168t-56 162q4 6 3 25t-3 25q-6 4 -10 8 t-7 6t-3 4q-6 8 -10 25t-8 35t-11 30t-19 12q-2 0 -12 -1t-22 -3t-22 -5t-12 -3q-48 -6 -97 -12t-97 -8q-14 -10 -22 -26t-18 -32q-4 -12 -12 -30t-16 -35t-13 -30t-5 -15q-10 -24 -28 -86t-38 -131t-38 -131t-26 -86l-12 -20q-68 -2 -150 -12t-152 -14h-72q-4 0 -15 2 t-15 4zM444 2426l10 4q6 2 19 9t27 16t26 18t16 15h4q10 2 20 3t6 5q4 0 8 -2l8 -4l6 -6q2 -2 29 -22t68 -49t91 -64t96 -67t85 -59t57 -39q-26 -28 -50 -52t-28 -34q-38 10 -71 29t-63 37q-4 2 -18 10t-29 17t-29 18t-20 13q-4 4 -18 13t-16 11q-2 0 -8 5t-12 11t-12 10 t-6 2q-4 4 -21 15t-35 22t-34 20t-20 13q-16 10 -21 14t-7 7t-6 8t-18 17q-10 10 -19 15t-15 21zM730 990q0 -4 1 -14t11 -10l252 12q2 -2 9 -5t11 -3q10 0 10 13v15q0 4 -1 11t-1 9q-8 22 -28 75t-41 113t-40 112t-25 74q-4 12 -6 26t-5 25t-10 18t-21 5q-2 0 -7 -1t-7 -1 q-16 -110 -37 -221t-55 -219q0 -2 -5 -9t-5 -11v-14z" />
<glyph unicode="&#xe1;" horiz-adv-x="1680" d="M108 22q2 2 2 4v6q40 170 86 340t88 340q0 2 1 5t1 5q2 12 9 45t15 71t15 71t11 47q4 28 13 44t5 44l186 834q12 50 47 61t75 13q46 4 90 -2t90 -10q12 0 43 1t67 1h68h44l10 -10q18 -60 39 -120t42 -124t43 -138t44 -160q2 -10 11 -42t21 -75t25 -91t25 -91t21 -74 t13 -41q16 -52 28 -95t23 -86t25 -91t32 -110q0 -4 8 -32t18 -64t19 -68t11 -42q20 -92 32 -170t34 -144q-34 -6 -54 -10t-24 -4q-10 0 -48 -1t-72 -3q-12 0 -39 -5t-56 -11t-52 -11t-25 -5l-20 8q-6 42 -19 82t-19 82q-16 82 -34 168t-56 162q4 6 3 25t-3 25q-6 4 -10 8 t-7 6t-3 4q-6 8 -10 25t-8 35t-11 30t-19 12q-2 0 -12 -1t-22 -3t-22 -5t-12 -3q-48 -6 -97 -12t-97 -8q-14 -10 -22 -26t-18 -32q-4 -12 -12 -30t-16 -35t-13 -30t-5 -15q-10 -24 -28 -86t-38 -131t-38 -131t-26 -86l-12 -20q-68 -2 -150 -12t-152 -14h-72q-4 0 -15 2 t-15 4zM674 2138l4 8l44 36q18 16 36 31l30 25q50 36 85 64t66 55t65 57t82 68l6 -4q30 -28 61 -39t33 -33q0 -12 -27 -43t-66 -69t-83 -78t-76 -70q-10 -12 -25 -27t-30 -29t-26 -22l-11 -8zM730 990q0 -4 1 -14t11 -10l252 12q2 -2 9 -5t11 -3q10 0 10 13v15q0 4 -1 11 t-1 9q-8 22 -28 75t-41 113t-40 112t-25 74q-4 12 -6 26t-5 25t-10 18t-21 5q-2 0 -7 -1t-7 -1q-16 -110 -37 -221t-55 -219q0 -2 -5 -9t-5 -11v-14z" />
<glyph unicode="&#xe2;" horiz-adv-x="1690" d="M108 22q2 2 2 4v6q40 170 86 340t88 340q0 2 1 5t1 5q2 12 9 45t15 71t15 71t11 47q4 28 13 44t5 44l186 834q12 50 47 61t75 13q46 4 90 -2t90 -10q12 0 43 1t67 1h68h44l10 -10q18 -60 39 -120t42 -124t43 -138t44 -160q2 -10 11 -42t21 -75t25 -91t25 -91t21 -74 t13 -41q16 -52 28 -95t23 -86t25 -91t32 -110q0 -4 8 -32t18 -64t19 -68t11 -42q20 -92 32 -170t34 -144q-34 -6 -54 -10t-24 -4q-10 0 -48 -1t-72 -3q-12 0 -39 -5t-56 -11t-52 -11t-25 -5l-20 8q-6 42 -19 82t-19 82q-16 82 -34 168t-56 162q4 6 3 25t-3 25q-6 4 -10 8 t-7 6t-3 4q-6 8 -10 25t-8 35t-11 30t-19 12q-2 0 -12 -1t-22 -3t-22 -5t-12 -3q-48 -6 -97 -12t-97 -8q-14 -10 -22 -26t-18 -32q-4 -12 -12 -30t-16 -35t-13 -30t-5 -15q-10 -24 -28 -86t-38 -131t-38 -131t-26 -86l-12 -20q-68 -2 -150 -12t-152 -14h-72q-4 0 -15 2 t-15 4zM530 2040v8l7 16t16 38t19 44t16 34q58 108 109 211t103 211h8q24 -34 74 -96t106 -135t109 -152t85 -147q-24 -4 -37 -6t-24 -2t-25 1t-40 1h-52l-16 8q-2 6 -11 19t-18 28t-18 28t-11 19q-4 8 -19 33t-32 51t-33 47t-24 21q-12 0 -17 -10t-5 -22q-2 -6 -8 -22 t-13 -34t-14 -34t-9 -20q-4 -16 -10 -39t-13 -45t-13 -37l-6 -15zM730 990q0 -4 1 -14t11 -10l252 12q2 -2 9 -5t11 -3q10 0 10 13v15q0 4 -1 11t-1 9q-8 22 -28 75t-41 113t-40 112t-25 74q-4 12 -6 26t-5 25t-10 18t-21 5q-2 0 -7 -1t-7 -1q-16 -110 -37 -221t-55 -219 q0 -2 -5 -9t-5 -11v-14z" />
<glyph unicode="&#xe3;" horiz-adv-x="1668" d="M108 22q2 2 2 4v6q40 170 86 340t88 340q0 2 1 5t1 5q2 12 9 45t15 71t15 71t11 47q4 28 13 44t5 44l186 834q12 50 47 61t75 13q46 4 90 -2t90 -10q12 0 43 1t67 1h68h44l10 -10q18 -60 39 -120t42 -124t43 -138t44 -160q2 -10 11 -42t21 -75t25 -91t25 -91t21 -74 t13 -41q16 -52 28 -95t23 -86t25 -91t32 -110q0 -4 8 -32t18 -64t19 -68t11 -42q20 -92 32 -170t34 -144q-34 -6 -54 -10t-24 -4q-10 0 -48 -1t-72 -3q-12 0 -39 -5t-56 -11t-52 -11t-25 -5l-20 8q-6 42 -19 82t-19 82q-16 82 -34 168t-56 162q4 6 3 25t-3 25q-6 4 -10 8 t-7 6t-3 4q-6 8 -10 25t-8 35t-11 30t-19 12q-2 0 -12 -1t-22 -3t-22 -5t-12 -3q-48 -6 -97 -12t-97 -8q-14 -10 -22 -26t-18 -32q-4 -12 -12 -30t-16 -35t-13 -30t-5 -15q-10 -24 -28 -86t-38 -131t-38 -131t-26 -86l-12 -20q-68 -2 -150 -12t-152 -14h-72q-4 0 -15 2 t-15 4zM520 2280q-2 2 5 8t15 14t16 14t10 10q10 26 40 35t52 21q22 10 45 14t47 4q30 0 51 -2t51 -8q32 -6 54 -35t44 -45q24 -20 59 -31t65 -11q42 0 68 31t60 59q4 -8 17 -18t28 -23t29 -27t20 -32q6 -16 -12 -44t-45 -55t-56 -49t-45 -28q-18 -6 -36 -7t-38 -1 q-30 0 -47 8t-41 8q-4 2 -23 11t-27 13q0 8 -8 8q-4 2 -13 4t-11 4t-11 9t-18 16t-17 16t-10 9q-8 6 -27 14t-23 10q-2 2 -17 2h-25q-40 0 -77 -16t-59 -50q-12 22 -28 47t-32 49zM730 990q0 -4 1 -14t11 -10l252 12q2 -2 9 -5t11 -3q10 0 10 13v15q0 4 -1 11t-1 9 q-8 22 -28 75t-41 113t-40 112t-25 74q-4 12 -6 26t-5 25t-10 18t-21 5q-2 0 -7 -1t-7 -1q-16 -110 -37 -221t-55 -219q0 -2 -5 -9t-5 -11v-14z" />
<glyph unicode="&#xe4;" horiz-adv-x="1668" d="M108 22q2 2 2 4v6q40 170 86 340t88 340q0 2 1 5t1 5q2 12 9 45t15 71t15 71t11 47q4 28 13 44t5 44l186 834q12 50 47 61t75 13q46 4 90 -2t90 -10q12 0 43 1t67 1h68h44l10 -10q18 -60 39 -120t42 -124t43 -138t44 -160q2 -10 11 -42t21 -75t25 -91t25 -91t21 -74 t13 -41q16 -52 28 -95t23 -86t25 -91t32 -110q0 -4 8 -32t18 -64t19 -68t11 -42q20 -92 32 -170t34 -144q-34 -6 -54 -10t-24 -4q-10 0 -48 -1t-72 -3q-12 0 -39 -5t-56 -11t-52 -11t-25 -5l-20 8q-6 42 -19 82t-19 82q-16 82 -34 168t-56 162q4 6 3 25t-3 25q-6 4 -10 8 t-7 6t-3 4q-6 8 -10 25t-8 35t-11 30t-19 12q-2 0 -12 -1t-22 -3t-22 -5t-12 -3q-48 -6 -97 -12t-97 -8q-14 -10 -22 -26t-18 -32q-4 -12 -12 -30t-16 -35t-13 -30t-5 -15q-10 -24 -28 -86t-38 -131t-38 -131t-26 -86l-12 -20q-68 -2 -150 -12t-152 -14h-72q-4 0 -15 2 t-15 4zM384 2212v20q0 8 2 14q0 4 9 22t13 28q16 26 42 56t62 30q30 0 62 -13t59 -34t45 -48t18 -57q0 -4 -1 -9t-1 -7q-6 -40 -14 -71t-24 -54t-43 -35t-71 -12q-72 0 -115 50t-43 120zM730 990q0 -4 1 -14t11 -10l252 12q2 -2 9 -5t11 -3q10 0 10 13v15q0 4 -1 11t-1 9 q-8 22 -28 75t-41 113t-40 112t-25 74q-4 12 -6 26t-5 25t-10 18t-21 5q-2 0 -7 -1t-7 -1q-16 -110 -37 -221t-55 -219q0 -2 -5 -9t-5 -11v-14zM892 2210v20q0 8 2 16q0 4 9 21t13 27q16 26 42 57t62 31q30 0 62 -13t59 -34t45 -49t18 -58q0 -4 -1 -9t-1 -7q-6 -40 -14 -71 t-24 -54t-43 -35t-71 -12q-72 0 -115 50t-43 120z" />
<glyph unicode="&#xe5;" horiz-adv-x="1680" d="M108 22q2 2 2 4v6q40 170 86 340t88 340q0 2 1 5t1 5q2 12 9 45t15 71t15 71t11 47q4 28 13 44t5 44l186 834q12 50 47 61t75 13q46 4 90 -2t90 -10q12 0 43 1t67 1h68h44l10 -10q18 -60 39 -120t42 -124t43 -138t44 -160q2 -10 11 -42t21 -75t25 -91t25 -91t21 -74 t13 -41q16 -52 28 -95t23 -86t25 -91t32 -110q0 -4 8 -32t18 -64t19 -68t11 -42q20 -92 32 -170t34 -144q-34 -6 -54 -10t-24 -4q-10 0 -48 -1t-72 -3q-12 0 -39 -5t-56 -11t-52 -11t-25 -5l-20 8q-6 42 -19 82t-19 82q-16 82 -34 168t-56 162q4 6 3 25t-3 25q-6 4 -10 8 t-7 6t-3 4q-6 8 -10 25t-8 35t-11 30t-19 12q-2 0 -12 -1t-22 -3t-22 -5t-12 -3q-48 -6 -97 -12t-97 -8q-14 -10 -22 -26t-18 -32q-4 -12 -12 -30t-16 -35t-13 -30t-5 -15q-10 -24 -28 -86t-38 -131t-38 -131t-26 -86l-12 -20q-68 -2 -150 -12t-152 -14h-72q-4 0 -15 2 t-15 4zM652 2250v24q0 8 2 18q0 4 11 27t17 33q20 32 51 69t75 37q36 0 75 -15t72 -41t55 -60t22 -70q0 -4 -1 -11t-1 -9q-8 -48 -17 -86t-28 -66t-52 -43t-87 -15q-44 0 -80 17t-61 45t-39 66t-14 80zM730 990q0 -4 1 -14t11 -10l252 12q2 -2 9 -5t11 -3q10 0 10 13v15 q0 4 -1 11t-1 9q-8 22 -28 75t-41 113t-40 112t-25 74q-4 12 -6 26t-5 25t-10 18t-21 5q-2 0 -7 -1t-7 -1q-16 -110 -37 -221t-55 -219q0 -2 -5 -9t-5 -11v-14zM784 2242q0 -28 18 -49t48 -21q36 0 46 19t16 51v6q0 26 -26 45t-50 19q-14 0 -24 -13t-18 -23q-2 -4 -6 -11 t-4 -9v-14z" />
<glyph unicode="&#xe6;" horiz-adv-x="2556" d="M78 14q2 2 2 4l2 6q70 170 148 337t152 337q0 2 2 5t2 5q4 12 17 45t28 70t29 70t20 47q10 28 21 44t13 44l342 828q22 50 59 60t77 10q60 4 98 6t61 4t34 2h15h18t24 -1t21 -1h11t12 -2t22 -3t22 -3t14 -2h116q14 0 64 -1t107 -3t107 -3t62 -1q24 0 83 -1t126 -1t126 1 t83 1q16 -4 24 -17t11 -30t4 -34t1 -29q0 -4 1 -19t3 -31t3 -30t1 -18v-16t1 -32t1 -37v-29v-23t-1 -35t-1 -34v-22q0 -2 -8 -6t-10 -6q-6 0 -19 -2t-27 -4t-26 -3t-14 -1h-468q-8 4 -30 7t-30 3l-10 2q-2 0 -2 -1t-2 -1h-4l-10 -48l-10 -306h14q18 0 30 2t34 8h280v-404 q-84 -4 -173 -15t-175 -5l-20 -20l16 -242q2 -10 18 -13t20 -3q20 0 35 2t37 8q150 -4 294 4t292 8h33t41 -1t35 -1h15l20 -18v-60q10 -116 4 -215t-34 -181q-6 2 -24 3t-38 3t-38 3t-24 1h-64h-108h-108h-64q-16 0 -76 3t-131 7t-132 7t-77 3h-126q-6 0 -34 2t-59 4t-59 3 t-34 1h-48l-24 3t-56 8t-63 11t-45 12l-4 598h-28l-2 -2q-30 -2 -60 -3t-58 -1q-16 -10 -27 -26t-23 -32q-6 -10 -18 -28t-22 -35t-19 -30t-9 -15q-14 -24 -43 -85t-62 -130t-63 -130t-42 -85l-16 -20q-68 2 -153 -5t-155 -11l-70 2q-4 0 -14 3t-14 5zM878 948q0 -10 10 -10 h144l-12 348q-28 -74 -58 -147t-66 -143q0 -2 -6 -9t-8 -11l-2 -14q-2 -4 -2 -14z" />
<glyph unicode="&#xe7;" horiz-adv-x="1606" d="M124 910q0 102 28 197t64 185q34 82 79 150t93 134q2 4 6 11t4 11q26 46 66 82t80 66q158 118 334 168t368 44q16 0 42 -3t30 -3q8 -2 31 -7t23 -21v-10q-2 -18 -6 -64t-8 -98t-8 -98t-6 -64q-36 4 -79 0t-87 -13t-86 -22t-74 -25q-112 -40 -214 -105t-170 -173 q-22 -38 -41 -88t-32 -103t-20 -106t-7 -99q0 -100 33 -181t90 -140t135 -92t166 -37q88 -2 177 18t173 42q26 10 56 22t54 26q22 -34 28 -79t16 -83q2 -10 10 -37t17 -58t17 -58t12 -39v-20q-8 -4 -33 -19t-33 -19q-46 -28 -97 -45t-105 -24t-109 -9t-109 0q-58 2 -117 17 t-115 31q-36 10 -74 18t-72 26q-6 2 -30 17t-54 33l-60 36t-48 28q-40 28 -67 47t-61 49q0 2 -4 5t-4 5q-100 130 -151 267t-51 307zM860 60l2 12l232 -2q-10 -72 -1 -104t17 -38q28 -26 42 -37t22 -19t15 -20t21 -38q16 -34 25 -62t9 -62q0 -60 -28 -110q-6 -14 -24 -31 t-41 -32t-45 -25t-38 -12q-4 -2 -15 -4t-23 -4t-23 -4t-13 -2l-68 4q-16 4 -21 25t-7 48t-4 51t-12 34q22 8 45 9t42 4t31 11t12 32q0 10 -6 29t-8 21q-2 4 -12 27t-16 33q-2 2 -13 12t-24 21t-24 21t-13 12q-2 4 -5 15t-5 15q0 2 -4 6t-6 4q-4 10 -3 30t-1 24q2 30 -7 50 t-5 56z" />
<glyph unicode="&#xe8;" horiz-adv-x="1548" d="M121 1429q1 25 5 54t7 58t1 55v16q-4 -6 -1 19t6 61t6 75t-1 63q0 4 -1 26t-1 32v24q0 8 2 16l20 10q2 0 22 1t30 1h18t24 -1t21 -1h11t12 -2t22 -3t22 -3t14 -2h116q14 0 64 -1t107 -3t107 -3t62 -1q24 0 83 -1t126 -1t126 1t83 1q16 -4 24 -17t11 -30t4 -34t1 -29 q0 -4 1 -19t3 -31t3 -30t1 -18v-16t1 -32t1 -37v-29v-23t-1 -35t-1 -34v-22q0 -2 -8 -6t-10 -6q-6 0 -19 -2t-27 -4t-26 -3t-14 -1h-468q-8 4 -30 7t-30 3l-10 2q-2 0 -2 -1t-2 -1h-4l-10 -48l-10 -306h14q18 0 30 2t34 8h280v-404q-84 -4 -173 -15t-175 -5l-20 -20l16 -242 q2 -10 18 -13t20 -3q20 0 35 2t37 8q150 -4 294 4t292 8h33t41 -1t35 -1h15l20 -18v-60q10 -116 4 -215t-34 -181q-6 2 -24 3t-38 3t-38 3t-24 1h-64h-108h-108h-64q-16 0 -76 3t-131 7t-132 7t-77 3h-126q-6 0 -34 2t-59 4t-59 3t-34 1h-48q-2 0 -6 4l-4 4q-12 96 -14 189 t-6 189q0 14 -3 66t-7 112t-7 112t-3 66v532q0 6 -1 20t-3 30t-3 30t-1 20q-6 18 -5 43zM308 2430l10 4q6 2 19 9t27 16t26 18t16 15h4q10 2 20 3t6 5q4 0 8 -2l8 -4l6 -6q2 -2 29 -22t68 -49t91 -64t96 -67t85 -59t57 -39q-26 -28 -50 -52t-28 -34q-38 10 -71 29t-63 37 q-4 2 -18 10t-29 17t-29 18t-20 13q-4 4 -18 13t-16 11q-2 0 -8 5t-12 11t-12 10t-6 2q-4 4 -21 15t-35 22t-34 20t-20 13q-16 10 -21 14t-7 7t-6 8t-18 17q-10 10 -19 15t-15 21z" />
<glyph unicode="&#xe9;" horiz-adv-x="1564" d="M121 1429q1 25 5 54t7 58t1 55v16q-4 -6 -1 19t6 61t6 75t-1 63q0 4 -1 26t-1 32v24q0 8 2 16l20 10q2 0 22 1t30 1h18t24 -1t21 -1h11t12 -2t22 -3t22 -3t14 -2h116q14 0 64 -1t107 -3t107 -3t62 -1q24 0 83 -1t126 -1t126 1t83 1q16 -4 24 -17t11 -30t4 -34t1 -29 q0 -4 1 -19t3 -31t3 -30t1 -18v-16t1 -32t1 -37v-29v-23t-1 -35t-1 -34v-22q0 -2 -8 -6t-10 -6q-6 0 -19 -2t-27 -4t-26 -3t-14 -1h-468q-8 4 -30 7t-30 3l-10 2q-2 0 -2 -1t-2 -1h-4l-10 -48l-10 -306h14q18 0 30 2t34 8h280v-404q-84 -4 -173 -15t-175 -5l-20 -20l16 -242 q2 -10 18 -13t20 -3q20 0 35 2t37 8q150 -4 294 4t292 8h33t41 -1t35 -1h15l20 -18v-60q10 -116 4 -215t-34 -181q-6 2 -24 3t-38 3t-38 3t-24 1h-64h-108h-108h-64q-16 0 -76 3t-131 7t-132 7t-77 3h-126q-6 0 -34 2t-59 4t-59 3t-34 1h-48q-2 0 -6 4l-4 4q-12 96 -14 189 t-6 189q0 14 -3 66t-7 112t-7 112t-3 66v532q0 6 -1 20t-3 30t-3 30t-1 20q-6 18 -5 43zM436 2130l4 8l44 36q18 16 36 31l30 25q50 36 85 64t66 55t65 57t82 68l6 -4q30 -28 61 -39t33 -33q0 -12 -27 -43t-66 -69t-83 -78t-76 -70q-10 -12 -25 -27t-30 -29t-26 -22l-11 -8z " />
<glyph unicode="&#xea;" horiz-adv-x="1568" d="M121 1429q1 25 5 54t7 58t1 55v16q-4 -6 -1 19t6 61t6 75t-1 63q0 4 -1 26t-1 32v24q0 8 2 16l20 10q2 0 22 1t30 1h18t24 -1t21 -1h11t12 -2t22 -3t22 -3t14 -2h116q14 0 64 -1t107 -3t107 -3t62 -1q24 0 83 -1t126 -1t126 1t83 1q16 -4 24 -17t11 -30t4 -34t1 -29 q0 -4 1 -19t3 -31t3 -30t1 -18v-16t1 -32t1 -37v-29v-23t-1 -35t-1 -34v-22q0 -2 -8 -6t-10 -6q-6 0 -19 -2t-27 -4t-26 -3t-14 -1h-468q-8 4 -30 7t-30 3l-10 2q-2 0 -2 -1t-2 -1h-4l-10 -48l-10 -306h14q18 0 30 2t34 8h280v-404q-84 -4 -173 -15t-175 -5l-20 -20l16 -242 q2 -10 18 -13t20 -3q20 0 35 2t37 8q150 -4 294 4t292 8h33t41 -1t35 -1h15l20 -18v-60q10 -116 4 -215t-34 -181q-6 2 -24 3t-38 3t-38 3t-24 1h-64h-108h-108h-64q-16 0 -76 3t-131 7t-132 7t-77 3h-126q-6 0 -34 2t-59 4t-59 3t-34 1h-48q-2 0 -6 4l-4 4q-12 96 -14 189 t-6 189q0 14 -3 66t-7 112t-7 112t-3 66v532q0 6 -1 20t-3 30t-3 30t-1 20q-6 18 -5 43zM366 2058v8l7 16t16 38t19 44t16 34q58 108 109 211t103 211h8q24 -34 74 -96t106 -135t109 -152t85 -147q-24 -4 -37 -6t-24 -2t-25 1t-40 1h-52l-16 8q-2 6 -11 19t-18 28t-18 28 t-11 19q-4 8 -19 33t-32 51t-33 47t-24 21q-12 0 -17 -10t-5 -22q-2 -6 -8 -22t-13 -34t-14 -34t-9 -20q-4 -16 -10 -39t-13 -45t-13 -37l-6 -15z" />
<glyph unicode="&#xeb;" horiz-adv-x="1542" d="M121 1429q1 25 5 54t7 58t1 55v16q-4 -6 -1 19t6 61t6 75t-1 63q0 4 -1 26t-1 32v24q0 8 2 16l20 10q2 0 22 1t30 1h18t24 -1t21 -1h11t12 -2t22 -3t22 -3t14 -2h116q14 0 64 -1t107 -3t107 -3t62 -1q24 0 83 -1t126 -1t126 1t83 1q16 -4 24 -17t11 -30t4 -34t1 -29 q0 -4 1 -19t3 -31t3 -30t1 -18v-16t1 -32t1 -37v-29v-23t-1 -35t-1 -34v-22q0 -2 -8 -6t-10 -6q-6 0 -19 -2t-27 -4t-26 -3t-14 -1h-468q-8 4 -30 7t-30 3l-10 2q-2 0 -2 -1t-2 -1h-4l-10 -48l-10 -306h14q18 0 30 2t34 8h280v-404q-84 -4 -173 -15t-175 -5l-20 -20l16 -242 q2 -10 18 -13t20 -3q20 0 35 2t37 8q150 -4 294 4t292 8h33t41 -1t35 -1h15l20 -18v-60q10 -116 4 -215t-34 -181q-6 2 -24 3t-38 3t-38 3t-24 1h-64h-108h-108h-64q-16 0 -76 3t-131 7t-132 7t-77 3h-126q-6 0 -34 2t-59 4t-59 3t-34 1h-48q-2 0 -6 4l-4 4q-12 96 -14 189 t-6 189q0 14 -3 66t-7 112t-7 112t-3 66v532q0 6 -1 20t-3 30t-3 30t-1 20q-6 18 -5 43zM316 2218v20q0 8 2 14q0 4 9 22t13 28q16 26 42 56t62 30q30 0 62 -13t59 -34t45 -48t18 -57q0 -4 -1 -9t-1 -7q-6 -40 -14 -71t-24 -54t-43 -35t-71 -12q-72 0 -115 50t-43 120z M824 2216v20q0 8 2 16q0 4 9 21t13 27q16 26 42 57t62 31q30 0 62 -13t59 -34t45 -49t18 -58q0 -4 -1 -9t-1 -7q-6 -40 -14 -71t-24 -54t-43 -35t-71 -12q-72 0 -115 50t-43 120z" />
<glyph unicode="&#xec;" horiz-adv-x="1164" d="M136 1700q0 4 1 24t3 44t4 44t2 26t1 19t1 29t-1 29t-1 19l10 10l292 -10l432 10q8 0 27 -1t42 -3t42 -4t27 -2q18 -12 19 -31t1 -37v-50t-1 -79t-1 -84v-61l-210 -10l-4 -28v-48t1 -72t1 -72v-48q0 -186 -12 -370t-12 -372q0 -64 -4 -124t6 -124l12 -10h10q2 2 6 5t4 5 q12 6 35 10t49 7t50 5t36 2q14 0 27 -7t13 -25v-252q0 -4 -4 -10t-6 -10q-4 0 -20 -5t-36 -10t-37 -10t-21 -5q-6 0 -23 -2t-37 -3t-39 -3t-29 -2h-30h-53h-54h-31q-2 0 -12 -1t-21 -3l-22 -4t-13 -2q-4 0 -24 1t-24 -1q-4 0 -20 -5t-18 -5q-4 0 -21 5t-19 5q-4 0 -16 -5 t-16 -5h-28q-16 0 -31 5t-31 5h-6q-2 -2 -13 -6t-15 -4q-10 0 -35 2t-35 2q4 18 3 29t-1 17q-2 8 -2 10v270q4 0 19 2t21 0q62 10 96 13t50 7q12 2 10 14t-2 16v28q0 14 -1 55t-1 96t-2 117t-2 117t-1 97t-1 56q-2 150 -3 302t-17 302q-2 16 -3 31t-17 25q-10 10 -18 10 q-4 0 -20 -5t-18 -5h-60h-46t-42 20q-2 4 -4 17t-3 27t-2 26t-1 18zM390 2392l10 4q6 2 19 9t27 16t26 18t16 15h4q10 2 20 3t6 5q4 0 8 -2l8 -4l6 -6q2 -2 29 -22t68 -49t91 -64t96 -67t85 -59t57 -39q-26 -28 -50 -52t-28 -34q-38 10 -71 29t-63 37q-4 2 -18 10t-29 17 t-29 18t-20 13q-4 4 -18 13t-16 11q-2 0 -8 5t-12 11t-12 10t-6 2q-4 4 -21 15t-35 22t-34 20t-20 13q-16 10 -21 14t-7 7t-6 8t-18 17q-10 10 -19 15t-15 21z" />
<glyph unicode="&#xed;" horiz-adv-x="1148" d="M136 1700q0 4 1 24t3 44t4 44t2 26t1 19t1 29t-1 29t-1 19l10 10l292 -10l432 10q8 0 27 -1t42 -3t42 -4t27 -2q18 -12 19 -31t1 -37v-50t-1 -79t-1 -84v-61l-210 -10l-4 -28v-48t1 -72t1 -72v-48q0 -186 -12 -370t-12 -372q0 -64 -4 -124t6 -124l12 -10h10q2 2 6 5t4 5 q12 6 35 10t49 7t50 5t36 2q14 0 27 -7t13 -25v-252q0 -4 -4 -10t-6 -10q-4 0 -20 -5t-36 -10t-37 -10t-21 -5q-6 0 -23 -2t-37 -3t-39 -3t-29 -2h-30h-53h-54h-31q-2 0 -12 -1t-21 -3l-22 -4t-13 -2q-4 0 -24 1t-24 -1q-4 0 -20 -5t-18 -5q-4 0 -21 5t-19 5q-4 0 -16 -5 t-16 -5h-28q-16 0 -31 5t-31 5h-6q-2 -2 -13 -6t-15 -4q-10 0 -35 2t-35 2q4 18 3 29t-1 17q-2 8 -2 10v270q4 0 19 2t21 0q62 10 96 13t50 7q12 2 10 14t-2 16v28q0 14 -1 55t-1 96t-2 117t-2 117t-1 97t-1 56q-2 150 -3 302t-17 302q-2 16 -3 31t-17 25q-10 10 -18 10 q-4 0 -20 -5t-18 -5h-60h-46t-42 20q-2 4 -4 17t-3 27t-2 26t-1 18zM336 2148l4 8l44 36q18 16 36 31l30 25q50 36 85 64t66 55t65 57t82 68l6 -4q30 -28 61 -39t33 -33q0 -12 -27 -43t-66 -69t-83 -78t-76 -70q-10 -12 -25 -27t-30 -29t-26 -22l-11 -8z" />
<glyph unicode="&#xee;" horiz-adv-x="1176" d="M136 1700q0 4 1 24t3 44t4 44t2 26t1 19t1 29t-1 29t-1 19l10 10l292 -10l432 10q8 0 27 -1t42 -3t42 -4t27 -2q18 -12 19 -31t1 -37v-50t-1 -79t-1 -84v-61l-210 -10l-4 -28v-48t1 -72t1 -72v-48q0 -186 -12 -370t-12 -372q0 -64 -4 -124t6 -124l12 -10h10q2 2 6 5t4 5 q12 6 35 10t49 7t50 5t36 2q14 0 27 -7t13 -25v-252q0 -4 -4 -10t-6 -10q-4 0 -20 -5t-36 -10t-37 -10t-21 -5q-6 0 -23 -2t-37 -3t-39 -3t-29 -2h-30h-53h-54h-31q-2 0 -12 -1t-21 -3l-22 -4t-13 -2q-4 0 -24 1t-24 -1q-4 0 -20 -5t-18 -5q-4 0 -21 5t-19 5q-4 0 -16 -5 t-16 -5h-28q-16 0 -31 5t-31 5h-6q-2 -2 -13 -6t-15 -4q-10 0 -35 2t-35 2q4 18 3 29t-1 17q-2 8 -2 10v270q4 0 19 2t21 0q62 10 96 13t50 7q12 2 10 14t-2 16v28q0 14 -1 55t-1 96t-2 117t-2 117t-1 97t-1 56q-2 150 -3 302t-17 302q-2 16 -3 31t-17 25q-10 10 -18 10 q-4 0 -20 -5t-18 -5h-60h-46t-42 20q-2 4 -4 17t-3 27t-2 26t-1 18zM274 2052v8l7 16t16 38t19 44t16 34q58 108 109 211t103 211h8q24 -34 74 -96t106 -135t109 -152t85 -147q-24 -4 -37 -6t-24 -2t-25 1t-40 1h-52l-16 8q-2 6 -11 19t-18 28t-18 28t-11 19q-4 8 -19 33 t-32 51t-33 47t-24 21q-12 0 -17 -10t-5 -22q-2 -6 -8 -22t-13 -34t-14 -34t-9 -20q-4 -16 -10 -39t-13 -45t-13 -37l-6 -15z" />
<glyph unicode="&#xef;" horiz-adv-x="1170" d="M136 1700q0 4 1 24t3 44t4 44t2 26t1 19t1 29t-1 29t-1 19l10 10l292 -10l432 10q8 0 27 -1t42 -3t42 -4t27 -2q18 -12 19 -31t1 -37v-50t-1 -79t-1 -84v-61l-210 -10l-4 -28v-48t1 -72t1 -72v-48q0 -186 -12 -370t-12 -372q0 -64 -4 -124t6 -124l12 -10h10q2 2 6 5t4 5 q12 6 35 10t49 7t50 5t36 2q14 0 27 -7t13 -25v-252q0 -4 -4 -10t-6 -10q-4 0 -20 -5t-36 -10t-37 -10t-21 -5q-6 0 -23 -2t-37 -3t-39 -3t-29 -2h-30h-53h-54h-31q-2 0 -12 -1t-21 -3l-22 -4t-13 -2q-4 0 -24 1t-24 -1q-4 0 -20 -5t-18 -5q-4 0 -21 5t-19 5q-4 0 -16 -5 t-16 -5h-28q-16 0 -31 5t-31 5h-6q-2 -2 -13 -6t-15 -4q-10 0 -35 2t-35 2q4 18 3 29t-1 17q-2 8 -2 10v270q4 0 19 2t21 0q62 10 96 13t50 7q12 2 10 14t-2 16v28q0 14 -1 55t-1 96t-2 117t-2 117t-1 97t-1 56q-2 150 -3 302t-17 302q-2 16 -3 31t-17 25q-10 10 -18 10 q-4 0 -20 -5t-18 -5h-60h-46t-42 20q-2 4 -4 17t-3 27t-2 26t-1 18zM164 2230v20q0 8 2 14q0 4 9 22t13 28q16 26 42 56t62 30q30 0 62 -13t59 -34t45 -48t18 -57q0 -4 -1 -9t-1 -7q-6 -40 -14 -71t-24 -54t-43 -35t-71 -12q-72 0 -115 50t-43 120zM672 2228v20q0 8 2 16 q0 4 9 21t13 27q16 26 42 57t62 31q30 0 62 -13t59 -34t45 -49t18 -58q0 -4 -1 -9t-1 -7q-6 -40 -14 -71t-24 -54t-43 -35t-71 -12q-72 0 -115 50t-43 120z" />
<glyph unicode="&#xf1;" horiz-adv-x="1764" d="M122 1072l14 808q0 18 7 35t29 21h98q12 0 42 -2t63 -3t62 -3t41 -2q26 -6 48 -32t41 -59t35 -67t28 -58q0 -2 6 -13t12 -23l12 -24t8 -14q4 -8 16 -33t14 -33l368 -638q2 -14 4 -20t5 -10t8 -10t13 -18q6 -12 22 -41t33 -61t33 -61t22 -41l10 8v94v150q2 120 0 240 t-2 240q0 12 -1 61t-1 106t1 107t1 62q0 10 -1 37t-2 58t-1 58v37q102 0 199 -8t199 -4q10 -2 10 -9v-11q4 -102 3 -206t-11 -206q0 -22 2 -78t3 -118t3 -118t2 -78q2 -40 4 -104t4 -127t4 -111t2 -54q0 -12 4 -63t7 -110t7 -110t4 -63v-18q0 -4 -3 -29t-5 -29v-8 q0 -6 -3 -28t-5 -47t-4 -48t-2 -29v-18q0 -6 -1 -16t-2 -21t-3 -19l-2 -8q-6 -10 -8 -10q-34 -14 -69 -11t-75 1q-72 -4 -144 -17t-142 -13q-52 0 -77 28t-51 68l-30 54t-46 83t-55 97t-55 97t-46 83l-30 54q-60 106 -113 208t-91 216h-4q-12 0 -18 -13t-6 -21v-4q2 -2 5 -9 t5 -11q-2 -122 13 -239t21 -239l14 -432q-4 0 -20 -4t-20 -4q-4 -2 -15 -2h-13q-10 0 -30 -2t-41 -4t-39 -3t-24 -1t-25 2t-42 3t-42 3t-25 2q-40 4 -70 0t-66 12q-6 0 -6 8q0 6 -1 19t-2 27t-2 26t-1 16v90q-8 -4 -9 43t0 121t4 163t5 169t1 140t-5 76q-2 14 -4 41l-4 54 t-4 49t-2 26zM466 2264q-2 2 5 8t15 14t16 14t10 10q10 26 40 35t52 21q22 10 45 14t47 4q30 0 51 -2t51 -8q32 -6 54 -35t44 -45q24 -20 59 -31t65 -11q42 0 68 31t60 59q4 -8 17 -18t28 -23t29 -27t20 -32q6 -16 -12 -44t-45 -55t-56 -49t-45 -28q-18 -6 -36 -7t-38 -1 q-30 0 -47 8t-41 8q-4 2 -23 11t-27 13q0 8 -8 8q-4 2 -13 4t-11 4t-11 9t-18 16t-17 16t-10 9q-8 6 -27 14t-23 10q-2 2 -17 2h-25q-40 0 -77 -16t-59 -50q-12 22 -28 47t-32 49z" />
<glyph unicode="&#xf2;" horiz-adv-x="1726" d="M114 954v30t1 35t1 31v16q0 6 2 23t5 36t7 36t6 23q26 106 60 211t84 199t120 176t168 142q2 0 10 4t10 4q66 24 131 43t137 19q74 0 137 -31t127 -59q2 -2 13 -7t23 -10t22 -10t14 -5q24 -12 53 -31t57 -42t54 -46t46 -41q6 -6 19 -18t26 -25l23 -23l12 -12q4 -4 15 -24 t15 -24q34 -62 57 -145t36 -170t17 -168t0 -135q0 -54 -9 -97t-19 -91q-2 -8 -8 -33t-13 -53l-13 -52t-8 -30q-28 -118 -93 -212t-147 -178q-10 -12 -30 -32t-41 -40t-38 -37t-21 -19q-74 -66 -165 -84t-187 -18q-58 0 -108 15t-102 35q-8 4 -24 10l-32 12t-29 11t-17 7 q-10 4 -26 12l-32 16t-28 15t-14 9q-6 4 -21 18t-33 31t-34 34t-24 25q-2 2 -9 13t-17 26t-19 29t-15 22q-22 38 -35 78t-25 80q-10 42 -25 73t-25 77q-16 78 -19 162t-3 164zM486 892q0 -50 3 -114t15 -129t34 -123t60 -98l22 -22l33 -33t33 -32t22 -21q30 -22 69 -27 t75 -5q32 0 54 1t54 11q8 4 28 17t43 27t43 26t26 18q6 4 26 23t24 29q2 4 5 15t5 13q46 106 84 211t38 223q0 54 -8 106t-22 108q-14 52 -28 99t-34 90t-48 82t-70 75q-22 18 -35 23t-37 17q-4 8 -26 19t-50 18t-55 9t-41 -6q-2 -2 -14 -5t-14 -5q-40 -16 -79 -37t-63 -61 q-4 -6 -13 -22t-20 -35l-22 -38t-15 -27q-2 -2 -6 -9t-4 -9q-4 -8 -12 -29t-17 -45t-18 -46t-13 -30q-24 -58 -28 -124t-4 -128zM518 2408l10 4q6 2 19 9t27 16t26 18t16 15h4q10 2 20 3t6 5q4 0 8 -2l8 -4l6 -6q2 -2 29 -22t68 -49t91 -64t96 -67t85 -59t57 -39 q-26 -28 -50 -52t-28 -34q-38 10 -71 29t-63 37q-4 2 -18 10t-29 17t-29 18t-20 13q-4 4 -18 13t-16 11q-2 0 -8 5t-12 11t-12 10t-6 2q-4 4 -21 15t-35 22t-34 20t-20 13q-16 10 -21 14t-7 7t-6 8t-18 17q-10 10 -19 15t-15 21z" />
<glyph unicode="&#xf3;" horiz-adv-x="1726" d="M114 954v30t1 35t1 31v16q0 6 2 23t5 36t7 36t6 23q26 106 60 211t84 199t120 176t168 142q2 0 10 4t10 4q66 24 131 43t137 19q74 0 137 -31t127 -59q2 -2 13 -7t23 -10t22 -10t14 -5q24 -12 53 -31t57 -42t54 -46t46 -41q6 -6 19 -18t26 -25l23 -23l12 -12q4 -4 15 -24 t15 -24q34 -62 57 -145t36 -170t17 -168t0 -135q0 -54 -9 -97t-19 -91q-2 -8 -8 -33t-13 -53l-13 -52t-8 -30q-28 -118 -93 -212t-147 -178q-10 -12 -30 -32t-41 -40t-38 -37t-21 -19q-74 -66 -165 -84t-187 -18q-58 0 -108 15t-102 35q-8 4 -24 10l-32 12t-29 11t-17 7 q-10 4 -26 12l-32 16t-28 15t-14 9q-6 4 -21 18t-33 31t-34 34t-24 25q-2 2 -9 13t-17 26t-19 29t-15 22q-22 38 -35 78t-25 80q-10 42 -25 73t-25 77q-16 78 -19 162t-3 164zM486 892q0 -50 3 -114t15 -129t34 -123t60 -98l22 -22l33 -33t33 -32t22 -21q30 -22 69 -27 t75 -5q32 0 54 1t54 11q8 4 28 17t43 27t43 26t26 18q6 4 26 23t24 29q2 4 5 15t5 13q46 106 84 211t38 223q0 54 -8 106t-22 108q-14 52 -28 99t-34 90t-48 82t-70 75q-22 18 -35 23t-37 17q-4 8 -26 19t-50 18t-55 9t-41 -6q-2 -2 -14 -5t-14 -5q-40 -16 -79 -37t-63 -61 q-4 -6 -13 -22t-20 -35l-22 -38t-15 -27q-2 -2 -6 -9t-4 -9q-4 -8 -12 -29t-17 -45t-18 -46t-13 -30q-24 -58 -28 -124t-4 -128zM602 2134l4 8l44 36q18 16 36 31l30 25q50 36 85 64t66 55t65 57t82 68l6 -4q30 -28 61 -39t33 -33q0 -12 -27 -43t-66 -69t-83 -78t-76 -70 q-10 -12 -25 -27t-30 -29t-26 -22l-11 -8z" />
<glyph unicode="&#xf4;" horiz-adv-x="1736" d="M114 954v30t1 35t1 31v16q0 6 2 23t5 36t7 36t6 23q26 106 60 211t84 199t120 176t168 142q2 0 10 4t10 4q66 24 131 43t137 19q74 0 137 -31t127 -59q2 -2 13 -7t23 -10t22 -10t14 -5q24 -12 53 -31t57 -42t54 -46t46 -41q6 -6 19 -18t26 -25l23 -23l12 -12q4 -4 15 -24 t15 -24q34 -62 57 -145t36 -170t17 -168t0 -135q0 -54 -9 -97t-19 -91q-2 -8 -8 -33t-13 -53l-13 -52t-8 -30q-28 -118 -93 -212t-147 -178q-10 -12 -30 -32t-41 -40t-38 -37t-21 -19q-74 -66 -165 -84t-187 -18q-58 0 -108 15t-102 35q-8 4 -24 10l-32 12t-29 11t-17 7 q-10 4 -26 12l-32 16t-28 15t-14 9q-6 4 -21 18t-33 31t-34 34t-24 25q-2 2 -9 13t-17 26t-19 29t-15 22q-22 38 -35 78t-25 80q-10 42 -25 73t-25 77q-16 78 -19 162t-3 164zM486 892q0 -50 3 -114t15 -129t34 -123t60 -98l22 -22l33 -33t33 -32t22 -21q30 -22 69 -27 t75 -5q32 0 54 1t54 11q8 4 28 17t43 27t43 26t26 18q6 4 26 23t24 29q2 4 5 15t5 13q46 106 84 211t38 223q0 54 -8 106t-22 108q-14 52 -28 99t-34 90t-48 82t-70 75q-22 18 -35 23t-37 17q-4 8 -26 19t-50 18t-55 9t-41 -6q-2 -2 -14 -5t-14 -5q-40 -16 -79 -37t-63 -61 q-4 -6 -13 -22t-20 -35l-22 -38t-15 -27q-2 -2 -6 -9t-4 -9q-4 -8 -12 -29t-17 -45t-18 -46t-13 -30q-24 -58 -28 -124t-4 -128zM522 2050v8l7 16t16 38t19 44t16 34q58 108 109 211t103 211h8q24 -34 74 -96t106 -135t109 -152t85 -147q-24 -4 -37 -6t-24 -2t-25 1t-40 1 h-52l-16 8q-2 6 -11 19t-18 28t-18 28t-11 19q-4 8 -19 33t-32 51t-33 47t-24 21q-12 0 -17 -10t-5 -22q-2 -6 -8 -22t-13 -34t-14 -34t-9 -20q-4 -16 -10 -39t-13 -45t-13 -37l-6 -15z" />
<glyph unicode="&#xf5;" horiz-adv-x="1742" d="M114 954v30t1 35t1 31v16q0 6 2 23t5 36t7 36t6 23q26 106 60 211t84 199t120 176t168 142q2 0 10 4t10 4q66 24 131 43t137 19q74 0 137 -31t127 -59q2 -2 13 -7t23 -10t22 -10t14 -5q24 -12 53 -31t57 -42t54 -46t46 -41q6 -6 19 -18t26 -25l23 -23l12 -12q4 -4 15 -24 t15 -24q34 -62 57 -145t36 -170t17 -168t0 -135q0 -54 -9 -97t-19 -91q-2 -8 -8 -33t-13 -53l-13 -52t-8 -30q-28 -118 -93 -212t-147 -178q-10 -12 -30 -32t-41 -40t-38 -37t-21 -19q-74 -66 -165 -84t-187 -18q-58 0 -108 15t-102 35q-8 4 -24 10l-32 12t-29 11t-17 7 q-10 4 -26 12l-32 16t-28 15t-14 9q-6 4 -21 18t-33 31t-34 34t-24 25q-2 2 -9 13t-17 26t-19 29t-15 22q-22 38 -35 78t-25 80q-10 42 -25 73t-25 77q-16 78 -19 162t-3 164zM428 2264q-2 2 5 8t15 14t16 14t10 10q10 26 40 35t52 21q22 10 45 14t47 4q30 0 51 -2t51 -8 q32 -6 54 -35t44 -45q24 -20 59 -31t65 -11q42 0 68 31t60 59q4 -8 17 -18t28 -23t29 -27t20 -32q6 -16 -12 -44t-45 -55t-56 -49t-45 -28q-18 -6 -36 -7t-38 -1q-30 0 -47 8t-41 8q-4 2 -23 11t-27 13q0 8 -8 8q-4 2 -13 4t-11 4t-11 9t-18 16t-17 16t-10 9q-8 6 -27 14 t-23 10q-2 2 -17 2h-25q-40 0 -77 -16t-59 -50q-12 22 -28 47t-32 49zM486 892q0 -50 3 -114t15 -129t34 -123t60 -98l22 -22l33 -33t33 -32t22 -21q30 -22 69 -27t75 -5q32 0 54 1t54 11q8 4 28 17t43 27t43 26t26 18q6 4 26 23t24 29q2 4 5 15t5 13q46 106 84 211t38 223 q0 54 -8 106t-22 108q-14 52 -28 99t-34 90t-48 82t-70 75q-22 18 -35 23t-37 17q-4 8 -26 19t-50 18t-55 9t-41 -6q-2 -2 -14 -5t-14 -5q-40 -16 -79 -37t-63 -61q-4 -6 -13 -22t-20 -35l-22 -38t-15 -27q-2 -2 -6 -9t-4 -9q-4 -8 -12 -29t-17 -45t-18 -46t-13 -30 q-24 -58 -28 -124t-4 -128z" />
<glyph unicode="&#xf6;" horiz-adv-x="1758" d="M114 954v30t1 35t1 31v16q0 6 2 23t5 36t7 36t6 23q26 106 60 211t84 199t120 176t168 142q2 0 10 4t10 4q66 24 131 43t137 19q74 0 137 -31t127 -59q2 -2 13 -7t23 -10t22 -10t14 -5q24 -12 53 -31t57 -42t54 -46t46 -41q6 -6 19 -18t26 -25l23 -23l12 -12q4 -4 15 -24 t15 -24q34 -62 57 -145t36 -170t17 -168t0 -135q0 -54 -9 -97t-19 -91q-2 -8 -8 -33t-13 -53l-13 -52t-8 -30q-28 -118 -93 -212t-147 -178q-10 -12 -30 -32t-41 -40t-38 -37t-21 -19q-74 -66 -165 -84t-187 -18q-58 0 -108 15t-102 35q-8 4 -24 10l-32 12t-29 11t-17 7 q-10 4 -26 12l-32 16t-28 15t-14 9q-6 4 -21 18t-33 31t-34 34t-24 25q-2 2 -9 13t-17 26t-19 29t-15 22q-22 38 -35 78t-25 80q-10 42 -25 73t-25 77q-16 78 -19 162t-3 164zM398 2218v20q0 8 2 14q0 4 9 22t13 28q16 26 42 56t62 30q30 0 62 -13t59 -34t45 -48t18 -57 q0 -4 -1 -9t-1 -7q-6 -40 -14 -71t-24 -54t-43 -35t-71 -12q-72 0 -115 50t-43 120zM486 892q0 -50 3 -114t15 -129t34 -123t60 -98l22 -22l33 -33t33 -32t22 -21q30 -22 69 -27t75 -5q32 0 54 1t54 11q8 4 28 17t43 27t43 26t26 18q6 4 26 23t24 29q2 4 5 15t5 13 q46 106 84 211t38 223q0 54 -8 106t-22 108q-14 52 -28 99t-34 90t-48 82t-70 75q-22 18 -35 23t-37 17q-4 8 -26 19t-50 18t-55 9t-41 -6q-2 -2 -14 -5t-14 -5q-40 -16 -79 -37t-63 -61q-4 -6 -13 -22t-20 -35l-22 -38t-15 -27q-2 -2 -6 -9t-4 -9q-4 -8 -12 -29t-17 -45 t-18 -46t-13 -30q-24 -58 -28 -124t-4 -128zM906 2216v20q0 8 2 16q0 4 9 21t13 27q16 26 42 57t62 31q30 0 62 -13t59 -34t45 -49t18 -58q0 -4 -1 -9t-1 -7q-6 -40 -14 -71t-24 -54t-43 -35t-71 -12q-72 0 -115 50t-43 120z" />
<glyph unicode="&#xf7;" horiz-adv-x="1312" d="M237 1092q1 26 1 36q212 12 416 5t416 -17v-8q0 -4 1 -28t-1 -28q0 -6 -1 -24t-2 -40t-3 -40t-2 -24q-2 -16 -7 -31t-21 -23h-28t-41 -1t-40 -1h-27q-136 -6 -270 -7t-272 5q-6 0 -18 1t-26 2t-26 2t-18 1q-6 4 -11 14l-7 14q-10 46 -11 81t-1 79q-2 6 -1 32zM444 394 q0 38 15 79t42 76t64 58t79 23q46 0 80 -16t70 -40t62 -50t26 -78v-8q-10 -34 -28 -79t-45 -86t-61 -70t-76 -29q-32 0 -62 10t-58 22q-58 22 -83 76t-25 112zM516 1496v34q2 6 8 22t15 35t17 36t14 25q14 26 50 54t70 30q48 2 85 -29t67 -63q16 -16 18 -39t4 -43 q2 -54 -34 -104t-76 -82q-20 -8 -42 -15t-44 -7q-76 -4 -112 35t-40 111z" />
<glyph unicode="&#xf8;" d="M114 954v30t1 35t1 31v16q0 6 2 23t5 36t7 36t6 23q26 106 60 211t84 199t120 176t168 142q2 0 10 4t10 4q66 24 131 43t137 19q74 0 137 -31t127 -59q2 -2 13 -7t23 -10t22 -10t14 -5q24 -12 53 -31t57 -42t54 -46t46 -41q6 -6 19 -18t26 -25l23 -23l12 -12q4 -4 15 -24 t15 -24q34 -62 57 -145t36 -170t17 -168t0 -135q0 -54 -9 -97t-19 -91q-2 -8 -8 -33t-13 -53l-13 -52t-8 -30q-28 -118 -93 -212t-147 -178q-10 -12 -30 -32t-41 -40t-38 -37t-21 -19q-74 -66 -165 -84t-187 -18q-58 0 -108 15t-102 35q-8 4 -24 10l-32 12t-29 11t-17 7 q-10 4 -26 12l-32 16t-28 15t-14 9q-6 4 -21 18t-33 31t-34 34t-24 25q-2 2 -9 13t-17 26t-19 29t-15 22q-22 38 -35 78t-25 80q-10 42 -25 73t-25 77q-16 78 -19 162t-3 164zM308 28v10q4 14 17 50t27 76t27 76t19 50q68 172 138 341t142 338t144 342t148 353v10q2 6 6 19 t6 17t6 16l9 27t9 28t6 17t8 25t12 45t12 46t8 28q4 10 11 27t9 19h12l70 8q4 0 15 -1t24 -3t24 -3t17 -1q20 -4 50 -9t59 -10t50 -10l21 -5v-28l-292 -694q-16 -58 -37 -103t-43 -103q-2 -8 -14 -42t-25 -73t-26 -73t-15 -42q-16 -38 -29 -65t-31 -65q-8 -18 -23 -54 t-31 -74t-29 -71t-19 -43q-2 -8 -12 -36t-22 -61t-23 -61t-13 -36q-2 -4 -10 -21t-16 -38t-15 -39t-9 -22q-4 -8 -7 -21t-8 -28t-11 -28t-14 -19q-76 4 -148 -3t-144 -7q-14 0 -27 1t-13 23zM486 892q0 -50 3 -114t15 -129t34 -123t60 -98l22 -22l33 -33t33 -32t22 -21 q30 -22 69 -27t75 -5q32 0 54 1t54 11q8 4 28 17t43 27t43 26t26 18q6 4 26 23t24 29q2 4 5 15t5 13q46 106 84 211t38 223q0 54 -8 106t-22 108q-14 52 -28 99t-34 90t-48 82t-70 75q-22 18 -35 23t-37 17q-4 8 -26 19t-50 18t-55 9t-41 -6q-2 -2 -14 -5t-14 -5 q-40 -16 -79 -37t-63 -61q-4 -6 -13 -22t-20 -35l-22 -38t-15 -27q-2 -2 -6 -9t-4 -9q-4 -8 -12 -29t-17 -45t-18 -46t-13 -30q-24 -58 -28 -124t-4 -128z" />
<glyph unicode="&#xf9;" horiz-adv-x="1748" d="M120 1473v81v108q2 28 3 64t4 73t6 73t7 66q2 0 -1 18t1 18q4 4 24 1t24 1q2 0 25 3t33 5h20q8 0 39 -1t67 -3t68 -3t40 -1q10 -2 17 -1t11 -11q2 -2 5 -17t5 -19q0 -24 -1 -85t-1 -130t1 -131t1 -86q0 -12 1 -56t3 -96t4 -96t2 -56q4 -90 12 -168t26 -166 q12 -58 26 -104t35 -86t53 -75t80 -71q40 -28 72 -44t78 -16t84 18t76 42q40 26 65 74t38 103t18 110t5 95q0 78 -1 168t-9 166q-4 42 -4 105v109q0 36 -1 62t-3 51t-2 52t2 63v22v39v40v23q0 10 2 36t3 55t3 54t2 35q14 8 25 5t27 -3h26q4 -2 28 -2h30h96q4 0 29 -4t29 -4 q6 0 19 -1t29 -1t30 1t20 1q2 -8 4 -29t5 -43t6 -43t5 -29q0 -14 2 -53t5 -93t6 -113t6 -113t6 -94t3 -52q0 -4 2 -16t3 -26t3 -27t2 -15v-24t1 -46t1 -52v-42v-41t-1 -49t-1 -42v-20q0 -12 -3 -43t-6 -66t-6 -66t-5 -45l-8 -48t-14 -79t-16 -82t-12 -57q-12 -46 -39 -100 t-63 -102t-80 -87t-92 -55q-60 -28 -110 -44t-102 -24t-110 -9t-134 -1h-112q-4 2 -15 5t-15 5q-4 0 -18 3t-30 7t-31 7t-17 3q-102 24 -176 84t-144 136q-6 20 -22 34t-26 32q-22 42 -33 64t-15 52q-4 8 -7 23l-6 30t-5 27t-2 14l-28 474v388q-12 38 -12 79zM456 2444l10 4 q6 2 19 9t27 16t26 18t16 15h4q10 2 20 3t6 5q4 0 8 -2l8 -4l6 -6q2 -2 29 -22t68 -49t91 -64t96 -67t85 -59t57 -39q-26 -28 -50 -52t-28 -34q-38 10 -71 29t-63 37q-4 2 -18 10t-29 17t-29 18t-20 13q-4 4 -18 13t-16 11q-2 0 -8 5t-12 11t-12 10t-6 2q-4 4 -21 15t-35 22 t-34 20t-20 13q-16 10 -21 14t-7 7t-6 8t-18 17q-10 10 -19 15t-15 21z" />
<glyph unicode="&#xfa;" horiz-adv-x="1764" d="M120 1473v81v108q2 28 3 64t4 73t6 73t7 66q2 0 -1 18t1 18q4 4 24 1t24 1q2 0 25 3t33 5h20q8 0 39 -1t67 -3t68 -3t40 -1q10 -2 17 -1t11 -11q2 -2 5 -17t5 -19q0 -24 -1 -85t-1 -130t1 -131t1 -86q0 -12 1 -56t3 -96t4 -96t2 -56q4 -90 12 -168t26 -166 q12 -58 26 -104t35 -86t53 -75t80 -71q40 -28 72 -44t78 -16t84 18t76 42q40 26 65 74t38 103t18 110t5 95q0 78 -1 168t-9 166q-4 42 -4 105v109q0 36 -1 62t-3 51t-2 52t2 63v22v39v40v23q0 10 2 36t3 55t3 54t2 35q14 8 25 5t27 -3h26q4 -2 28 -2h30h96q4 0 29 -4t29 -4 q6 0 19 -1t29 -1t30 1t20 1q2 -8 4 -29t5 -43t6 -43t5 -29q0 -14 2 -53t5 -93t6 -113t6 -113t6 -94t3 -52q0 -4 2 -16t3 -26t3 -27t2 -15v-24t1 -46t1 -52v-42v-41t-1 -49t-1 -42v-20q0 -12 -3 -43t-6 -66t-6 -66t-5 -45l-8 -48t-14 -79t-16 -82t-12 -57q-12 -46 -39 -100 t-63 -102t-80 -87t-92 -55q-60 -28 -110 -44t-102 -24t-110 -9t-134 -1h-112q-4 2 -15 5t-15 5q-4 0 -18 3t-30 7t-31 7t-17 3q-102 24 -176 84t-144 136q-6 20 -22 34t-26 32q-22 42 -33 64t-15 52q-4 8 -7 23l-6 30t-5 27t-2 14l-28 474v388q-12 38 -12 79zM466 2108l4 8 l44 36q18 16 36 31l30 25q50 36 85 64t66 55t65 57t82 68l6 -4q30 -28 61 -39t33 -33q0 -12 -27 -43t-66 -69t-83 -78t-76 -70q-10 -12 -25 -27t-30 -29t-26 -22l-11 -8z" />
<glyph unicode="&#xfb;" horiz-adv-x="1748" d="M120 1473v81v108q2 28 3 64t4 73t6 73t7 66q2 0 -1 18t1 18q4 4 24 1t24 1q2 0 25 3t33 5h20q8 0 39 -1t67 -3t68 -3t40 -1q10 -2 17 -1t11 -11q2 -2 5 -17t5 -19q0 -24 -1 -85t-1 -130t1 -131t1 -86q0 -12 1 -56t3 -96t4 -96t2 -56q4 -90 12 -168t26 -166 q12 -58 26 -104t35 -86t53 -75t80 -71q40 -28 72 -44t78 -16t84 18t76 42q40 26 65 74t38 103t18 110t5 95q0 78 -1 168t-9 166q-4 42 -4 105v109q0 36 -1 62t-3 51t-2 52t2 63v22v39v40v23q0 10 2 36t3 55t3 54t2 35q14 8 25 5t27 -3h26q4 -2 28 -2h30h96q4 0 29 -4t29 -4 q6 0 19 -1t29 -1t30 1t20 1q2 -8 4 -29t5 -43t6 -43t5 -29q0 -14 2 -53t5 -93t6 -113t6 -113t6 -94t3 -52q0 -4 2 -16t3 -26t3 -27t2 -15v-24t1 -46t1 -52v-42v-41t-1 -49t-1 -42v-20q0 -12 -3 -43t-6 -66t-6 -66t-5 -45l-8 -48t-14 -79t-16 -82t-12 -57q-12 -46 -39 -100 t-63 -102t-80 -87t-92 -55q-60 -28 -110 -44t-102 -24t-110 -9t-134 -1h-112q-4 2 -15 5t-15 5q-4 0 -18 3t-30 7t-31 7t-17 3q-102 24 -176 84t-144 136q-6 20 -22 34t-26 32q-22 42 -33 64t-15 52q-4 8 -7 23l-6 30t-5 27t-2 14l-28 474v388q-12 38 -12 79zM434 2056v8 l7 16t16 38t19 44t16 34q58 108 109 211t103 211h8q24 -34 74 -96t106 -135t109 -152t85 -147q-24 -4 -37 -6t-24 -2t-25 1t-40 1h-52l-16 8q-2 6 -11 19t-18 28t-18 28t-11 19q-4 8 -19 33t-32 51t-33 47t-24 21q-12 0 -17 -10t-5 -22q-2 -6 -8 -22t-13 -34t-14 -34t-9 -20 q-4 -16 -10 -39t-13 -45t-13 -37l-6 -15z" />
<glyph unicode="&#xfc;" horiz-adv-x="1736" d="M120 1473v81v108q2 28 3 64t4 73t6 73t7 66q2 0 -1 18t1 18q4 4 24 1t24 1q2 0 25 3t33 5h20q8 0 39 -1t67 -3t68 -3t40 -1q10 -2 17 -1t11 -11q2 -2 5 -17t5 -19q0 -24 -1 -85t-1 -130t1 -131t1 -86q0 -12 1 -56t3 -96t4 -96t2 -56q4 -90 12 -168t26 -166 q12 -58 26 -104t35 -86t53 -75t80 -71q40 -28 72 -44t78 -16t84 18t76 42q40 26 65 74t38 103t18 110t5 95q0 78 -1 168t-9 166q-4 42 -4 105v109q0 36 -1 62t-3 51t-2 52t2 63v22v39v40v23q0 10 2 36t3 55t3 54t2 35q14 8 25 5t27 -3h26q4 -2 28 -2h30h96q4 0 29 -4t29 -4 q6 0 19 -1t29 -1t30 1t20 1q2 -8 4 -29t5 -43t6 -43t5 -29q0 -14 2 -53t5 -93t6 -113t6 -113t6 -94t3 -52q0 -4 2 -16t3 -26t3 -27t2 -15v-24t1 -46t1 -52v-42v-41t-1 -49t-1 -42v-20q0 -12 -3 -43t-6 -66t-6 -66t-5 -45l-8 -48t-14 -79t-16 -82t-12 -57q-12 -46 -39 -100 t-63 -102t-80 -87t-92 -55q-60 -28 -110 -44t-102 -24t-110 -9t-134 -1h-112q-4 2 -15 5t-15 5q-4 0 -18 3t-30 7t-31 7t-17 3q-102 24 -176 84t-144 136q-6 20 -22 34t-26 32q-22 42 -33 64t-15 52q-4 8 -7 23l-6 30t-5 27t-2 14l-28 474v388q-12 38 -12 79zM318 2240v20 q0 8 2 14q0 4 9 22t13 28q16 26 42 56t62 30q30 0 62 -13t59 -34t45 -48t18 -57q0 -4 -1 -9t-1 -7q-6 -40 -14 -71t-24 -54t-43 -35t-71 -12q-72 0 -115 50t-43 120zM826 2238v20q0 8 2 16q0 4 9 21t13 27q16 26 42 57t62 31q30 0 62 -13t59 -34t45 -49t18 -58q0 -4 -1 -9 t-1 -7q-6 -40 -14 -71t-24 -54t-43 -35t-71 -12q-72 0 -115 50t-43 120z" />
<glyph unicode="&#xfd;" horiz-adv-x="1638" d="M108 1944l2 4q0 2 5 5t7 3q10 2 43 3t43 1q4 0 17 -1t27 -2t27 -2t17 -1h118q18 2 32 6q12 4 23 5t13 1q14 0 28 -2t24 -12q20 -16 37 -40t31 -51t26 -54t26 -49q22 -34 38 -70t31 -72t31 -72t40 -68q20 -24 31 -38t18 -22t11 -11t8 -3h6q0 2 4 5t4 5q10 -4 6 8 q8 14 17 35t17 43t15 41t11 25q8 12 17 37t19 53t21 54t21 40l20 46q20 40 37 70t43 62l6 6q2 2 4 2q4 0 18 1t18 -3q34 14 84 20t104 6t106 -3t90 -5q-2 -16 -4 -22t-12 -20q-74 -108 -152 -235t-144 -239q-22 -34 -32 -69t-19 -70t-19 -70t-28 -71q-20 -20 -16 -46t0 -40 q0 -4 -2 -17t-3 -28t-2 -28t-1 -17q0 -8 -1 -23t-3 -30t-3 -26t-1 -13q-2 -22 -4 -69t-5 -98t-5 -95t-2 -58v-16t1 -27t1 -28v-17q0 -12 -1 -61t-2 -105t-2 -105t-1 -61q0 -2 1 -12t2 -21t2 -21t1 -12t-1 -17t-3 -23q0 -4 -1 -19t-1 -19h-90h-106h-105t-89 4q-6 0 -19 1 t-29 2t-29 3t-19 2l12 66v24t1 34t1 34v26v8q0 4 1 6t1 4q0 22 2 69t3 107t4 125t4 125t3 107t2 69q-4 6 -5 25t-3 25q0 2 1 10t1 10q0 4 -3 28t-3 28l6 70q-10 24 -5 36t3 40q0 2 -4 6l-6 6q-44 38 -80 89t-66 107t-58 113t-56 109q-30 62 -69 118t-67 116q-2 4 -8 25 t-8 25q-6 12 -22 32t-33 40t-30 39t-13 29zM600 2130l4 8l44 36q18 16 36 31l30 25q50 36 85 64t66 55t65 57t82 68l6 -4q30 -28 61 -39t33 -33q0 -12 -27 -43t-66 -69t-83 -78t-76 -70q-10 -12 -25 -27t-30 -29t-26 -22l-11 -8z" />
<glyph unicode="&#xfe;" horiz-adv-x="1716" d="M119 451q-1 169 3 339q0 102 8 203l16 202t14 201t0 200q-2 18 -4 62t-5 93t-5 94t-2 63v10q-14 28 22 42t94 20t124 10t112 14q10 0 17 -51t14 -112t14 -111t17 -50q120 12 216 14t178 -7t158 -30t158 -57q6 -4 24 -15t24 -15q8 -6 30 -22t45 -35t43 -36t28 -23 q82 -70 114 -144t32 -180q0 -156 -75 -274t-187 -216q-4 -2 -15 -8t-24 -12t-24 -11t-15 -7q-4 -4 -14 -7t-14 -5l-68 -20q-54 -20 -120 -19t-122 1q-36 -8 -84 -8t-112 -2q-12 -6 -33 -8t-40 -2t-34 -2t-17 -8q-4 -22 -6 -71t-5 -102t-5 -97t-2 -56v-18v-30v-31v-19 q-2 -22 -19 -34t-39 -19t-46 -9t-40 -4q-4 0 -21 -2t-37 -3t-37 -3t-21 -2q-44 -4 -80 -12t-82 -8h-34l-8 10q0 18 2 36q0 16 1 32t-1 32q-10 170 -11 339zM638 940q-2 -16 4 -31t17 -26t26 -15t31 4h31h55h56h32q34 0 78 5t88 17t83 33t61 51t26 62t4 66v38t-10 38 q-10 20 -29 45t-44 49t-52 41t-49 21q-2 0 -13 2t-24 3t-25 3t-14 2q-76 12 -147 5t-147 3h-4h-4q-2 0 -2 2q-2 0 -2 -1t-2 -1h-4q-4 -2 -7 -8t-3 -10q4 -104 2 -200t-12 -198z" />
<glyph unicode="&#xff;" horiz-adv-x="1658" d="M108 1944l2 4q0 2 5 5t7 3q10 2 43 3t43 1q4 0 17 -1t27 -2t27 -2t17 -1h118q18 2 32 6q12 4 23 5t13 1q14 0 28 -2t24 -12q20 -16 37 -40t31 -51t26 -54t26 -49q22 -34 38 -70t31 -72t31 -72t40 -68q20 -24 31 -38t18 -22t11 -11t8 -3h6q0 2 4 5t4 5q10 -4 6 8 q8 14 17 35t17 43t15 41t11 25q8 12 17 37t19 53t21 54t21 40l20 46q20 40 37 70t43 62l6 6q2 2 4 2q4 0 18 1t18 -3q34 14 84 20t104 6t106 -3t90 -5q-2 -16 -4 -22t-12 -20q-74 -108 -152 -235t-144 -239q-22 -34 -32 -69t-19 -70t-19 -70t-28 -71q-20 -20 -16 -46t0 -40 q0 -4 -2 -17t-3 -28t-2 -28t-1 -17q0 -8 -1 -23t-3 -30t-3 -26t-1 -13q-2 -22 -4 -69t-5 -98t-5 -95t-2 -58v-16t1 -27t1 -28v-17q0 -12 -1 -61t-2 -105t-2 -105t-1 -61q0 -2 1 -12t2 -21t2 -21t1 -12t-1 -17t-3 -23q0 -4 -1 -19t-1 -19h-90h-106h-105t-89 4q-6 0 -19 1 t-29 2t-29 3t-19 2l12 66v24t1 34t1 34v26v8q0 4 1 6t1 4q0 22 2 69t3 107t4 125t4 125t3 107t2 69q-4 6 -5 25t-3 25q0 2 1 10t1 10q0 4 -3 28t-3 28l6 70q-10 24 -5 36t3 40q0 2 -4 6l-6 6q-44 38 -80 89t-66 107t-58 113t-56 109q-30 62 -69 118t-67 116q-2 4 -8 25 t-8 25q-6 12 -22 32t-33 40t-30 39t-13 29zM454 2224v20q0 8 2 14q0 4 9 22t13 28q16 26 42 56t62 30q30 0 62 -13t59 -34t45 -48t18 -57q0 -4 -1 -9t-1 -7q-6 -40 -14 -71t-24 -54t-43 -35t-71 -12q-72 0 -115 50t-43 120zM962 2222v20q0 8 2 16q0 4 9 21t13 27 q16 26 42 57t62 31q30 0 62 -13t59 -34t45 -49t18 -58q0 -4 -1 -9t-1 -7q-6 -40 -14 -71t-24 -54t-43 -35t-71 -12q-72 0 -115 50t-43 120z" />
<glyph unicode="&#x152;" horiz-adv-x="2330" d="M150 948v30t1 35t1 31v16q0 6 2 23t5 36t7 36t6 23q26 106 60 211t84 199t120 176t168 142q2 0 10 4t10 4q50 16 107 26t111 16v2h94v-4h16h18t24 -1t21 -1h11t12 -2t22 -3t22 -3t14 -2h116q14 0 64 -1t107 -3t107 -3t62 -1q24 0 83 -1t126 -1t126 1t83 1q16 -4 24 -17 t11 -30t4 -34t1 -29q0 -4 1 -19t3 -31t3 -30t1 -18v-16t1 -32t1 -37v-29v-23t-1 -35t-1 -34v-22q0 -2 -8 -6t-10 -6q-6 0 -19 -2t-27 -4t-26 -3t-14 -1h-468q-8 4 -30 7t-30 3l-10 2q-2 0 -2 -1t-2 -1h-4l-10 -48l-10 -306h14q18 0 30 2t34 8h280v-404q-84 -4 -173 -15 t-175 -5l-20 -20l16 -242q2 -10 18 -13t20 -3q20 0 35 2t37 8q150 -4 294 4t292 8h33t41 -1t35 -1h15l20 -18v-60q10 -116 4 -215t-34 -181q-6 2 -24 3t-38 3t-38 3t-24 1h-64h-108h-108h-64q-16 0 -76 3t-131 7t-132 7t-77 3h-126q-6 0 -34 2t-59 4t-59 3t-34 1h-48 q-2 0 -4 2h-60q-56 -4 -103 -5t-97 19q-8 4 -24 7l-32 6t-29 5t-17 4q-10 4 -26 12l-32 16t-28 15t-14 9q-6 4 -21 18t-33 31t-34 34t-24 25q-2 2 -9 13t-17 26t-19 29t-15 22q-22 38 -35 78t-25 80q-10 42 -25 73t-25 77q-16 78 -19 162t-3 164zM522 888q0 -50 3 -114 t15 -129t34 -123t60 -98l22 -22l33 -33t33 -32t22 -21q18 -16 36 -21t52 -7h62q-2 32 -2 63t-2 63q0 14 -1 66t-1 112v112v66q0 162 -1 278t-1 203v152v123h-56q-40 -16 -77 -37t-59 -59q-4 -6 -13 -22t-20 -35l-22 -38t-15 -27q-2 -2 -6 -9t-4 -9q-4 -8 -12 -29t-17 -45 t-18 -46t-13 -30q-24 -58 -28 -124t-4 -128z" />
<glyph unicode="&#x153;" horiz-adv-x="2324" d="M158 930v30t1 35t1 31v16q0 6 2 23t5 36t7 36t6 23q26 106 60 211t84 199t120 176t168 142q2 0 10 4t10 4q50 16 107 26t111 16v2h94v-4h16h18t24 -1t21 -1h11t12 -2t22 -3t22 -3t14 -2h116q14 0 64 -1t107 -3t107 -3t62 -1q24 0 83 -1t126 -1t126 1t83 1q16 -4 24 -17 t11 -30t4 -34t1 -29q0 -4 1 -19t3 -31t3 -30t1 -18v-16t1 -32t1 -37v-29v-23t-1 -35t-1 -34v-22q0 -2 -8 -6t-10 -6q-6 0 -19 -2t-27 -4t-26 -3t-14 -1h-468q-8 4 -30 7t-30 3l-10 2q-2 0 -2 -1t-2 -1h-4l-10 -48l-10 -306h14q18 0 30 2t34 8h280v-404q-84 -4 -173 -15 t-175 -5l-20 -20l16 -242q2 -10 18 -13t20 -3q20 0 35 2t37 8q150 -4 294 4t292 8h33t41 -1t35 -1h15l20 -18v-60q10 -116 4 -215t-34 -181q-6 2 -24 3t-38 3t-38 3t-24 1h-64h-108h-108h-64q-16 0 -76 3t-131 7t-132 7t-77 3h-126q-6 0 -34 2t-59 4t-59 3t-34 1h-48 q-2 0 -4 2h-60q-56 -4 -103 -5t-97 19q-8 4 -24 7l-32 6t-29 5t-17 4q-10 4 -26 12l-32 16t-28 15t-14 9q-6 4 -21 18t-33 31t-34 34t-24 25q-2 2 -9 13t-17 26t-19 29t-15 22q-22 38 -35 78t-25 80q-10 42 -25 73t-25 77q-16 78 -19 162t-3 164zM530 868q0 -50 3 -114 t15 -129t34 -123t60 -98l22 -22l33 -33t33 -32t22 -21q18 -16 36 -21t52 -7h62q-2 32 -2 63t-2 63q0 14 -1 66t-1 112v112v66q0 162 -1 278t-1 203v152v123h-56q-40 -16 -77 -37t-59 -59q-4 -6 -13 -22t-20 -35l-22 -38t-15 -27q-2 -2 -6 -9t-4 -9q-4 -8 -12 -29t-17 -45 t-18 -46t-13 -30q-24 -58 -28 -124t-4 -128z" />
<glyph unicode="&#x178;" horiz-adv-x="1658" d="M108 1944l2 4q0 2 5 5t7 3q10 2 43 3t43 1q4 0 17 -1t27 -2t27 -2t17 -1h118q18 2 32 6q12 4 23 5t13 1q14 0 28 -2t24 -12q20 -16 37 -40t31 -51t26 -54t26 -49q22 -34 38 -70t31 -72t31 -72t40 -68q20 -24 31 -38t18 -22t11 -11t8 -3h6q0 2 4 5t4 5q10 -4 6 8 q8 14 17 35t17 43t15 41t11 25q8 12 17 37t19 53t21 54t21 40l20 46q20 40 37 70t43 62l6 6q2 2 4 2q4 0 18 1t18 -3q34 14 84 20t104 6t106 -3t90 -5q-2 -16 -4 -22t-12 -20q-74 -108 -152 -235t-144 -239q-22 -34 -32 -69t-19 -70t-19 -70t-28 -71q-20 -20 -16 -46t0 -40 q0 -4 -2 -17t-3 -28t-2 -28t-1 -17q0 -8 -1 -23t-3 -30t-3 -26t-1 -13q-2 -22 -4 -69t-5 -98t-5 -95t-2 -58v-16t1 -27t1 -28v-17q0 -12 -1 -61t-2 -105t-2 -105t-1 -61q0 -2 1 -12t2 -21t2 -21t1 -12t-1 -17t-3 -23q0 -4 -1 -19t-1 -19h-90h-106h-105t-89 4q-6 0 -19 1 t-29 2t-29 3t-19 2l12 66v24t1 34t1 34v26v8q0 4 1 6t1 4q0 22 2 69t3 107t4 125t4 125t3 107t2 69q-4 6 -5 25t-3 25q0 2 1 10t1 10q0 4 -3 28t-3 28l6 70q-10 24 -5 36t3 40q0 2 -4 6l-6 6q-44 38 -80 89t-66 107t-58 113t-56 109q-30 62 -69 118t-67 116q-2 4 -8 25 t-8 25q-6 12 -22 32t-33 40t-30 39t-13 29zM454 2224v20q0 8 2 14q0 4 9 22t13 28q16 26 42 56t62 30q30 0 62 -13t59 -34t45 -48t18 -57q0 -4 -1 -9t-1 -7q-6 -40 -14 -71t-24 -54t-43 -35t-71 -12q-72 0 -115 50t-43 120zM962 2222v20q0 8 2 16q0 4 9 21t13 27 q16 26 42 57t62 31q30 0 62 -13t59 -34t45 -49t18 -58q0 -4 -1 -9t-1 -7q-6 -40 -14 -71t-24 -54t-43 -35t-71 -12q-72 0 -115 50t-43 120z" />
<glyph unicode="&#x2c6;" horiz-adv-x="1080" d="M210 2038v8l7 16t16 38t19 44t16 34q58 108 109 211t103 211h8q24 -34 74 -96t106 -135t109 -152t85 -147q-24 -4 -37 -6t-24 -2t-25 1t-40 1h-52l-16 8q-2 6 -11 19t-18 28t-18 28t-11 19q-4 8 -19 33t-32 51t-33 47t-24 21q-12 0 -17 -10t-5 -22q-2 -6 -8 -22t-13 -34 t-14 -34t-9 -20q-4 -16 -10 -39t-13 -45t-13 -37l-6 -15z" />
<glyph unicode="&#x2dc;" horiz-adv-x="1048" d="M134 2280q-2 2 5 8t15 14t16 14t10 10q10 26 40 35t52 21q22 10 45 14t47 4q30 0 51 -2t51 -8q32 -6 54 -35t44 -45q24 -20 59 -31t65 -11q42 0 68 31t60 59q4 -8 17 -18t28 -23t29 -27t20 -32q6 -16 -12 -44t-45 -55t-56 -49t-45 -28q-18 -6 -36 -7t-38 -1q-30 0 -47 8 t-41 8q-4 2 -23 11t-27 13q0 8 -8 8q-4 2 -13 4t-11 4t-11 9t-18 16t-17 16t-10 9q-8 6 -27 14t-23 10q-2 2 -17 2h-25q-40 0 -77 -16t-59 -50q-12 22 -28 47t-32 49z" />
<glyph unicode="&#x2000;" horiz-adv-x="1320" />
<glyph unicode="&#x2001;" horiz-adv-x="2640" />
<glyph unicode="&#x2002;" horiz-adv-x="1320" />
<glyph unicode="&#x2003;" horiz-adv-x="2640" />
<glyph unicode="&#x2004;" horiz-adv-x="880" />
<glyph unicode="&#x2005;" horiz-adv-x="660" />
<glyph unicode="&#x2006;" horiz-adv-x="440" />
<glyph unicode="&#x2007;" horiz-adv-x="440" />
<glyph unicode="&#x2008;" horiz-adv-x="330" />
<glyph unicode="&#x2009;" horiz-adv-x="528" />
<glyph unicode="&#x200a;" horiz-adv-x="146" />
<glyph unicode="&#x2010;" horiz-adv-x="1226" d="M187 764q1 26 1 36q212 12 416 5t416 -17v-8q0 -4 1 -28t-1 -28q0 -6 -1 -24t-2 -40t-3 -40t-2 -24q-2 -16 -7 -31t-21 -23h-28t-41 -1t-40 -1h-27q-136 -6 -270 -7t-272 5q-6 0 -18 1t-26 2t-26 2t-18 1q-6 4 -11 14l-7 14q-10 46 -11 81t-1 79q-2 6 -1 32z" />
<glyph unicode="&#x2011;" horiz-adv-x="1226" d="M187 764q1 26 1 36q212 12 416 5t416 -17v-8q0 -4 1 -28t-1 -28q0 -6 -1 -24t-2 -40t-3 -40t-2 -24q-2 -16 -7 -31t-21 -23h-28t-41 -1t-40 -1h-27q-136 -6 -270 -7t-272 5q-6 0 -18 1t-26 2t-26 2t-18 1q-6 4 -11 14l-7 14q-10 46 -11 81t-1 79q-2 6 -1 32z" />
<glyph unicode="&#x2012;" horiz-adv-x="1226" d="M187 764q1 26 1 36q212 12 416 5t416 -17v-8q0 -4 1 -28t-1 -28q0 -6 -1 -24t-2 -40t-3 -40t-2 -24q-2 -16 -7 -31t-21 -23h-28t-41 -1t-40 -1h-27q-136 -6 -270 -7t-272 5q-6 0 -18 1t-26 2t-26 2t-18 1q-6 4 -11 14l-7 14q-10 46 -11 81t-1 79q-2 6 -1 32z" />
<glyph unicode="&#x2013;" horiz-adv-x="1066" d="M195 1028q1 26 1 36q106 6 190 7t163 -2t163 -7t190 -10v-8q0 -4 1 -28t-1 -28q0 -6 -1 -24t-2 -40t-3 -40t-2 -24q-2 -16 -7 -31t-21 -23h-28t-41 -1t-40 -1h-27q-68 -4 -116 -5t-92 -2t-92 0t-116 5q-6 0 -18 1t-26 2t-26 2t-18 1q-6 4 -11 14l-7 14q-10 46 -11 81 t-1 79q-2 6 -1 32z" />
<glyph unicode="&#x2014;" horiz-adv-x="1352" d="M179 926q1 26 1 36q84 -6 207 -6h260t272 -1t243 -5v-8q0 -4 1 -28t-1 -28q0 -6 -1 -24t-2 -40t-3 -40t-2 -24q-2 -16 -7 -31t-21 -23h-28t-41 -1t-40 -1h-27q-68 -4 -159 -5t-187 -2t-187 0t-159 5q-6 0 -18 1t-26 2t-26 2t-18 1q-6 4 -11 14l-7 14q-10 46 -11 81t-1 79 q-2 6 -1 32z" />
<glyph unicode="&#x2018;" horiz-adv-x="724" d="M170 1546q0 44 12 96t36 100t59 86t79 54v-10q-60 -82 -60 -170q0 -6 1 -26t1 -26q4 -10 9 -11t11 -1q22 0 36 12t40 12q64 0 101 -47t37 -105q0 -82 -57 -137t-137 -55q-46 0 -78 20t-52 53t-29 74t-9 81z" />
<glyph unicode="&#x2019;" horiz-adv-x="678" d="M132 1754q0 82 57 137t137 55q46 0 78 -20t52 -53t29 -74t9 -81q0 -44 -12 -96t-36 -100t-59 -86t-79 -54v10q60 82 60 170q0 6 -1 26t-1 26q-4 10 -9 11t-11 1q-22 0 -36 -12t-40 -12q-64 0 -101 47t-37 105z" />
<glyph unicode="&#x201a;" horiz-adv-x="598" d="M112 242q0 82 57 137t137 55q46 0 78 -20t52 -53t29 -74t9 -81q0 -44 -12 -96t-36 -100t-59 -86t-79 -54v10q60 82 60 170q0 6 -1 26t-1 26q-4 10 -9 11t-11 1q-22 0 -36 -12t-40 -12q-64 0 -101 47t-37 105z" />
<glyph unicode="&#x201c;" horiz-adv-x="1370" d="M266 1548q0 44 12 96t36 100t59 86t79 54v-10q-60 -82 -60 -170q0 -6 1 -26t1 -26q4 -10 9 -11t11 -1q22 0 36 12t40 12q64 0 101 -47t37 -105q0 -82 -57 -137t-137 -55q-46 0 -78 20t-52 53t-29 74t-9 81zM758 1614q0 44 12 96t36 100t59 86t79 54v-10q-60 -82 -60 -170 q0 -6 1 -26t1 -26q4 -10 9 -11t11 -1q22 0 36 12t40 12q64 0 101 -47t37 -105q0 -82 -57 -137t-137 -55q-46 0 -78 20t-52 53t-29 74t-9 81z" />
<glyph unicode="&#x201d;" horiz-adv-x="1370" d="M278 1754q0 82 57 137t137 55q46 0 78 -20t52 -53t29 -74t9 -81q0 -44 -12 -96t-36 -100t-59 -86t-79 -54v10q60 82 60 170q0 6 -1 26t-1 26q-4 10 -9 11t-11 1q-22 0 -36 -12t-40 -12q-64 0 -101 47t-37 105zM780 1816q0 82 57 137t137 55q46 0 78 -20t52 -53t29 -74 t9 -81q0 -44 -12 -96t-36 -100t-59 -86t-79 -54v10q60 82 60 170q0 6 -1 26t-1 26q-4 10 -9 11t-11 1q-22 0 -36 -12t-40 -12q-64 0 -101 47t-37 105z" />
<glyph unicode="&#x201e;" horiz-adv-x="1182" d="M192 216q0 82 57 137t137 55q46 0 78 -20t52 -53t29 -74t9 -81q0 -44 -12 -96t-36 -100t-59 -86t-79 -54v10q60 82 60 170q0 6 -1 26t-1 26q-4 10 -9 11t-11 1q-22 0 -36 -12t-40 -12q-64 0 -101 47t-37 105zM670 216q0 82 57 137t137 55q46 0 78 -20t52 -53t29 -74 t9 -81q0 -44 -12 -96t-36 -100t-59 -86t-79 -54v10q60 82 60 170q0 6 -1 26t-1 26q-4 10 -9 11t-11 1q-22 0 -36 -12t-40 -12q-64 0 -101 47t-37 105z" />
<glyph unicode="&#x2026;" horiz-adv-x="2130" d="M172 190v24q0 8 2 18q0 4 11 27t17 33q20 32 51 69t75 37q36 0 75 -15t72 -41t55 -60t22 -70q0 -4 -1 -11t-1 -9q-8 -48 -17 -86t-28 -66t-52 -43t-87 -15q-44 0 -80 17t-61 45t-39 66t-14 80zM842 190v24q0 8 2 18q0 4 11 27t17 33q20 32 51 69t75 37q36 0 75 -15 t72 -41t55 -60t22 -70q0 -4 -1 -11t-1 -9q-8 -48 -17 -86t-28 -66t-52 -43t-87 -15q-44 0 -80 17t-61 45t-39 66t-14 80zM1512 190v24q0 8 2 18q0 4 11 27t17 33q20 32 51 69t75 37q36 0 75 -15t72 -41t55 -60t22 -70q0 -4 -1 -11t-1 -9q-8 -48 -17 -86t-28 -66t-52 -43 t-87 -15q-44 0 -80 17t-61 45t-39 66t-14 80z" />
<glyph unicode="&#x202f;" horiz-adv-x="528" />
<glyph unicode="&#x2039;" horiz-adv-x="1396" d="M164 670q30 28 62 47t65 35t66 31t67 37q196 122 380 244t370 262q6 -2 6 -45t-4 -98t-9 -109t-9 -78q-6 -30 -28 -52t-51 -40t-61 -32t-56 -28q-4 -2 -23 -13t-40 -23t-40 -23t-23 -13q-4 -4 -20 -11t-34 -14t-34 -13t-20 -8q-14 -10 -14 -22v-6v-4q22 -24 64 -33 t72 -19q64 -18 125 -42t125 -40q4 -2 28 -7t28 -5q2 0 12 -3t22 -7t23 -7t17 -3q4 -2 19 -7t17 -15q-2 -2 -1 -25t1 -35l-2 -8q-4 -10 -12 -50t-18 -86t-18 -85t-10 -49l-4 -24q-26 0 -41 8t-43 18q-60 20 -121 33t-117 41q-8 4 -36 20t-61 36t-62 36t-37 20q-2 2 -14 6 t-26 10t-27 10t-15 6q-6 4 -30 15t-34 15q-12 6 -38 21t-54 31t-52 30t-32 18q-50 32 -107 67t-91 85z" />
<glyph unicode="&#x203a;" horiz-adv-x="1456" d="M200 116v24q2 10 11 42t19 68t17 69t5 43v8q2 12 11 32t7 22q4 10 20 16t20 8q6 0 17 5t23 9t21 8t13 4l178 74q14 6 34 12t39 13t36 16t29 23q2 2 2 4v6q0 8 -1 12t-11 10q-4 2 -19 7l-33 11l-33 11t-19 9q-4 2 -22 12t-38 20l-38 19l-22 11q-24 12 -54 24t-58 29 t-49 38t-23 51q-2 24 -3 77t0 109t4 99t9 45q174 -128 348 -238t358 -218q32 -20 67 -37t68 -35t64 -39t53 -49q-50 -50 -116 -86t-124 -66q-10 -4 -38 -18t-60 -31t-62 -31t-42 -20q-12 -4 -39 -15t-35 -15q-4 -2 -18 -7t-29 -10t-28 -9t-15 -6q-10 -4 -44 -20t-72 -35 t-71 -36t-41 -19q-32 -16 -43 -20t-19 -4t-20 -1t-44 -11q-28 -8 -46 -17t-44 -7z" />
<glyph unicode="&#x205f;" horiz-adv-x="660" />
<glyph unicode="&#x20ac;" horiz-adv-x="1806" d="M137 820q1 26 1 36q26 2 58 3t68 1v32q0 48 7 97t19 95q-10 0 -18 1t-16 1q-6 0 -18 1t-26 2t-26 2t-18 1q-6 4 -11 14l-7 14q-10 46 -11 81t-1 79q-2 6 -1 32t1 36q48 4 114 5t142 3q30 54 64 103t70 99q2 4 6 11t4 11q26 46 66 82t80 66q158 118 334 168t368 44 q16 0 42 -3t30 -3q8 -2 31 -7t23 -21v-10l-28 -324q-36 4 -79 0t-87 -13t-86 -22t-74 -25q-76 -28 -146 -65t-132 -89q174 -2 326 -5t248 -7v-8q0 -4 1 -28t-1 -28q0 -6 -1 -24t-2 -40t-3 -40t-2 -24q-2 -16 -7 -31t-21 -23q-6 0 -52 -1t-114 -2t-145 -3t-144 -3t-114 -2 t-51 -1q-22 -2 -43 -3t-43 -1q-16 -56 -26 -112t-12 -106q110 0 223 -1t216 -2t191 -4t150 -5v-8q0 -4 1 -28t-1 -28q0 -6 -1 -24t-2 -40t-3 -40t-2 -24q-2 -16 -7 -31t-21 -23q-6 0 -52 -1t-114 -2t-145 -3t-144 -3t-114 -2t-51 -1l-60 -4q58 -94 152 -147t208 -57 q88 -2 176 9t172 33q26 10 56 22t54 26q22 -34 28 -79t16 -83q2 -10 9 -31t14 -43t13 -43t10 -33v-20l-60 -28q-90 -58 -198 -87t-216 -25q-58 2 -117 17t-115 31q-36 10 -74 18t-72 26q-6 2 -30 17t-54 33l-60 36t-48 28q-40 28 -67 47t-61 49q0 2 -4 5t-4 5 q-102 132 -152 272l-58 4q-6 0 -18 1t-26 2t-26 2t-18 1q-6 4 -11 14l-7 14q-10 46 -11 81t-1 79q-2 6 -1 32z" />
<glyph unicode="&#x25fc;" horiz-adv-x="1980" d="M0 0v1980h1980v-1980h-1980z" />
</font>
</defs>
</svg>
